G04 #@! TF.GenerationSoftware,KiCad,Pcbnew,7.0.1*
G04 #@! TF.CreationDate,2023-12-04T13:47:49-08:00*
G04 #@! TF.ProjectId,GReX_Power,47526558-5f50-46f7-9765-722e6b696361,2*
G04 #@! TF.SameCoordinates,Original*
G04 #@! TF.FileFunction,Legend,Top*
G04 #@! TF.FilePolarity,Positive*
%FSLAX46Y46*%
G04 Gerber Fmt 4.6, Leading zero omitted, Abs format (unit mm)*
G04 Created by KiCad (PCBNEW 7.0.1) date 2023-12-04 13:47:49*
%MOMM*%
%LPD*%
G01*
G04 APERTURE LIST*
G04 Aperture macros list*
%AMRoundRect*
0 Rectangle with rounded corners*
0 $1 Rounding radius*
0 $2 $3 $4 $5 $6 $7 $8 $9 X,Y pos of 4 corners*
0 Add a 4 corners polygon primitive as box body*
4,1,4,$2,$3,$4,$5,$6,$7,$8,$9,$2,$3,0*
0 Add four circle primitives for the rounded corners*
1,1,$1+$1,$2,$3*
1,1,$1+$1,$4,$5*
1,1,$1+$1,$6,$7*
1,1,$1+$1,$8,$9*
0 Add four rect primitives between the rounded corners*
20,1,$1+$1,$2,$3,$4,$5,0*
20,1,$1+$1,$4,$5,$6,$7,0*
20,1,$1+$1,$6,$7,$8,$9,0*
20,1,$1+$1,$8,$9,$2,$3,0*%
G04 Aperture macros list end*
%ADD10C,0.150000*%
%ADD11C,0.120000*%
%ADD12RoundRect,0.250000X0.325000X0.650000X-0.325000X0.650000X-0.325000X-0.650000X0.325000X-0.650000X0*%
%ADD13R,2.600000X2.600000*%
%ADD14C,2.600000*%
%ADD15R,0.600000X0.450000*%
%ADD16RoundRect,0.150000X0.150000X-0.587500X0.150000X0.587500X-0.150000X0.587500X-0.150000X-0.587500X0*%
%ADD17RoundRect,0.135000X0.135000X0.185000X-0.135000X0.185000X-0.135000X-0.185000X0.135000X-0.185000X0*%
%ADD18RoundRect,0.218750X0.218750X0.256250X-0.218750X0.256250X-0.218750X-0.256250X0.218750X-0.256250X0*%
%ADD19C,3.600000*%
%ADD20C,6.400000*%
%ADD21RoundRect,0.135000X-0.185000X0.135000X-0.185000X-0.135000X0.185000X-0.135000X0.185000X0.135000X0*%
%ADD22RoundRect,0.250000X-0.450000X-0.425000X0.450000X-0.425000X0.450000X0.425000X-0.450000X0.425000X0*%
%ADD23R,2.900000X5.400000*%
%ADD24R,0.600000X1.550000*%
%ADD25R,3.100000X2.600000*%
%ADD26RoundRect,0.200000X0.200000X0.275000X-0.200000X0.275000X-0.200000X-0.275000X0.200000X-0.275000X0*%
%ADD27R,1.500000X2.200000*%
%ADD28RoundRect,0.200000X-0.200000X-0.275000X0.200000X-0.275000X0.200000X0.275000X-0.200000X0.275000X0*%
%ADD29RoundRect,0.250000X-0.262500X-0.450000X0.262500X-0.450000X0.262500X0.450000X-0.262500X0.450000X0*%
%ADD30R,1.800000X2.500000*%
%ADD31R,2.300000X2.300000*%
%ADD32C,2.300000*%
%ADD33RoundRect,0.250000X-0.250000X-0.475000X0.250000X-0.475000X0.250000X0.475000X-0.250000X0.475000X0*%
%ADD34RoundRect,0.250000X-1.025000X0.787500X-1.025000X-0.787500X1.025000X-0.787500X1.025000X0.787500X0*%
%ADD35RoundRect,0.135000X-0.135000X-0.185000X0.135000X-0.185000X0.135000X0.185000X-0.135000X0.185000X0*%
%ADD36RoundRect,0.250000X-0.925000X0.787500X-0.925000X-0.787500X0.925000X-0.787500X0.925000X0.787500X0*%
G04 APERTURE END LIST*
D10*
X152258333Y-109902380D02*
X152210714Y-109950000D01*
X152210714Y-109950000D02*
X152067857Y-109997619D01*
X152067857Y-109997619D02*
X151972619Y-109997619D01*
X151972619Y-109997619D02*
X151829762Y-109950000D01*
X151829762Y-109950000D02*
X151734524Y-109854761D01*
X151734524Y-109854761D02*
X151686905Y-109759523D01*
X151686905Y-109759523D02*
X151639286Y-109569047D01*
X151639286Y-109569047D02*
X151639286Y-109426190D01*
X151639286Y-109426190D02*
X151686905Y-109235714D01*
X151686905Y-109235714D02*
X151734524Y-109140476D01*
X151734524Y-109140476D02*
X151829762Y-109045238D01*
X151829762Y-109045238D02*
X151972619Y-108997619D01*
X151972619Y-108997619D02*
X152067857Y-108997619D01*
X152067857Y-108997619D02*
X152210714Y-109045238D01*
X152210714Y-109045238D02*
X152258333Y-109092857D01*
X153210714Y-109997619D02*
X152639286Y-109997619D01*
X152925000Y-109997619D02*
X152925000Y-108997619D01*
X152925000Y-108997619D02*
X152829762Y-109140476D01*
X152829762Y-109140476D02*
X152734524Y-109235714D01*
X152734524Y-109235714D02*
X152639286Y-109283333D01*
X163890333Y-113394880D02*
X163842714Y-113442500D01*
X163842714Y-113442500D02*
X163699857Y-113490119D01*
X163699857Y-113490119D02*
X163604619Y-113490119D01*
X163604619Y-113490119D02*
X163461762Y-113442500D01*
X163461762Y-113442500D02*
X163366524Y-113347261D01*
X163366524Y-113347261D02*
X163318905Y-113252023D01*
X163318905Y-113252023D02*
X163271286Y-113061547D01*
X163271286Y-113061547D02*
X163271286Y-112918690D01*
X163271286Y-112918690D02*
X163318905Y-112728214D01*
X163318905Y-112728214D02*
X163366524Y-112632976D01*
X163366524Y-112632976D02*
X163461762Y-112537738D01*
X163461762Y-112537738D02*
X163604619Y-112490119D01*
X163604619Y-112490119D02*
X163699857Y-112490119D01*
X163699857Y-112490119D02*
X163842714Y-112537738D01*
X163842714Y-112537738D02*
X163890333Y-112585357D01*
X164747476Y-112823452D02*
X164747476Y-113490119D01*
X164509381Y-112442500D02*
X164271286Y-113156785D01*
X164271286Y-113156785D02*
X164890333Y-113156785D01*
X186303905Y-107736619D02*
X186303905Y-106736619D01*
X186303905Y-106736619D02*
X186542000Y-106736619D01*
X186542000Y-106736619D02*
X186684857Y-106784238D01*
X186684857Y-106784238D02*
X186780095Y-106879476D01*
X186780095Y-106879476D02*
X186827714Y-106974714D01*
X186827714Y-106974714D02*
X186875333Y-107165190D01*
X186875333Y-107165190D02*
X186875333Y-107308047D01*
X186875333Y-107308047D02*
X186827714Y-107498523D01*
X186827714Y-107498523D02*
X186780095Y-107593761D01*
X186780095Y-107593761D02*
X186684857Y-107689000D01*
X186684857Y-107689000D02*
X186542000Y-107736619D01*
X186542000Y-107736619D02*
X186303905Y-107736619D01*
X187256286Y-106831857D02*
X187303905Y-106784238D01*
X187303905Y-106784238D02*
X187399143Y-106736619D01*
X187399143Y-106736619D02*
X187637238Y-106736619D01*
X187637238Y-106736619D02*
X187732476Y-106784238D01*
X187732476Y-106784238D02*
X187780095Y-106831857D01*
X187780095Y-106831857D02*
X187827714Y-106927095D01*
X187827714Y-106927095D02*
X187827714Y-107022333D01*
X187827714Y-107022333D02*
X187780095Y-107165190D01*
X187780095Y-107165190D02*
X187208667Y-107736619D01*
X187208667Y-107736619D02*
X187827714Y-107736619D01*
X196846761Y-108031857D02*
X196751523Y-107984238D01*
X196751523Y-107984238D02*
X196656285Y-107889000D01*
X196656285Y-107889000D02*
X196513428Y-107746142D01*
X196513428Y-107746142D02*
X196418190Y-107698523D01*
X196418190Y-107698523D02*
X196322952Y-107698523D01*
X196370571Y-107936619D02*
X196275333Y-107889000D01*
X196275333Y-107889000D02*
X196180095Y-107793761D01*
X196180095Y-107793761D02*
X196132476Y-107603285D01*
X196132476Y-107603285D02*
X196132476Y-107269952D01*
X196132476Y-107269952D02*
X196180095Y-107079476D01*
X196180095Y-107079476D02*
X196275333Y-106984238D01*
X196275333Y-106984238D02*
X196370571Y-106936619D01*
X196370571Y-106936619D02*
X196561047Y-106936619D01*
X196561047Y-106936619D02*
X196656285Y-106984238D01*
X196656285Y-106984238D02*
X196751523Y-107079476D01*
X196751523Y-107079476D02*
X196799142Y-107269952D01*
X196799142Y-107269952D02*
X196799142Y-107603285D01*
X196799142Y-107603285D02*
X196751523Y-107793761D01*
X196751523Y-107793761D02*
X196656285Y-107889000D01*
X196656285Y-107889000D02*
X196561047Y-107936619D01*
X196561047Y-107936619D02*
X196370571Y-107936619D01*
X197751523Y-107936619D02*
X197180095Y-107936619D01*
X197465809Y-107936619D02*
X197465809Y-106936619D01*
X197465809Y-106936619D02*
X197370571Y-107079476D01*
X197370571Y-107079476D02*
X197275333Y-107174714D01*
X197275333Y-107174714D02*
X197180095Y-107222333D01*
X197575333Y-114536619D02*
X197242000Y-114060428D01*
X197003905Y-114536619D02*
X197003905Y-113536619D01*
X197003905Y-113536619D02*
X197384857Y-113536619D01*
X197384857Y-113536619D02*
X197480095Y-113584238D01*
X197480095Y-113584238D02*
X197527714Y-113631857D01*
X197527714Y-113631857D02*
X197575333Y-113727095D01*
X197575333Y-113727095D02*
X197575333Y-113869952D01*
X197575333Y-113869952D02*
X197527714Y-113965190D01*
X197527714Y-113965190D02*
X197480095Y-114012809D01*
X197480095Y-114012809D02*
X197384857Y-114060428D01*
X197384857Y-114060428D02*
X197003905Y-114060428D01*
X198527714Y-114536619D02*
X197956286Y-114536619D01*
X198242000Y-114536619D02*
X198242000Y-113536619D01*
X198242000Y-113536619D02*
X198146762Y-113679476D01*
X198146762Y-113679476D02*
X198051524Y-113774714D01*
X198051524Y-113774714D02*
X197956286Y-113822333D01*
X138761905Y-103462619D02*
X138761905Y-102462619D01*
X138761905Y-102462619D02*
X139000000Y-102462619D01*
X139000000Y-102462619D02*
X139142857Y-102510238D01*
X139142857Y-102510238D02*
X139238095Y-102605476D01*
X139238095Y-102605476D02*
X139285714Y-102700714D01*
X139285714Y-102700714D02*
X139333333Y-102891190D01*
X139333333Y-102891190D02*
X139333333Y-103034047D01*
X139333333Y-103034047D02*
X139285714Y-103224523D01*
X139285714Y-103224523D02*
X139238095Y-103319761D01*
X139238095Y-103319761D02*
X139142857Y-103415000D01*
X139142857Y-103415000D02*
X139000000Y-103462619D01*
X139000000Y-103462619D02*
X138761905Y-103462619D01*
X139904762Y-102891190D02*
X139809524Y-102843571D01*
X139809524Y-102843571D02*
X139761905Y-102795952D01*
X139761905Y-102795952D02*
X139714286Y-102700714D01*
X139714286Y-102700714D02*
X139714286Y-102653095D01*
X139714286Y-102653095D02*
X139761905Y-102557857D01*
X139761905Y-102557857D02*
X139809524Y-102510238D01*
X139809524Y-102510238D02*
X139904762Y-102462619D01*
X139904762Y-102462619D02*
X140095238Y-102462619D01*
X140095238Y-102462619D02*
X140190476Y-102510238D01*
X140190476Y-102510238D02*
X140238095Y-102557857D01*
X140238095Y-102557857D02*
X140285714Y-102653095D01*
X140285714Y-102653095D02*
X140285714Y-102700714D01*
X140285714Y-102700714D02*
X140238095Y-102795952D01*
X140238095Y-102795952D02*
X140190476Y-102843571D01*
X140190476Y-102843571D02*
X140095238Y-102891190D01*
X140095238Y-102891190D02*
X139904762Y-102891190D01*
X139904762Y-102891190D02*
X139809524Y-102938809D01*
X139809524Y-102938809D02*
X139761905Y-102986428D01*
X139761905Y-102986428D02*
X139714286Y-103081666D01*
X139714286Y-103081666D02*
X139714286Y-103272142D01*
X139714286Y-103272142D02*
X139761905Y-103367380D01*
X139761905Y-103367380D02*
X139809524Y-103415000D01*
X139809524Y-103415000D02*
X139904762Y-103462619D01*
X139904762Y-103462619D02*
X140095238Y-103462619D01*
X140095238Y-103462619D02*
X140190476Y-103415000D01*
X140190476Y-103415000D02*
X140238095Y-103367380D01*
X140238095Y-103367380D02*
X140285714Y-103272142D01*
X140285714Y-103272142D02*
X140285714Y-103081666D01*
X140285714Y-103081666D02*
X140238095Y-102986428D01*
X140238095Y-102986428D02*
X140190476Y-102938809D01*
X140190476Y-102938809D02*
X140095238Y-102891190D01*
X138761905Y-87462619D02*
X138761905Y-86462619D01*
X138761905Y-86462619D02*
X139000000Y-86462619D01*
X139000000Y-86462619D02*
X139142857Y-86510238D01*
X139142857Y-86510238D02*
X139238095Y-86605476D01*
X139238095Y-86605476D02*
X139285714Y-86700714D01*
X139285714Y-86700714D02*
X139333333Y-86891190D01*
X139333333Y-86891190D02*
X139333333Y-87034047D01*
X139333333Y-87034047D02*
X139285714Y-87224523D01*
X139285714Y-87224523D02*
X139238095Y-87319761D01*
X139238095Y-87319761D02*
X139142857Y-87415000D01*
X139142857Y-87415000D02*
X139000000Y-87462619D01*
X139000000Y-87462619D02*
X138761905Y-87462619D01*
X140190476Y-86462619D02*
X140000000Y-86462619D01*
X140000000Y-86462619D02*
X139904762Y-86510238D01*
X139904762Y-86510238D02*
X139857143Y-86557857D01*
X139857143Y-86557857D02*
X139761905Y-86700714D01*
X139761905Y-86700714D02*
X139714286Y-86891190D01*
X139714286Y-86891190D02*
X139714286Y-87272142D01*
X139714286Y-87272142D02*
X139761905Y-87367380D01*
X139761905Y-87367380D02*
X139809524Y-87415000D01*
X139809524Y-87415000D02*
X139904762Y-87462619D01*
X139904762Y-87462619D02*
X140095238Y-87462619D01*
X140095238Y-87462619D02*
X140190476Y-87415000D01*
X140190476Y-87415000D02*
X140238095Y-87367380D01*
X140238095Y-87367380D02*
X140285714Y-87272142D01*
X140285714Y-87272142D02*
X140285714Y-87034047D01*
X140285714Y-87034047D02*
X140238095Y-86938809D01*
X140238095Y-86938809D02*
X140190476Y-86891190D01*
X140190476Y-86891190D02*
X140095238Y-86843571D01*
X140095238Y-86843571D02*
X139904762Y-86843571D01*
X139904762Y-86843571D02*
X139809524Y-86891190D01*
X139809524Y-86891190D02*
X139761905Y-86938809D01*
X139761905Y-86938809D02*
X139714286Y-87034047D01*
X167313619Y-99758166D02*
X166837428Y-100091499D01*
X167313619Y-100329594D02*
X166313619Y-100329594D01*
X166313619Y-100329594D02*
X166313619Y-99948642D01*
X166313619Y-99948642D02*
X166361238Y-99853404D01*
X166361238Y-99853404D02*
X166408857Y-99805785D01*
X166408857Y-99805785D02*
X166504095Y-99758166D01*
X166504095Y-99758166D02*
X166646952Y-99758166D01*
X166646952Y-99758166D02*
X166742190Y-99805785D01*
X166742190Y-99805785D02*
X166789809Y-99853404D01*
X166789809Y-99853404D02*
X166837428Y-99948642D01*
X166837428Y-99948642D02*
X166837428Y-100329594D01*
X166646952Y-98901023D02*
X167313619Y-98901023D01*
X166266000Y-99139118D02*
X166980285Y-99377213D01*
X166980285Y-99377213D02*
X166980285Y-98758166D01*
X183305333Y-111299380D02*
X183257714Y-111347000D01*
X183257714Y-111347000D02*
X183114857Y-111394619D01*
X183114857Y-111394619D02*
X183019619Y-111394619D01*
X183019619Y-111394619D02*
X182876762Y-111347000D01*
X182876762Y-111347000D02*
X182781524Y-111251761D01*
X182781524Y-111251761D02*
X182733905Y-111156523D01*
X182733905Y-111156523D02*
X182686286Y-110966047D01*
X182686286Y-110966047D02*
X182686286Y-110823190D01*
X182686286Y-110823190D02*
X182733905Y-110632714D01*
X182733905Y-110632714D02*
X182781524Y-110537476D01*
X182781524Y-110537476D02*
X182876762Y-110442238D01*
X182876762Y-110442238D02*
X183019619Y-110394619D01*
X183019619Y-110394619D02*
X183114857Y-110394619D01*
X183114857Y-110394619D02*
X183257714Y-110442238D01*
X183257714Y-110442238D02*
X183305333Y-110489857D01*
X184210095Y-110394619D02*
X183733905Y-110394619D01*
X183733905Y-110394619D02*
X183686286Y-110870809D01*
X183686286Y-110870809D02*
X183733905Y-110823190D01*
X183733905Y-110823190D02*
X183829143Y-110775571D01*
X183829143Y-110775571D02*
X184067238Y-110775571D01*
X184067238Y-110775571D02*
X184162476Y-110823190D01*
X184162476Y-110823190D02*
X184210095Y-110870809D01*
X184210095Y-110870809D02*
X184257714Y-110966047D01*
X184257714Y-110966047D02*
X184257714Y-111204142D01*
X184257714Y-111204142D02*
X184210095Y-111299380D01*
X184210095Y-111299380D02*
X184162476Y-111347000D01*
X184162476Y-111347000D02*
X184067238Y-111394619D01*
X184067238Y-111394619D02*
X183829143Y-111394619D01*
X183829143Y-111394619D02*
X183733905Y-111347000D01*
X183733905Y-111347000D02*
X183686286Y-111299380D01*
X152033333Y-84255619D02*
X151557143Y-84255619D01*
X151557143Y-84255619D02*
X151557143Y-83255619D01*
X152319048Y-83350857D02*
X152366667Y-83303238D01*
X152366667Y-83303238D02*
X152461905Y-83255619D01*
X152461905Y-83255619D02*
X152700000Y-83255619D01*
X152700000Y-83255619D02*
X152795238Y-83303238D01*
X152795238Y-83303238D02*
X152842857Y-83350857D01*
X152842857Y-83350857D02*
X152890476Y-83446095D01*
X152890476Y-83446095D02*
X152890476Y-83541333D01*
X152890476Y-83541333D02*
X152842857Y-83684190D01*
X152842857Y-83684190D02*
X152271429Y-84255619D01*
X152271429Y-84255619D02*
X152890476Y-84255619D01*
X163890333Y-109902380D02*
X163842714Y-109950000D01*
X163842714Y-109950000D02*
X163699857Y-109997619D01*
X163699857Y-109997619D02*
X163604619Y-109997619D01*
X163604619Y-109997619D02*
X163461762Y-109950000D01*
X163461762Y-109950000D02*
X163366524Y-109854761D01*
X163366524Y-109854761D02*
X163318905Y-109759523D01*
X163318905Y-109759523D02*
X163271286Y-109569047D01*
X163271286Y-109569047D02*
X163271286Y-109426190D01*
X163271286Y-109426190D02*
X163318905Y-109235714D01*
X163318905Y-109235714D02*
X163366524Y-109140476D01*
X163366524Y-109140476D02*
X163461762Y-109045238D01*
X163461762Y-109045238D02*
X163604619Y-108997619D01*
X163604619Y-108997619D02*
X163699857Y-108997619D01*
X163699857Y-108997619D02*
X163842714Y-109045238D01*
X163842714Y-109045238D02*
X163890333Y-109092857D01*
X164223667Y-108997619D02*
X164842714Y-108997619D01*
X164842714Y-108997619D02*
X164509381Y-109378571D01*
X164509381Y-109378571D02*
X164652238Y-109378571D01*
X164652238Y-109378571D02*
X164747476Y-109426190D01*
X164747476Y-109426190D02*
X164795095Y-109473809D01*
X164795095Y-109473809D02*
X164842714Y-109569047D01*
X164842714Y-109569047D02*
X164842714Y-109807142D01*
X164842714Y-109807142D02*
X164795095Y-109902380D01*
X164795095Y-109902380D02*
X164747476Y-109950000D01*
X164747476Y-109950000D02*
X164652238Y-109997619D01*
X164652238Y-109997619D02*
X164366524Y-109997619D01*
X164366524Y-109997619D02*
X164271286Y-109950000D01*
X164271286Y-109950000D02*
X164223667Y-109902380D01*
X167710619Y-104962904D02*
X168520142Y-104962904D01*
X168520142Y-104962904D02*
X168615380Y-104915285D01*
X168615380Y-104915285D02*
X168663000Y-104867666D01*
X168663000Y-104867666D02*
X168710619Y-104772428D01*
X168710619Y-104772428D02*
X168710619Y-104581952D01*
X168710619Y-104581952D02*
X168663000Y-104486714D01*
X168663000Y-104486714D02*
X168615380Y-104439095D01*
X168615380Y-104439095D02*
X168520142Y-104391476D01*
X168520142Y-104391476D02*
X167710619Y-104391476D01*
X168710619Y-103391476D02*
X168710619Y-103962904D01*
X168710619Y-103677190D02*
X167710619Y-103677190D01*
X167710619Y-103677190D02*
X167853476Y-103772428D01*
X167853476Y-103772428D02*
X167948714Y-103867666D01*
X167948714Y-103867666D02*
X167996333Y-103962904D01*
X138882142Y-115962619D02*
X138548809Y-115486428D01*
X138310714Y-115962619D02*
X138310714Y-114962619D01*
X138310714Y-114962619D02*
X138691666Y-114962619D01*
X138691666Y-114962619D02*
X138786904Y-115010238D01*
X138786904Y-115010238D02*
X138834523Y-115057857D01*
X138834523Y-115057857D02*
X138882142Y-115153095D01*
X138882142Y-115153095D02*
X138882142Y-115295952D01*
X138882142Y-115295952D02*
X138834523Y-115391190D01*
X138834523Y-115391190D02*
X138786904Y-115438809D01*
X138786904Y-115438809D02*
X138691666Y-115486428D01*
X138691666Y-115486428D02*
X138310714Y-115486428D01*
X139834523Y-115962619D02*
X139263095Y-115962619D01*
X139548809Y-115962619D02*
X139548809Y-114962619D01*
X139548809Y-114962619D02*
X139453571Y-115105476D01*
X139453571Y-115105476D02*
X139358333Y-115200714D01*
X139358333Y-115200714D02*
X139263095Y-115248333D01*
X140786904Y-115962619D02*
X140215476Y-115962619D01*
X140501190Y-115962619D02*
X140501190Y-114962619D01*
X140501190Y-114962619D02*
X140405952Y-115105476D01*
X140405952Y-115105476D02*
X140310714Y-115200714D01*
X140310714Y-115200714D02*
X140215476Y-115248333D01*
X138857142Y-92162619D02*
X138523809Y-91686428D01*
X138285714Y-92162619D02*
X138285714Y-91162619D01*
X138285714Y-91162619D02*
X138666666Y-91162619D01*
X138666666Y-91162619D02*
X138761904Y-91210238D01*
X138761904Y-91210238D02*
X138809523Y-91257857D01*
X138809523Y-91257857D02*
X138857142Y-91353095D01*
X138857142Y-91353095D02*
X138857142Y-91495952D01*
X138857142Y-91495952D02*
X138809523Y-91591190D01*
X138809523Y-91591190D02*
X138761904Y-91638809D01*
X138761904Y-91638809D02*
X138666666Y-91686428D01*
X138666666Y-91686428D02*
X138285714Y-91686428D01*
X139809523Y-92162619D02*
X139238095Y-92162619D01*
X139523809Y-92162619D02*
X139523809Y-91162619D01*
X139523809Y-91162619D02*
X139428571Y-91305476D01*
X139428571Y-91305476D02*
X139333333Y-91400714D01*
X139333333Y-91400714D02*
X139238095Y-91448333D01*
X140428571Y-91162619D02*
X140523809Y-91162619D01*
X140523809Y-91162619D02*
X140619047Y-91210238D01*
X140619047Y-91210238D02*
X140666666Y-91257857D01*
X140666666Y-91257857D02*
X140714285Y-91353095D01*
X140714285Y-91353095D02*
X140761904Y-91543571D01*
X140761904Y-91543571D02*
X140761904Y-91781666D01*
X140761904Y-91781666D02*
X140714285Y-91972142D01*
X140714285Y-91972142D02*
X140666666Y-92067380D01*
X140666666Y-92067380D02*
X140619047Y-92115000D01*
X140619047Y-92115000D02*
X140523809Y-92162619D01*
X140523809Y-92162619D02*
X140428571Y-92162619D01*
X140428571Y-92162619D02*
X140333333Y-92115000D01*
X140333333Y-92115000D02*
X140285714Y-92067380D01*
X140285714Y-92067380D02*
X140238095Y-91972142D01*
X140238095Y-91972142D02*
X140190476Y-91781666D01*
X140190476Y-91781666D02*
X140190476Y-91543571D01*
X140190476Y-91543571D02*
X140238095Y-91353095D01*
X140238095Y-91353095D02*
X140285714Y-91257857D01*
X140285714Y-91257857D02*
X140333333Y-91210238D01*
X140333333Y-91210238D02*
X140428571Y-91162619D01*
X175701333Y-117617619D02*
X175225143Y-117617619D01*
X175225143Y-117617619D02*
X175225143Y-116617619D01*
X175939429Y-116617619D02*
X176558476Y-116617619D01*
X176558476Y-116617619D02*
X176225143Y-116998571D01*
X176225143Y-116998571D02*
X176368000Y-116998571D01*
X176368000Y-116998571D02*
X176463238Y-117046190D01*
X176463238Y-117046190D02*
X176510857Y-117093809D01*
X176510857Y-117093809D02*
X176558476Y-117189047D01*
X176558476Y-117189047D02*
X176558476Y-117427142D01*
X176558476Y-117427142D02*
X176510857Y-117522380D01*
X176510857Y-117522380D02*
X176463238Y-117570000D01*
X176463238Y-117570000D02*
X176368000Y-117617619D01*
X176368000Y-117617619D02*
X176082286Y-117617619D01*
X176082286Y-117617619D02*
X175987048Y-117570000D01*
X175987048Y-117570000D02*
X175939429Y-117522380D01*
X139358333Y-100062619D02*
X139025000Y-99586428D01*
X138786905Y-100062619D02*
X138786905Y-99062619D01*
X138786905Y-99062619D02*
X139167857Y-99062619D01*
X139167857Y-99062619D02*
X139263095Y-99110238D01*
X139263095Y-99110238D02*
X139310714Y-99157857D01*
X139310714Y-99157857D02*
X139358333Y-99253095D01*
X139358333Y-99253095D02*
X139358333Y-99395952D01*
X139358333Y-99395952D02*
X139310714Y-99491190D01*
X139310714Y-99491190D02*
X139263095Y-99538809D01*
X139263095Y-99538809D02*
X139167857Y-99586428D01*
X139167857Y-99586428D02*
X138786905Y-99586428D01*
X139834524Y-100062619D02*
X140025000Y-100062619D01*
X140025000Y-100062619D02*
X140120238Y-100015000D01*
X140120238Y-100015000D02*
X140167857Y-99967380D01*
X140167857Y-99967380D02*
X140263095Y-99824523D01*
X140263095Y-99824523D02*
X140310714Y-99634047D01*
X140310714Y-99634047D02*
X140310714Y-99253095D01*
X140310714Y-99253095D02*
X140263095Y-99157857D01*
X140263095Y-99157857D02*
X140215476Y-99110238D01*
X140215476Y-99110238D02*
X140120238Y-99062619D01*
X140120238Y-99062619D02*
X139929762Y-99062619D01*
X139929762Y-99062619D02*
X139834524Y-99110238D01*
X139834524Y-99110238D02*
X139786905Y-99157857D01*
X139786905Y-99157857D02*
X139739286Y-99253095D01*
X139739286Y-99253095D02*
X139739286Y-99491190D01*
X139739286Y-99491190D02*
X139786905Y-99586428D01*
X139786905Y-99586428D02*
X139834524Y-99634047D01*
X139834524Y-99634047D02*
X139929762Y-99681666D01*
X139929762Y-99681666D02*
X140120238Y-99681666D01*
X140120238Y-99681666D02*
X140215476Y-99634047D01*
X140215476Y-99634047D02*
X140263095Y-99586428D01*
X140263095Y-99586428D02*
X140310714Y-99491190D01*
X148787619Y-105089904D02*
X149597142Y-105089904D01*
X149597142Y-105089904D02*
X149692380Y-105042285D01*
X149692380Y-105042285D02*
X149740000Y-104994666D01*
X149740000Y-104994666D02*
X149787619Y-104899428D01*
X149787619Y-104899428D02*
X149787619Y-104708952D01*
X149787619Y-104708952D02*
X149740000Y-104613714D01*
X149740000Y-104613714D02*
X149692380Y-104566095D01*
X149692380Y-104566095D02*
X149597142Y-104518476D01*
X149597142Y-104518476D02*
X148787619Y-104518476D01*
X148882857Y-104089904D02*
X148835238Y-104042285D01*
X148835238Y-104042285D02*
X148787619Y-103947047D01*
X148787619Y-103947047D02*
X148787619Y-103708952D01*
X148787619Y-103708952D02*
X148835238Y-103613714D01*
X148835238Y-103613714D02*
X148882857Y-103566095D01*
X148882857Y-103566095D02*
X148978095Y-103518476D01*
X148978095Y-103518476D02*
X149073333Y-103518476D01*
X149073333Y-103518476D02*
X149216190Y-103566095D01*
X149216190Y-103566095D02*
X149787619Y-104137523D01*
X149787619Y-104137523D02*
X149787619Y-103518476D01*
X188067833Y-111236619D02*
X187734500Y-110760428D01*
X187496405Y-111236619D02*
X187496405Y-110236619D01*
X187496405Y-110236619D02*
X187877357Y-110236619D01*
X187877357Y-110236619D02*
X187972595Y-110284238D01*
X187972595Y-110284238D02*
X188020214Y-110331857D01*
X188020214Y-110331857D02*
X188067833Y-110427095D01*
X188067833Y-110427095D02*
X188067833Y-110569952D01*
X188067833Y-110569952D02*
X188020214Y-110665190D01*
X188020214Y-110665190D02*
X187972595Y-110712809D01*
X187972595Y-110712809D02*
X187877357Y-110760428D01*
X187877357Y-110760428D02*
X187496405Y-110760428D01*
X188401167Y-110236619D02*
X189020214Y-110236619D01*
X189020214Y-110236619D02*
X188686881Y-110617571D01*
X188686881Y-110617571D02*
X188829738Y-110617571D01*
X188829738Y-110617571D02*
X188924976Y-110665190D01*
X188924976Y-110665190D02*
X188972595Y-110712809D01*
X188972595Y-110712809D02*
X189020214Y-110808047D01*
X189020214Y-110808047D02*
X189020214Y-111046142D01*
X189020214Y-111046142D02*
X188972595Y-111141380D01*
X188972595Y-111141380D02*
X188924976Y-111189000D01*
X188924976Y-111189000D02*
X188829738Y-111236619D01*
X188829738Y-111236619D02*
X188544024Y-111236619D01*
X188544024Y-111236619D02*
X188448786Y-111189000D01*
X188448786Y-111189000D02*
X188401167Y-111141380D01*
X167313619Y-101827666D02*
X166837428Y-102160999D01*
X167313619Y-102399094D02*
X166313619Y-102399094D01*
X166313619Y-102399094D02*
X166313619Y-102018142D01*
X166313619Y-102018142D02*
X166361238Y-101922904D01*
X166361238Y-101922904D02*
X166408857Y-101875285D01*
X166408857Y-101875285D02*
X166504095Y-101827666D01*
X166504095Y-101827666D02*
X166646952Y-101827666D01*
X166646952Y-101827666D02*
X166742190Y-101875285D01*
X166742190Y-101875285D02*
X166789809Y-101922904D01*
X166789809Y-101922904D02*
X166837428Y-102018142D01*
X166837428Y-102018142D02*
X166837428Y-102399094D01*
X166313619Y-100922904D02*
X166313619Y-101399094D01*
X166313619Y-101399094D02*
X166789809Y-101446713D01*
X166789809Y-101446713D02*
X166742190Y-101399094D01*
X166742190Y-101399094D02*
X166694571Y-101303856D01*
X166694571Y-101303856D02*
X166694571Y-101065761D01*
X166694571Y-101065761D02*
X166742190Y-100970523D01*
X166742190Y-100970523D02*
X166789809Y-100922904D01*
X166789809Y-100922904D02*
X166885047Y-100875285D01*
X166885047Y-100875285D02*
X167123142Y-100875285D01*
X167123142Y-100875285D02*
X167218380Y-100922904D01*
X167218380Y-100922904D02*
X167266000Y-100970523D01*
X167266000Y-100970523D02*
X167313619Y-101065761D01*
X167313619Y-101065761D02*
X167313619Y-101303856D01*
X167313619Y-101303856D02*
X167266000Y-101399094D01*
X167266000Y-101399094D02*
X167218380Y-101446713D01*
X152258333Y-113367380D02*
X152210714Y-113415000D01*
X152210714Y-113415000D02*
X152067857Y-113462619D01*
X152067857Y-113462619D02*
X151972619Y-113462619D01*
X151972619Y-113462619D02*
X151829762Y-113415000D01*
X151829762Y-113415000D02*
X151734524Y-113319761D01*
X151734524Y-113319761D02*
X151686905Y-113224523D01*
X151686905Y-113224523D02*
X151639286Y-113034047D01*
X151639286Y-113034047D02*
X151639286Y-112891190D01*
X151639286Y-112891190D02*
X151686905Y-112700714D01*
X151686905Y-112700714D02*
X151734524Y-112605476D01*
X151734524Y-112605476D02*
X151829762Y-112510238D01*
X151829762Y-112510238D02*
X151972619Y-112462619D01*
X151972619Y-112462619D02*
X152067857Y-112462619D01*
X152067857Y-112462619D02*
X152210714Y-112510238D01*
X152210714Y-112510238D02*
X152258333Y-112557857D01*
X152639286Y-112557857D02*
X152686905Y-112510238D01*
X152686905Y-112510238D02*
X152782143Y-112462619D01*
X152782143Y-112462619D02*
X153020238Y-112462619D01*
X153020238Y-112462619D02*
X153115476Y-112510238D01*
X153115476Y-112510238D02*
X153163095Y-112557857D01*
X153163095Y-112557857D02*
X153210714Y-112653095D01*
X153210714Y-112653095D02*
X153210714Y-112748333D01*
X153210714Y-112748333D02*
X153163095Y-112891190D01*
X153163095Y-112891190D02*
X152591667Y-113462619D01*
X152591667Y-113462619D02*
X153210714Y-113462619D01*
X138786905Y-111362619D02*
X138786905Y-110362619D01*
X138786905Y-110362619D02*
X139025000Y-110362619D01*
X139025000Y-110362619D02*
X139167857Y-110410238D01*
X139167857Y-110410238D02*
X139263095Y-110505476D01*
X139263095Y-110505476D02*
X139310714Y-110600714D01*
X139310714Y-110600714D02*
X139358333Y-110791190D01*
X139358333Y-110791190D02*
X139358333Y-110934047D01*
X139358333Y-110934047D02*
X139310714Y-111124523D01*
X139310714Y-111124523D02*
X139263095Y-111219761D01*
X139263095Y-111219761D02*
X139167857Y-111315000D01*
X139167857Y-111315000D02*
X139025000Y-111362619D01*
X139025000Y-111362619D02*
X138786905Y-111362619D01*
X139691667Y-110362619D02*
X140358333Y-110362619D01*
X140358333Y-110362619D02*
X139929762Y-111362619D01*
X191584333Y-115221619D02*
X191251000Y-114745428D01*
X191012905Y-115221619D02*
X191012905Y-114221619D01*
X191012905Y-114221619D02*
X191393857Y-114221619D01*
X191393857Y-114221619D02*
X191489095Y-114269238D01*
X191489095Y-114269238D02*
X191536714Y-114316857D01*
X191536714Y-114316857D02*
X191584333Y-114412095D01*
X191584333Y-114412095D02*
X191584333Y-114554952D01*
X191584333Y-114554952D02*
X191536714Y-114650190D01*
X191536714Y-114650190D02*
X191489095Y-114697809D01*
X191489095Y-114697809D02*
X191393857Y-114745428D01*
X191393857Y-114745428D02*
X191012905Y-114745428D01*
X192155762Y-114650190D02*
X192060524Y-114602571D01*
X192060524Y-114602571D02*
X192012905Y-114554952D01*
X192012905Y-114554952D02*
X191965286Y-114459714D01*
X191965286Y-114459714D02*
X191965286Y-114412095D01*
X191965286Y-114412095D02*
X192012905Y-114316857D01*
X192012905Y-114316857D02*
X192060524Y-114269238D01*
X192060524Y-114269238D02*
X192155762Y-114221619D01*
X192155762Y-114221619D02*
X192346238Y-114221619D01*
X192346238Y-114221619D02*
X192441476Y-114269238D01*
X192441476Y-114269238D02*
X192489095Y-114316857D01*
X192489095Y-114316857D02*
X192536714Y-114412095D01*
X192536714Y-114412095D02*
X192536714Y-114459714D01*
X192536714Y-114459714D02*
X192489095Y-114554952D01*
X192489095Y-114554952D02*
X192441476Y-114602571D01*
X192441476Y-114602571D02*
X192346238Y-114650190D01*
X192346238Y-114650190D02*
X192155762Y-114650190D01*
X192155762Y-114650190D02*
X192060524Y-114697809D01*
X192060524Y-114697809D02*
X192012905Y-114745428D01*
X192012905Y-114745428D02*
X191965286Y-114840666D01*
X191965286Y-114840666D02*
X191965286Y-115031142D01*
X191965286Y-115031142D02*
X192012905Y-115126380D01*
X192012905Y-115126380D02*
X192060524Y-115174000D01*
X192060524Y-115174000D02*
X192155762Y-115221619D01*
X192155762Y-115221619D02*
X192346238Y-115221619D01*
X192346238Y-115221619D02*
X192441476Y-115174000D01*
X192441476Y-115174000D02*
X192489095Y-115126380D01*
X192489095Y-115126380D02*
X192536714Y-115031142D01*
X192536714Y-115031142D02*
X192536714Y-114840666D01*
X192536714Y-114840666D02*
X192489095Y-114745428D01*
X192489095Y-114745428D02*
X192441476Y-114697809D01*
X192441476Y-114697809D02*
X192346238Y-114650190D01*
X148390619Y-99668666D02*
X147914428Y-100001999D01*
X148390619Y-100240094D02*
X147390619Y-100240094D01*
X147390619Y-100240094D02*
X147390619Y-99859142D01*
X147390619Y-99859142D02*
X147438238Y-99763904D01*
X147438238Y-99763904D02*
X147485857Y-99716285D01*
X147485857Y-99716285D02*
X147581095Y-99668666D01*
X147581095Y-99668666D02*
X147723952Y-99668666D01*
X147723952Y-99668666D02*
X147819190Y-99716285D01*
X147819190Y-99716285D02*
X147866809Y-99763904D01*
X147866809Y-99763904D02*
X147914428Y-99859142D01*
X147914428Y-99859142D02*
X147914428Y-100240094D01*
X147390619Y-98811523D02*
X147390619Y-99001999D01*
X147390619Y-99001999D02*
X147438238Y-99097237D01*
X147438238Y-99097237D02*
X147485857Y-99144856D01*
X147485857Y-99144856D02*
X147628714Y-99240094D01*
X147628714Y-99240094D02*
X147819190Y-99287713D01*
X147819190Y-99287713D02*
X148200142Y-99287713D01*
X148200142Y-99287713D02*
X148295380Y-99240094D01*
X148295380Y-99240094D02*
X148343000Y-99192475D01*
X148343000Y-99192475D02*
X148390619Y-99097237D01*
X148390619Y-99097237D02*
X148390619Y-98906761D01*
X148390619Y-98906761D02*
X148343000Y-98811523D01*
X148343000Y-98811523D02*
X148295380Y-98763904D01*
X148295380Y-98763904D02*
X148200142Y-98716285D01*
X148200142Y-98716285D02*
X147962047Y-98716285D01*
X147962047Y-98716285D02*
X147866809Y-98763904D01*
X147866809Y-98763904D02*
X147819190Y-98811523D01*
X147819190Y-98811523D02*
X147771571Y-98906761D01*
X147771571Y-98906761D02*
X147771571Y-99097237D01*
X147771571Y-99097237D02*
X147819190Y-99192475D01*
X147819190Y-99192475D02*
X147866809Y-99240094D01*
X147866809Y-99240094D02*
X147962047Y-99287713D01*
X157095905Y-109235619D02*
X157095905Y-108235619D01*
X157095905Y-108235619D02*
X157334000Y-108235619D01*
X157334000Y-108235619D02*
X157476857Y-108283238D01*
X157476857Y-108283238D02*
X157572095Y-108378476D01*
X157572095Y-108378476D02*
X157619714Y-108473714D01*
X157619714Y-108473714D02*
X157667333Y-108664190D01*
X157667333Y-108664190D02*
X157667333Y-108807047D01*
X157667333Y-108807047D02*
X157619714Y-108997523D01*
X157619714Y-108997523D02*
X157572095Y-109092761D01*
X157572095Y-109092761D02*
X157476857Y-109188000D01*
X157476857Y-109188000D02*
X157334000Y-109235619D01*
X157334000Y-109235619D02*
X157095905Y-109235619D01*
X158524476Y-108568952D02*
X158524476Y-109235619D01*
X158286381Y-108188000D02*
X158048286Y-108902285D01*
X158048286Y-108902285D02*
X158667333Y-108902285D01*
X189971905Y-96715619D02*
X189971905Y-95715619D01*
X190543333Y-96715619D02*
X190114762Y-96144190D01*
X190543333Y-95715619D02*
X189971905Y-96287047D01*
X191495714Y-96715619D02*
X190924286Y-96715619D01*
X191210000Y-96715619D02*
X191210000Y-95715619D01*
X191210000Y-95715619D02*
X191114762Y-95858476D01*
X191114762Y-95858476D02*
X191019524Y-95953714D01*
X191019524Y-95953714D02*
X190924286Y-96001333D01*
X179497333Y-100069880D02*
X179449714Y-100117500D01*
X179449714Y-100117500D02*
X179306857Y-100165119D01*
X179306857Y-100165119D02*
X179211619Y-100165119D01*
X179211619Y-100165119D02*
X179068762Y-100117500D01*
X179068762Y-100117500D02*
X178973524Y-100022261D01*
X178973524Y-100022261D02*
X178925905Y-99927023D01*
X178925905Y-99927023D02*
X178878286Y-99736547D01*
X178878286Y-99736547D02*
X178878286Y-99593690D01*
X178878286Y-99593690D02*
X178925905Y-99403214D01*
X178925905Y-99403214D02*
X178973524Y-99307976D01*
X178973524Y-99307976D02*
X179068762Y-99212738D01*
X179068762Y-99212738D02*
X179211619Y-99165119D01*
X179211619Y-99165119D02*
X179306857Y-99165119D01*
X179306857Y-99165119D02*
X179449714Y-99212738D01*
X179449714Y-99212738D02*
X179497333Y-99260357D01*
X180354476Y-99165119D02*
X180164000Y-99165119D01*
X180164000Y-99165119D02*
X180068762Y-99212738D01*
X180068762Y-99212738D02*
X180021143Y-99260357D01*
X180021143Y-99260357D02*
X179925905Y-99403214D01*
X179925905Y-99403214D02*
X179878286Y-99593690D01*
X179878286Y-99593690D02*
X179878286Y-99974642D01*
X179878286Y-99974642D02*
X179925905Y-100069880D01*
X179925905Y-100069880D02*
X179973524Y-100117500D01*
X179973524Y-100117500D02*
X180068762Y-100165119D01*
X180068762Y-100165119D02*
X180259238Y-100165119D01*
X180259238Y-100165119D02*
X180354476Y-100117500D01*
X180354476Y-100117500D02*
X180402095Y-100069880D01*
X180402095Y-100069880D02*
X180449714Y-99974642D01*
X180449714Y-99974642D02*
X180449714Y-99736547D01*
X180449714Y-99736547D02*
X180402095Y-99641309D01*
X180402095Y-99641309D02*
X180354476Y-99593690D01*
X180354476Y-99593690D02*
X180259238Y-99546071D01*
X180259238Y-99546071D02*
X180068762Y-99546071D01*
X180068762Y-99546071D02*
X179973524Y-99593690D01*
X179973524Y-99593690D02*
X179925905Y-99641309D01*
X179925905Y-99641309D02*
X179878286Y-99736547D01*
X138786905Y-95462619D02*
X138786905Y-94462619D01*
X138786905Y-94462619D02*
X139025000Y-94462619D01*
X139025000Y-94462619D02*
X139167857Y-94510238D01*
X139167857Y-94510238D02*
X139263095Y-94605476D01*
X139263095Y-94605476D02*
X139310714Y-94700714D01*
X139310714Y-94700714D02*
X139358333Y-94891190D01*
X139358333Y-94891190D02*
X139358333Y-95034047D01*
X139358333Y-95034047D02*
X139310714Y-95224523D01*
X139310714Y-95224523D02*
X139263095Y-95319761D01*
X139263095Y-95319761D02*
X139167857Y-95415000D01*
X139167857Y-95415000D02*
X139025000Y-95462619D01*
X139025000Y-95462619D02*
X138786905Y-95462619D01*
X140263095Y-94462619D02*
X139786905Y-94462619D01*
X139786905Y-94462619D02*
X139739286Y-94938809D01*
X139739286Y-94938809D02*
X139786905Y-94891190D01*
X139786905Y-94891190D02*
X139882143Y-94843571D01*
X139882143Y-94843571D02*
X140120238Y-94843571D01*
X140120238Y-94843571D02*
X140215476Y-94891190D01*
X140215476Y-94891190D02*
X140263095Y-94938809D01*
X140263095Y-94938809D02*
X140310714Y-95034047D01*
X140310714Y-95034047D02*
X140310714Y-95272142D01*
X140310714Y-95272142D02*
X140263095Y-95367380D01*
X140263095Y-95367380D02*
X140215476Y-95415000D01*
X140215476Y-95415000D02*
X140120238Y-95462619D01*
X140120238Y-95462619D02*
X139882143Y-95462619D01*
X139882143Y-95462619D02*
X139786905Y-95415000D01*
X139786905Y-95415000D02*
X139739286Y-95367380D01*
X160433333Y-100067380D02*
X160385714Y-100115000D01*
X160385714Y-100115000D02*
X160242857Y-100162619D01*
X160242857Y-100162619D02*
X160147619Y-100162619D01*
X160147619Y-100162619D02*
X160004762Y-100115000D01*
X160004762Y-100115000D02*
X159909524Y-100019761D01*
X159909524Y-100019761D02*
X159861905Y-99924523D01*
X159861905Y-99924523D02*
X159814286Y-99734047D01*
X159814286Y-99734047D02*
X159814286Y-99591190D01*
X159814286Y-99591190D02*
X159861905Y-99400714D01*
X159861905Y-99400714D02*
X159909524Y-99305476D01*
X159909524Y-99305476D02*
X160004762Y-99210238D01*
X160004762Y-99210238D02*
X160147619Y-99162619D01*
X160147619Y-99162619D02*
X160242857Y-99162619D01*
X160242857Y-99162619D02*
X160385714Y-99210238D01*
X160385714Y-99210238D02*
X160433333Y-99257857D01*
X160766667Y-99162619D02*
X161433333Y-99162619D01*
X161433333Y-99162619D02*
X161004762Y-100162619D01*
X138857142Y-108062619D02*
X138523809Y-107586428D01*
X138285714Y-108062619D02*
X138285714Y-107062619D01*
X138285714Y-107062619D02*
X138666666Y-107062619D01*
X138666666Y-107062619D02*
X138761904Y-107110238D01*
X138761904Y-107110238D02*
X138809523Y-107157857D01*
X138809523Y-107157857D02*
X138857142Y-107253095D01*
X138857142Y-107253095D02*
X138857142Y-107395952D01*
X138857142Y-107395952D02*
X138809523Y-107491190D01*
X138809523Y-107491190D02*
X138761904Y-107538809D01*
X138761904Y-107538809D02*
X138666666Y-107586428D01*
X138666666Y-107586428D02*
X138285714Y-107586428D01*
X139809523Y-108062619D02*
X139238095Y-108062619D01*
X139523809Y-108062619D02*
X139523809Y-107062619D01*
X139523809Y-107062619D02*
X139428571Y-107205476D01*
X139428571Y-107205476D02*
X139333333Y-107300714D01*
X139333333Y-107300714D02*
X139238095Y-107348333D01*
X140190476Y-107157857D02*
X140238095Y-107110238D01*
X140238095Y-107110238D02*
X140333333Y-107062619D01*
X140333333Y-107062619D02*
X140571428Y-107062619D01*
X140571428Y-107062619D02*
X140666666Y-107110238D01*
X140666666Y-107110238D02*
X140714285Y-107157857D01*
X140714285Y-107157857D02*
X140761904Y-107253095D01*
X140761904Y-107253095D02*
X140761904Y-107348333D01*
X140761904Y-107348333D02*
X140714285Y-107491190D01*
X140714285Y-107491190D02*
X140142857Y-108062619D01*
X140142857Y-108062619D02*
X140761904Y-108062619D01*
X142072380Y-101700666D02*
X142120000Y-101748285D01*
X142120000Y-101748285D02*
X142167619Y-101891142D01*
X142167619Y-101891142D02*
X142167619Y-101986380D01*
X142167619Y-101986380D02*
X142120000Y-102129237D01*
X142120000Y-102129237D02*
X142024761Y-102224475D01*
X142024761Y-102224475D02*
X141929523Y-102272094D01*
X141929523Y-102272094D02*
X141739047Y-102319713D01*
X141739047Y-102319713D02*
X141596190Y-102319713D01*
X141596190Y-102319713D02*
X141405714Y-102272094D01*
X141405714Y-102272094D02*
X141310476Y-102224475D01*
X141310476Y-102224475D02*
X141215238Y-102129237D01*
X141215238Y-102129237D02*
X141167619Y-101986380D01*
X141167619Y-101986380D02*
X141167619Y-101891142D01*
X141167619Y-101891142D02*
X141215238Y-101748285D01*
X141215238Y-101748285D02*
X141262857Y-101700666D01*
X142167619Y-101224475D02*
X142167619Y-101033999D01*
X142167619Y-101033999D02*
X142120000Y-100938761D01*
X142120000Y-100938761D02*
X142072380Y-100891142D01*
X142072380Y-100891142D02*
X141929523Y-100795904D01*
X141929523Y-100795904D02*
X141739047Y-100748285D01*
X141739047Y-100748285D02*
X141358095Y-100748285D01*
X141358095Y-100748285D02*
X141262857Y-100795904D01*
X141262857Y-100795904D02*
X141215238Y-100843523D01*
X141215238Y-100843523D02*
X141167619Y-100938761D01*
X141167619Y-100938761D02*
X141167619Y-101129237D01*
X141167619Y-101129237D02*
X141215238Y-101224475D01*
X141215238Y-101224475D02*
X141262857Y-101272094D01*
X141262857Y-101272094D02*
X141358095Y-101319713D01*
X141358095Y-101319713D02*
X141596190Y-101319713D01*
X141596190Y-101319713D02*
X141691428Y-101272094D01*
X141691428Y-101272094D02*
X141739047Y-101224475D01*
X141739047Y-101224475D02*
X141786666Y-101129237D01*
X141786666Y-101129237D02*
X141786666Y-100938761D01*
X141786666Y-100938761D02*
X141739047Y-100843523D01*
X141739047Y-100843523D02*
X141691428Y-100795904D01*
X141691428Y-100795904D02*
X141596190Y-100748285D01*
X148390619Y-101766666D02*
X147914428Y-102099999D01*
X148390619Y-102338094D02*
X147390619Y-102338094D01*
X147390619Y-102338094D02*
X147390619Y-101957142D01*
X147390619Y-101957142D02*
X147438238Y-101861904D01*
X147438238Y-101861904D02*
X147485857Y-101814285D01*
X147485857Y-101814285D02*
X147581095Y-101766666D01*
X147581095Y-101766666D02*
X147723952Y-101766666D01*
X147723952Y-101766666D02*
X147819190Y-101814285D01*
X147819190Y-101814285D02*
X147866809Y-101861904D01*
X147866809Y-101861904D02*
X147914428Y-101957142D01*
X147914428Y-101957142D02*
X147914428Y-102338094D01*
X147390619Y-101433332D02*
X147390619Y-100766666D01*
X147390619Y-100766666D02*
X148390619Y-101195237D01*
X179075905Y-104762619D02*
X179075905Y-103762619D01*
X179075905Y-103762619D02*
X179314000Y-103762619D01*
X179314000Y-103762619D02*
X179456857Y-103810238D01*
X179456857Y-103810238D02*
X179552095Y-103905476D01*
X179552095Y-103905476D02*
X179599714Y-104000714D01*
X179599714Y-104000714D02*
X179647333Y-104191190D01*
X179647333Y-104191190D02*
X179647333Y-104334047D01*
X179647333Y-104334047D02*
X179599714Y-104524523D01*
X179599714Y-104524523D02*
X179552095Y-104619761D01*
X179552095Y-104619761D02*
X179456857Y-104715000D01*
X179456857Y-104715000D02*
X179314000Y-104762619D01*
X179314000Y-104762619D02*
X179075905Y-104762619D01*
X179980667Y-103762619D02*
X180599714Y-103762619D01*
X180599714Y-103762619D02*
X180266381Y-104143571D01*
X180266381Y-104143571D02*
X180409238Y-104143571D01*
X180409238Y-104143571D02*
X180504476Y-104191190D01*
X180504476Y-104191190D02*
X180552095Y-104238809D01*
X180552095Y-104238809D02*
X180599714Y-104334047D01*
X180599714Y-104334047D02*
X180599714Y-104572142D01*
X180599714Y-104572142D02*
X180552095Y-104667380D01*
X180552095Y-104667380D02*
X180504476Y-104715000D01*
X180504476Y-104715000D02*
X180409238Y-104762619D01*
X180409238Y-104762619D02*
X180123524Y-104762619D01*
X180123524Y-104762619D02*
X180028286Y-104715000D01*
X180028286Y-104715000D02*
X179980667Y-104667380D01*
X191003905Y-111336619D02*
X191003905Y-110336619D01*
X191003905Y-110336619D02*
X191242000Y-110336619D01*
X191242000Y-110336619D02*
X191384857Y-110384238D01*
X191384857Y-110384238D02*
X191480095Y-110479476D01*
X191480095Y-110479476D02*
X191527714Y-110574714D01*
X191527714Y-110574714D02*
X191575333Y-110765190D01*
X191575333Y-110765190D02*
X191575333Y-110908047D01*
X191575333Y-110908047D02*
X191527714Y-111098523D01*
X191527714Y-111098523D02*
X191480095Y-111193761D01*
X191480095Y-111193761D02*
X191384857Y-111289000D01*
X191384857Y-111289000D02*
X191242000Y-111336619D01*
X191242000Y-111336619D02*
X191003905Y-111336619D01*
X192527714Y-111336619D02*
X191956286Y-111336619D01*
X192242000Y-111336619D02*
X192242000Y-110336619D01*
X192242000Y-110336619D02*
X192146762Y-110479476D01*
X192146762Y-110479476D02*
X192051524Y-110574714D01*
X192051524Y-110574714D02*
X191956286Y-110622333D01*
X169605333Y-84180619D02*
X169129143Y-84180619D01*
X169129143Y-84180619D02*
X169129143Y-83180619D01*
X170462476Y-84180619D02*
X169891048Y-84180619D01*
X170176762Y-84180619D02*
X170176762Y-83180619D01*
X170176762Y-83180619D02*
X170081524Y-83323476D01*
X170081524Y-83323476D02*
X169986286Y-83418714D01*
X169986286Y-83418714D02*
X169891048Y-83466333D01*
X195275333Y-114536619D02*
X194942000Y-114060428D01*
X194703905Y-114536619D02*
X194703905Y-113536619D01*
X194703905Y-113536619D02*
X195084857Y-113536619D01*
X195084857Y-113536619D02*
X195180095Y-113584238D01*
X195180095Y-113584238D02*
X195227714Y-113631857D01*
X195227714Y-113631857D02*
X195275333Y-113727095D01*
X195275333Y-113727095D02*
X195275333Y-113869952D01*
X195275333Y-113869952D02*
X195227714Y-113965190D01*
X195227714Y-113965190D02*
X195180095Y-114012809D01*
X195180095Y-114012809D02*
X195084857Y-114060428D01*
X195084857Y-114060428D02*
X194703905Y-114060428D01*
X195656286Y-113631857D02*
X195703905Y-113584238D01*
X195703905Y-113584238D02*
X195799143Y-113536619D01*
X195799143Y-113536619D02*
X196037238Y-113536619D01*
X196037238Y-113536619D02*
X196132476Y-113584238D01*
X196132476Y-113584238D02*
X196180095Y-113631857D01*
X196180095Y-113631857D02*
X196227714Y-113727095D01*
X196227714Y-113727095D02*
X196227714Y-113822333D01*
X196227714Y-113822333D02*
X196180095Y-113965190D01*
X196180095Y-113965190D02*
X195608667Y-114536619D01*
X195608667Y-114536619D02*
X196227714Y-114536619D01*
X161757380Y-102970666D02*
X161805000Y-103018285D01*
X161805000Y-103018285D02*
X161852619Y-103161142D01*
X161852619Y-103161142D02*
X161852619Y-103256380D01*
X161852619Y-103256380D02*
X161805000Y-103399237D01*
X161805000Y-103399237D02*
X161709761Y-103494475D01*
X161709761Y-103494475D02*
X161614523Y-103542094D01*
X161614523Y-103542094D02*
X161424047Y-103589713D01*
X161424047Y-103589713D02*
X161281190Y-103589713D01*
X161281190Y-103589713D02*
X161090714Y-103542094D01*
X161090714Y-103542094D02*
X160995476Y-103494475D01*
X160995476Y-103494475D02*
X160900238Y-103399237D01*
X160900238Y-103399237D02*
X160852619Y-103256380D01*
X160852619Y-103256380D02*
X160852619Y-103161142D01*
X160852619Y-103161142D02*
X160900238Y-103018285D01*
X160900238Y-103018285D02*
X160947857Y-102970666D01*
X161281190Y-102399237D02*
X161233571Y-102494475D01*
X161233571Y-102494475D02*
X161185952Y-102542094D01*
X161185952Y-102542094D02*
X161090714Y-102589713D01*
X161090714Y-102589713D02*
X161043095Y-102589713D01*
X161043095Y-102589713D02*
X160947857Y-102542094D01*
X160947857Y-102542094D02*
X160900238Y-102494475D01*
X160900238Y-102494475D02*
X160852619Y-102399237D01*
X160852619Y-102399237D02*
X160852619Y-102208761D01*
X160852619Y-102208761D02*
X160900238Y-102113523D01*
X160900238Y-102113523D02*
X160947857Y-102065904D01*
X160947857Y-102065904D02*
X161043095Y-102018285D01*
X161043095Y-102018285D02*
X161090714Y-102018285D01*
X161090714Y-102018285D02*
X161185952Y-102065904D01*
X161185952Y-102065904D02*
X161233571Y-102113523D01*
X161233571Y-102113523D02*
X161281190Y-102208761D01*
X161281190Y-102208761D02*
X161281190Y-102399237D01*
X161281190Y-102399237D02*
X161328809Y-102494475D01*
X161328809Y-102494475D02*
X161376428Y-102542094D01*
X161376428Y-102542094D02*
X161471666Y-102589713D01*
X161471666Y-102589713D02*
X161662142Y-102589713D01*
X161662142Y-102589713D02*
X161757380Y-102542094D01*
X161757380Y-102542094D02*
X161805000Y-102494475D01*
X161805000Y-102494475D02*
X161852619Y-102399237D01*
X161852619Y-102399237D02*
X161852619Y-102208761D01*
X161852619Y-102208761D02*
X161805000Y-102113523D01*
X161805000Y-102113523D02*
X161757380Y-102065904D01*
X161757380Y-102065904D02*
X161662142Y-102018285D01*
X161662142Y-102018285D02*
X161471666Y-102018285D01*
X161471666Y-102018285D02*
X161376428Y-102065904D01*
X161376428Y-102065904D02*
X161328809Y-102113523D01*
X161328809Y-102113523D02*
X161281190Y-102208761D01*
D11*
X153136252Y-108760000D02*
X151713748Y-108760000D01*
X153136252Y-106940000D02*
X151713748Y-106940000D01*
X141892000Y-125752000D02*
X141892000Y-126392000D01*
X141892000Y-126392000D02*
X142292000Y-126392000D01*
X142132000Y-117032000D02*
X142132000Y-126152000D01*
X142132000Y-117032000D02*
X172252000Y-117032000D01*
X142132000Y-124592000D02*
X172252000Y-124592000D01*
X142132000Y-125692000D02*
X172252000Y-125692000D01*
X142132000Y-126152000D02*
X172252000Y-126152000D01*
X143144000Y-122373000D02*
X143038000Y-122480000D01*
X143410000Y-122639000D02*
X143304000Y-122746000D01*
X146080000Y-119438000D02*
X145973000Y-119545000D01*
X146346000Y-119704000D02*
X146239000Y-119811000D01*
X148434000Y-122084000D02*
X148039000Y-122480000D01*
X148685000Y-122366000D02*
X148305000Y-122746000D01*
X151080000Y-119438000D02*
X150700000Y-119818000D01*
X151346000Y-119704000D02*
X150951000Y-120100000D01*
X153434000Y-122084000D02*
X153039000Y-122480000D01*
X153685000Y-122366000D02*
X153305000Y-122746000D01*
X156080000Y-119438000D02*
X155700000Y-119818000D01*
X156346000Y-119704000D02*
X155951000Y-120100000D01*
X158434000Y-122084000D02*
X158039000Y-122480000D01*
X158685000Y-122366000D02*
X158305000Y-122746000D01*
X161080000Y-119438000D02*
X160700000Y-119818000D01*
X161346000Y-119704000D02*
X160951000Y-120100000D01*
X163434000Y-122084000D02*
X163039000Y-122480000D01*
X163685000Y-122366000D02*
X163305000Y-122746000D01*
X166080000Y-119438000D02*
X165700000Y-119818000D01*
X166346000Y-119704000D02*
X165951000Y-120100000D01*
X168434000Y-122084000D02*
X168039000Y-122480000D01*
X168685000Y-122366000D02*
X168305000Y-122746000D01*
X171080000Y-119438000D02*
X170700000Y-119818000D01*
X171346000Y-119704000D02*
X170951000Y-120100000D01*
X172252000Y-117032000D02*
X172252000Y-126152000D01*
X146872000Y-121092000D02*
G75*
G03*
X146872000Y-121092000I-2180000J0D01*
G01*
X151872000Y-121092000D02*
G75*
G03*
X151872000Y-121092000I-2180000J0D01*
G01*
X156872000Y-121092000D02*
G75*
G03*
X156872000Y-121092000I-2180000J0D01*
G01*
X161872000Y-121092000D02*
G75*
G03*
X161872000Y-121092000I-2180000J0D01*
G01*
X166872000Y-121092000D02*
G75*
G03*
X166872000Y-121092000I-2180000J0D01*
G01*
X171872000Y-121092000D02*
G75*
G03*
X171872000Y-121092000I-2180000J0D01*
G01*
G36*
X171529561Y-81551109D02*
G01*
X171643266Y-81661838D01*
X171692214Y-81784604D01*
X171721582Y-81956054D01*
X171731372Y-82176188D01*
X171721715Y-82419340D01*
X171692743Y-82605871D01*
X171644456Y-82735781D01*
X171531049Y-82850081D01*
X171364659Y-82888181D01*
X171257503Y-82866750D01*
X171257503Y-81535631D01*
X171364659Y-81514200D01*
X171529561Y-81551109D01*
G37*
G36*
X169819228Y-83589062D02*
G01*
X169164384Y-83589062D01*
X168569072Y-83589062D01*
X168072978Y-83589062D01*
X168072978Y-82188094D01*
X168569072Y-82188094D01*
X168578374Y-82400174D01*
X168606279Y-82583977D01*
X168652788Y-82739502D01*
X168717900Y-82866750D01*
X168801616Y-82965721D01*
X168903935Y-83036414D01*
X169024858Y-83078830D01*
X169164384Y-83092969D01*
X169306730Y-83083708D01*
X169441668Y-83055927D01*
X169569197Y-83009625D01*
X169569197Y-82033313D01*
X169014366Y-82033313D01*
X169014366Y-82235719D01*
X169314403Y-82235719D01*
X169314403Y-82859606D01*
X169171528Y-82888181D01*
X169026272Y-82847700D01*
X168919116Y-82726256D01*
X168870168Y-82594494D01*
X168840799Y-82415106D01*
X168831009Y-82188094D01*
X168841328Y-81966241D01*
X168872284Y-81792806D01*
X168923878Y-81667791D01*
X169042345Y-81554384D01*
X169212009Y-81516581D01*
X169357861Y-81530869D01*
X169509666Y-81573731D01*
X169509666Y-81359419D01*
X169403593Y-81330844D01*
X169819228Y-81330844D01*
X169819228Y-83069156D01*
X170081166Y-83069156D01*
X170081166Y-81807094D01*
X170085928Y-81807094D01*
X170457403Y-83069156D01*
X170724103Y-83069156D01*
X170724103Y-83045344D01*
X170990803Y-83045344D01*
X171169992Y-83081062D01*
X171364659Y-83092969D01*
X171562303Y-83072430D01*
X171717084Y-83010816D01*
X171834659Y-82898599D01*
X171920681Y-82726256D01*
X171959707Y-82575179D01*
X171983123Y-82391823D01*
X171990928Y-82176188D01*
X171981775Y-81953615D01*
X171954316Y-81766910D01*
X171908552Y-81616073D01*
X171844481Y-81501103D01*
X171726080Y-81393285D01*
X171566140Y-81328595D01*
X171364659Y-81307031D01*
X171177136Y-81318938D01*
X170990803Y-81354656D01*
X170990803Y-83045344D01*
X170724103Y-83045344D01*
X170724103Y-81330844D01*
X170474072Y-81330844D01*
X170474072Y-82592906D01*
X170466928Y-82592906D01*
X170095453Y-81330844D01*
X169819228Y-81330844D01*
X169403593Y-81330844D01*
X169363814Y-81320128D01*
X169212009Y-81307031D01*
X169015556Y-81330579D01*
X168854822Y-81401223D01*
X168729806Y-81518963D01*
X168659485Y-81640257D01*
X168609255Y-81792211D01*
X168579118Y-81974823D01*
X168569072Y-82188094D01*
X168072978Y-82188094D01*
X168072978Y-80810938D01*
X168569072Y-80810938D01*
X171990928Y-80810938D01*
X172487022Y-80810938D01*
X172487022Y-83589062D01*
X171990928Y-83589062D01*
X171364659Y-83589062D01*
X169819228Y-83589062D01*
G37*
X207198000Y-106380000D02*
X207838000Y-106380000D01*
X207838000Y-106380000D02*
X207838000Y-105980000D01*
X198478000Y-106140000D02*
X207598000Y-106140000D01*
X198478000Y-106140000D02*
X198478000Y-86019000D01*
X206038000Y-106140000D02*
X206038000Y-86019000D01*
X207138000Y-106140000D02*
X207138000Y-86019000D01*
X207598000Y-106140000D02*
X207598000Y-86019000D01*
X203819000Y-105128000D02*
X203926000Y-105234000D01*
X204085000Y-104862000D02*
X204192000Y-104968000D01*
X200884000Y-102192000D02*
X200991000Y-102299000D01*
X201150000Y-101926000D02*
X201257000Y-102033000D01*
X203530000Y-99838000D02*
X203926000Y-100233000D01*
X203812000Y-99587000D02*
X204192000Y-99967000D01*
X200884000Y-97192000D02*
X201264000Y-97572000D01*
X201150000Y-96926000D02*
X201546000Y-97321000D01*
X203530000Y-94838000D02*
X203926000Y-95233000D01*
X203812000Y-94587000D02*
X204192000Y-94967000D01*
X200884000Y-92192000D02*
X201264000Y-92572000D01*
X201150000Y-91926000D02*
X201546000Y-92321000D01*
X203530000Y-89838000D02*
X203926000Y-90233000D01*
X203812000Y-89587000D02*
X204192000Y-89967000D01*
X200884000Y-87192000D02*
X201264000Y-87572000D01*
X201150000Y-86926000D02*
X201546000Y-87321000D01*
X198478000Y-86019000D02*
X207598000Y-86019000D01*
X204718000Y-103580000D02*
G75*
G03*
X204718000Y-103580000I-2180000J0D01*
G01*
X204718000Y-98580000D02*
G75*
G03*
X204718000Y-98580000I-2180000J0D01*
G01*
X204718000Y-93580000D02*
G75*
G03*
X204718000Y-93580000I-2180000J0D01*
G01*
X204718000Y-88580000D02*
G75*
G03*
X204718000Y-88580000I-2180000J0D01*
G01*
G36*
X155385281Y-83565250D02*
G01*
X153651731Y-83565250D01*
X153385031Y-83565250D01*
X152888938Y-83565250D01*
X152888938Y-83069156D01*
X153385031Y-83069156D01*
X153651731Y-83069156D01*
X154551844Y-83069156D01*
X155385281Y-83069156D01*
X155611500Y-83069156D01*
X155844862Y-83069156D01*
X155885344Y-81592781D01*
X155892487Y-81592781D01*
X156028219Y-82664344D01*
X156254437Y-82664344D01*
X156402075Y-81592781D01*
X156404456Y-81592781D01*
X156440175Y-83069156D01*
X156694969Y-83069156D01*
X156606863Y-81330844D01*
X156306825Y-81330844D01*
X156163950Y-82438125D01*
X156159188Y-82438125D01*
X156013931Y-81330844D01*
X155701988Y-81330844D01*
X155611500Y-83069156D01*
X155385281Y-83069156D01*
X155385281Y-82861987D01*
X154818544Y-82861987D01*
X154818544Y-82235719D01*
X155361469Y-82235719D01*
X155361469Y-82033313D01*
X154818544Y-82033313D01*
X154818544Y-81538012D01*
X155385281Y-81538012D01*
X155385281Y-81330844D01*
X154551844Y-81330844D01*
X154551844Y-83069156D01*
X153651731Y-83069156D01*
X153651731Y-82235719D01*
X154170844Y-82235719D01*
X154170844Y-82033313D01*
X153651731Y-82033313D01*
X153651731Y-81538012D01*
X154194656Y-81538012D01*
X154194656Y-81330844D01*
X153385031Y-81330844D01*
X153385031Y-83069156D01*
X152888938Y-83069156D01*
X152888938Y-80834750D01*
X153385031Y-80834750D01*
X156694969Y-80834750D01*
X157191062Y-80834750D01*
X157191062Y-83565250D01*
X156694969Y-83565250D01*
X155844862Y-83565250D01*
X155385281Y-83565250D01*
G37*
X164768252Y-112087500D02*
X163345748Y-112087500D01*
X164768252Y-110267500D02*
X163345748Y-110267500D01*
X188522000Y-106399000D02*
X188522000Y-108099000D01*
X188522000Y-106399000D02*
X191072000Y-106399000D01*
X188522000Y-108099000D02*
X191072000Y-108099000D01*
X195462000Y-110186500D02*
X195462000Y-111861500D01*
X195462000Y-110186500D02*
X195462000Y-109536500D01*
X198582000Y-110186500D02*
X198582000Y-110836500D01*
X198582000Y-110186500D02*
X198582000Y-109536500D01*
X197695641Y-113154000D02*
X197388359Y-113154000D01*
X197695641Y-112394000D02*
X197388359Y-112394000D01*
G36*
X183572931Y-121100731D02*
G01*
X183649131Y-121321592D01*
X183677706Y-121655563D01*
X182829981Y-121655563D01*
X182870463Y-121312663D01*
X182953806Y-121093588D01*
X183085966Y-120975716D01*
X183272894Y-120936425D01*
X183572931Y-121100731D01*
G37*
G36*
X181016659Y-120011905D02*
G01*
X181196444Y-120124419D01*
X181303600Y-120317895D01*
X181339319Y-120598288D01*
X181301219Y-120891181D01*
X181186919Y-121084063D01*
X180982131Y-121191219D01*
X180672569Y-121226938D01*
X180486831Y-121226938D01*
X180486831Y-120012500D01*
X180763056Y-119974400D01*
X181016659Y-120011905D01*
G37*
G36*
X190568448Y-120018453D02*
G01*
X190747638Y-120150613D01*
X190853008Y-120381594D01*
X190888131Y-120722113D01*
X190853008Y-121088230D01*
X190747638Y-121329331D01*
X190568448Y-121463277D01*
X190311869Y-121507925D01*
X190035644Y-121474588D01*
X190035644Y-120012500D01*
X190311869Y-119974400D01*
X190568448Y-120018453D01*
G37*
G36*
X192707406Y-124124125D02*
G01*
X190035644Y-124124125D01*
X186644744Y-124124125D01*
X183382431Y-124124125D01*
X181953681Y-124124125D01*
X178658031Y-124124125D01*
X177467406Y-124124125D01*
X176475219Y-124124125D01*
X176475219Y-121322188D01*
X177467406Y-121322188D01*
X177486010Y-121746348D01*
X177541820Y-122113953D01*
X177634838Y-122425004D01*
X177765063Y-122679500D01*
X177932494Y-122877441D01*
X178137133Y-123018828D01*
X178378979Y-123103660D01*
X178658031Y-123131938D01*
X178942723Y-123113417D01*
X179084084Y-123084313D01*
X179953431Y-123084313D01*
X180486831Y-123084313D01*
X180486831Y-121641275D01*
X180672569Y-121641275D01*
X180960700Y-121734144D01*
X181051783Y-121868089D01*
X181129769Y-122084188D01*
X181405994Y-123084313D01*
X181953681Y-123084313D01*
X181658406Y-122112763D01*
X181549687Y-121846062D01*
X182287056Y-121846062D01*
X182309411Y-122187213D01*
X182376475Y-122475879D01*
X182488248Y-122712060D01*
X182644730Y-122895756D01*
X182845921Y-123026968D01*
X183091822Y-123105695D01*
X183382431Y-123131938D01*
X183714616Y-123102172D01*
X183784385Y-123084313D01*
X184620681Y-123084313D01*
X185182656Y-123084313D01*
X185616044Y-121693663D01*
X185625569Y-121693663D01*
X186063719Y-123084313D01*
X186644744Y-123084313D01*
X189502244Y-123084313D01*
X190035644Y-123084313D01*
X190035644Y-121893688D01*
X190311869Y-121917500D01*
X190651329Y-121885750D01*
X190926760Y-121790500D01*
X191138163Y-121631750D01*
X191287652Y-121403679D01*
X191377346Y-121100467D01*
X191407244Y-120722113D01*
X191387109Y-120464938D01*
X191873969Y-120464938D01*
X191923380Y-120803075D01*
X192071613Y-121084063D01*
X192235390Y-121249163D01*
X192463196Y-121407913D01*
X192755031Y-121560313D01*
X192959223Y-121682947D01*
X193095550Y-121822250D01*
X193172345Y-121991319D01*
X193197944Y-122203250D01*
X193164606Y-122425302D01*
X193064594Y-122586631D01*
X192905050Y-122684858D01*
X192693119Y-122717600D01*
X192414248Y-122683204D01*
X192149135Y-122580017D01*
X191897781Y-122408038D01*
X191897781Y-122903338D01*
X192142256Y-123030338D01*
X192412131Y-123106537D01*
X192707406Y-123131938D01*
X193076024Y-123093838D01*
X193362726Y-122979537D01*
X193567514Y-122789038D01*
X193690386Y-122522338D01*
X193731344Y-122179437D01*
X194207594Y-122179437D01*
X194232200Y-122489529D01*
X194306019Y-122734004D01*
X194429050Y-122912863D01*
X194608702Y-123034571D01*
X194852383Y-123107596D01*
X195160094Y-123131938D01*
X195467804Y-123107596D01*
X195711485Y-123034571D01*
X195891138Y-122912863D01*
X196014169Y-122734004D01*
X196087988Y-122489529D01*
X196112594Y-122179437D01*
X196112594Y-119607688D01*
X195593481Y-119607688D01*
X195593481Y-122084188D01*
X195569669Y-122395536D01*
X195498231Y-122586631D01*
X195169619Y-122717600D01*
X194970784Y-122684263D01*
X194841006Y-122584250D01*
X194769569Y-122392559D01*
X194745756Y-122084188D01*
X194745756Y-119607688D01*
X194207594Y-119607688D01*
X194207594Y-122179437D01*
X193731344Y-122179437D01*
X193680147Y-121811534D01*
X193526556Y-121517450D01*
X193352460Y-121347588D01*
X193103223Y-121180900D01*
X192778844Y-121017388D01*
X192567177Y-120875042D01*
X192440177Y-120682954D01*
X192397844Y-120441125D01*
X192431181Y-120245863D01*
X192531194Y-120098225D01*
X192689547Y-120005356D01*
X192897906Y-119974400D01*
X193268191Y-120025597D01*
X193636094Y-120179188D01*
X193636094Y-119702938D01*
X193379977Y-119623563D01*
X193113277Y-119575938D01*
X192835994Y-119560062D01*
X192551567Y-119586521D01*
X192314235Y-119665896D01*
X192124000Y-119798188D01*
X191936477Y-120083938D01*
X191873969Y-120464938D01*
X191387109Y-120464938D01*
X191378140Y-120350373D01*
X191290827Y-120054304D01*
X191145306Y-119833906D01*
X190936285Y-119681771D01*
X190658473Y-119590490D01*
X190311869Y-119560062D01*
X190037760Y-119570646D01*
X189767885Y-119602396D01*
X189502244Y-119655312D01*
X189502244Y-123084313D01*
X186644744Y-123084313D01*
X185968469Y-121312663D01*
X186635219Y-119607688D01*
X186082769Y-119607688D01*
X185644619Y-120941188D01*
X185635094Y-120941188D01*
X185201706Y-119607688D01*
X184634969Y-119607688D01*
X185301719Y-121312663D01*
X184620681Y-123084313D01*
X183784385Y-123084313D01*
X184063469Y-123012875D01*
X184063469Y-122617588D01*
X183737238Y-122714028D01*
X183444344Y-122746175D01*
X183188955Y-122705098D01*
X183003813Y-122581869D01*
X182885345Y-122361008D01*
X182829981Y-122027038D01*
X184182531Y-122027038D01*
X184192056Y-121836538D01*
X184167185Y-121429873D01*
X184092573Y-121105229D01*
X183968219Y-120862606D01*
X183793065Y-120694596D01*
X183566052Y-120593790D01*
X183287181Y-120560188D01*
X182981588Y-120595906D01*
X182731556Y-120703063D01*
X182537088Y-120881656D01*
X182398181Y-121131687D01*
X182314838Y-121453156D01*
X182287056Y-121846062D01*
X181549687Y-121846062D01*
X181506006Y-121738906D01*
X181325031Y-121503163D01*
X181325031Y-121493638D01*
X181558394Y-121357311D01*
X181725081Y-121162644D01*
X181825094Y-120909636D01*
X181858431Y-120598288D01*
X181829063Y-120271527D01*
X181740956Y-120008796D01*
X181594113Y-119810094D01*
X181384298Y-119671188D01*
X181107279Y-119587844D01*
X180763056Y-119560062D01*
X180488948Y-119570646D01*
X180219073Y-119602396D01*
X179953431Y-119655312D01*
X179953431Y-123084313D01*
X179084084Y-123084313D01*
X179212598Y-123057854D01*
X179467656Y-122965250D01*
X179467656Y-121012625D01*
X178357994Y-121012625D01*
X178357994Y-121417438D01*
X178958069Y-121417438D01*
X178958069Y-122665213D01*
X178672319Y-122722363D01*
X178381806Y-122641400D01*
X178167494Y-122398513D01*
X178069598Y-122134988D01*
X178010860Y-121776213D01*
X177991281Y-121322188D01*
X178011919Y-120878481D01*
X178073831Y-120531613D01*
X178177019Y-120281581D01*
X178413953Y-120054767D01*
X178753281Y-119979163D01*
X179044984Y-120007738D01*
X179348594Y-120093463D01*
X179348594Y-119664838D01*
X179056891Y-119586256D01*
X178753281Y-119560062D01*
X178360375Y-119607158D01*
X178038906Y-119748446D01*
X177788875Y-119983925D01*
X177648232Y-120226515D01*
X177547773Y-120530422D01*
X177487498Y-120895646D01*
X177467406Y-121322188D01*
X176475219Y-121322188D01*
X176475219Y-118567875D01*
X177467406Y-118567875D01*
X196112594Y-118567875D01*
X197104781Y-118567875D01*
X197104781Y-124124125D01*
X196112594Y-124124125D01*
X195160094Y-124124125D01*
X192707406Y-124124125D01*
G37*
X141010000Y-105235000D02*
X141010000Y-103765000D01*
X141010000Y-103765000D02*
X138725000Y-103765000D01*
X138725000Y-105235000D02*
X141010000Y-105235000D01*
G36*
X160861561Y-114855109D02*
G01*
X160975266Y-114965838D01*
X161024214Y-115088604D01*
X161053582Y-115260054D01*
X161063372Y-115480188D01*
X161053715Y-115723340D01*
X161024743Y-115909871D01*
X160976456Y-116039781D01*
X160863049Y-116154081D01*
X160696659Y-116192181D01*
X160589503Y-116170750D01*
X160589503Y-114839631D01*
X160696659Y-114818200D01*
X160861561Y-114855109D01*
G37*
G36*
X159151228Y-116893062D02*
G01*
X158496384Y-116893062D01*
X157901072Y-116893062D01*
X157404978Y-116893062D01*
X157404978Y-115492094D01*
X157901072Y-115492094D01*
X157910374Y-115704174D01*
X157938279Y-115887977D01*
X157984788Y-116043502D01*
X158049900Y-116170750D01*
X158133616Y-116269721D01*
X158235935Y-116340414D01*
X158356858Y-116382830D01*
X158496384Y-116396969D01*
X158638730Y-116387708D01*
X158773668Y-116359927D01*
X158901197Y-116313625D01*
X158901197Y-115337313D01*
X158346366Y-115337313D01*
X158346366Y-115539719D01*
X158646403Y-115539719D01*
X158646403Y-116163606D01*
X158503528Y-116192181D01*
X158358272Y-116151700D01*
X158251116Y-116030256D01*
X158202168Y-115898494D01*
X158172799Y-115719106D01*
X158163009Y-115492094D01*
X158173328Y-115270241D01*
X158204284Y-115096806D01*
X158255878Y-114971791D01*
X158374345Y-114858384D01*
X158544009Y-114820581D01*
X158689861Y-114834869D01*
X158841666Y-114877731D01*
X158841666Y-114663419D01*
X158735593Y-114634844D01*
X159151228Y-114634844D01*
X159151228Y-116373156D01*
X159413166Y-116373156D01*
X159413166Y-115111094D01*
X159417928Y-115111094D01*
X159789403Y-116373156D01*
X160056103Y-116373156D01*
X160056103Y-116349344D01*
X160322803Y-116349344D01*
X160501992Y-116385062D01*
X160696659Y-116396969D01*
X160894303Y-116376430D01*
X161049084Y-116314816D01*
X161166659Y-116202599D01*
X161252681Y-116030256D01*
X161291707Y-115879179D01*
X161315123Y-115695823D01*
X161322928Y-115480188D01*
X161313775Y-115257615D01*
X161286316Y-115070910D01*
X161240552Y-114920073D01*
X161176481Y-114805103D01*
X161058080Y-114697285D01*
X160898140Y-114632595D01*
X160696659Y-114611031D01*
X160509136Y-114622938D01*
X160322803Y-114658656D01*
X160322803Y-116349344D01*
X160056103Y-116349344D01*
X160056103Y-114634844D01*
X159806072Y-114634844D01*
X159806072Y-115896906D01*
X159798928Y-115896906D01*
X159427453Y-114634844D01*
X159151228Y-114634844D01*
X158735593Y-114634844D01*
X158695814Y-114624128D01*
X158544009Y-114611031D01*
X158347556Y-114634579D01*
X158186822Y-114705223D01*
X158061806Y-114822963D01*
X157991485Y-114944257D01*
X157941255Y-115096211D01*
X157911118Y-115278823D01*
X157901072Y-115492094D01*
X157404978Y-115492094D01*
X157404978Y-114114938D01*
X157901072Y-114114938D01*
X161322928Y-114114938D01*
X161819022Y-114114938D01*
X161819022Y-116893062D01*
X161322928Y-116893062D01*
X160696659Y-116893062D01*
X159151228Y-116893062D01*
G37*
X141010000Y-89235000D02*
X141010000Y-87765000D01*
X141010000Y-87765000D02*
X138725000Y-87765000D01*
X138725000Y-89235000D02*
X141010000Y-89235000D01*
G36*
X153841437Y-116893062D02*
G01*
X153424719Y-116893062D01*
X152928625Y-116893062D01*
X152928625Y-115063469D01*
X153424719Y-115063469D01*
X153449424Y-115232538D01*
X153523541Y-115373031D01*
X153605429Y-115455581D01*
X153719332Y-115534956D01*
X153865250Y-115611156D01*
X153967346Y-115672473D01*
X154035509Y-115742125D01*
X154073907Y-115826659D01*
X154086706Y-115932625D01*
X154070038Y-116043651D01*
X154020031Y-116124316D01*
X153940259Y-116173429D01*
X153834294Y-116189800D01*
X153694858Y-116172602D01*
X153562302Y-116121008D01*
X153436625Y-116035019D01*
X153436625Y-116282669D01*
X153558863Y-116346169D01*
X153693800Y-116384269D01*
X153841437Y-116396969D01*
X154025746Y-116377919D01*
X154169098Y-116320769D01*
X154271491Y-116225519D01*
X154332928Y-116092169D01*
X154353406Y-115920719D01*
X154327808Y-115736767D01*
X154251013Y-115589725D01*
X154163965Y-115504794D01*
X154039346Y-115421450D01*
X153877156Y-115339694D01*
X153771323Y-115268521D01*
X153707823Y-115172477D01*
X153686656Y-115051563D01*
X153703325Y-114953931D01*
X153753331Y-114880113D01*
X153832508Y-114833678D01*
X153936688Y-114818200D01*
X154121830Y-114843798D01*
X154305781Y-114920594D01*
X154305781Y-114682469D01*
X154177723Y-114642781D01*
X154133275Y-114634844D01*
X154496281Y-114634844D01*
X154651063Y-116373156D01*
X154908237Y-116373156D01*
X155048731Y-115206344D01*
X155055875Y-115206344D01*
X155174937Y-116373156D01*
X155484500Y-116373156D01*
X155639281Y-114634844D01*
X155401156Y-114634844D01*
X155313050Y-116123125D01*
X155308287Y-116123125D01*
X155182081Y-114920594D01*
X154970150Y-114920594D01*
X154839181Y-115956438D01*
X154834419Y-115956438D01*
X154751075Y-114634844D01*
X154496281Y-114634844D01*
X154133275Y-114634844D01*
X154044373Y-114618969D01*
X153905731Y-114611031D01*
X153763518Y-114624260D01*
X153644852Y-114663948D01*
X153549734Y-114730094D01*
X153455973Y-114872969D01*
X153424719Y-115063469D01*
X152928625Y-115063469D01*
X152928625Y-114114938D01*
X153424719Y-114114938D01*
X155639281Y-114114938D01*
X156135375Y-114114938D01*
X156135375Y-116893062D01*
X155639281Y-116893062D01*
X155484500Y-116893062D01*
X153841437Y-116893062D01*
G37*
X168374000Y-99475359D02*
X168374000Y-99782641D01*
X167614000Y-99475359D02*
X167614000Y-99782641D01*
G36*
X170767561Y-114855109D02*
G01*
X170881266Y-114965838D01*
X170930214Y-115088604D01*
X170959582Y-115260054D01*
X170969372Y-115480188D01*
X170959715Y-115723340D01*
X170930743Y-115909871D01*
X170882456Y-116039781D01*
X170769049Y-116154081D01*
X170602659Y-116192181D01*
X170495503Y-116170750D01*
X170495503Y-114839631D01*
X170602659Y-114818200D01*
X170767561Y-114855109D01*
G37*
G36*
X169057228Y-116893062D02*
G01*
X168402384Y-116893062D01*
X167807072Y-116893062D01*
X167310978Y-116893062D01*
X167310978Y-115492094D01*
X167807072Y-115492094D01*
X167816374Y-115704174D01*
X167844279Y-115887977D01*
X167890788Y-116043502D01*
X167955900Y-116170750D01*
X168039616Y-116269721D01*
X168141935Y-116340414D01*
X168262858Y-116382830D01*
X168402384Y-116396969D01*
X168544730Y-116387708D01*
X168679668Y-116359927D01*
X168807197Y-116313625D01*
X168807197Y-115337313D01*
X168252366Y-115337313D01*
X168252366Y-115539719D01*
X168552403Y-115539719D01*
X168552403Y-116163606D01*
X168409528Y-116192181D01*
X168264272Y-116151700D01*
X168157116Y-116030256D01*
X168108168Y-115898494D01*
X168078799Y-115719106D01*
X168069009Y-115492094D01*
X168079328Y-115270241D01*
X168110284Y-115096806D01*
X168161878Y-114971791D01*
X168280345Y-114858384D01*
X168450009Y-114820581D01*
X168595861Y-114834869D01*
X168747666Y-114877731D01*
X168747666Y-114663419D01*
X168641593Y-114634844D01*
X169057228Y-114634844D01*
X169057228Y-116373156D01*
X169319166Y-116373156D01*
X169319166Y-115111094D01*
X169323928Y-115111094D01*
X169695403Y-116373156D01*
X169962103Y-116373156D01*
X169962103Y-116349344D01*
X170228803Y-116349344D01*
X170407992Y-116385062D01*
X170602659Y-116396969D01*
X170800303Y-116376430D01*
X170955084Y-116314816D01*
X171072659Y-116202599D01*
X171158681Y-116030256D01*
X171197707Y-115879179D01*
X171221123Y-115695823D01*
X171228928Y-115480188D01*
X171219775Y-115257615D01*
X171192316Y-115070910D01*
X171146552Y-114920073D01*
X171082481Y-114805103D01*
X170964080Y-114697285D01*
X170804140Y-114632595D01*
X170602659Y-114611031D01*
X170415136Y-114622938D01*
X170228803Y-114658656D01*
X170228803Y-116349344D01*
X169962103Y-116349344D01*
X169962103Y-114634844D01*
X169712072Y-114634844D01*
X169712072Y-115896906D01*
X169704928Y-115896906D01*
X169333453Y-114634844D01*
X169057228Y-114634844D01*
X168641593Y-114634844D01*
X168601814Y-114624128D01*
X168450009Y-114611031D01*
X168253556Y-114634579D01*
X168092822Y-114705223D01*
X167967806Y-114822963D01*
X167897485Y-114944257D01*
X167847255Y-115096211D01*
X167817118Y-115278823D01*
X167807072Y-115492094D01*
X167310978Y-115492094D01*
X167310978Y-114114938D01*
X167807072Y-114114938D01*
X171228928Y-114114938D01*
X171725022Y-114114938D01*
X171725022Y-116893062D01*
X171228928Y-116893062D01*
X170602659Y-116893062D01*
X169057228Y-116893062D01*
G37*
X183472000Y-111919000D02*
X183472000Y-113789000D01*
X183472000Y-113789000D02*
X187382000Y-113789000D01*
X187382000Y-111919000D02*
X183472000Y-111919000D01*
G36*
X151590561Y-81581109D02*
G01*
X151704266Y-81691838D01*
X151753214Y-81814604D01*
X151782582Y-81986054D01*
X151792372Y-82206188D01*
X151782715Y-82449340D01*
X151753743Y-82635871D01*
X151705456Y-82765781D01*
X151592049Y-82880081D01*
X151425659Y-82918181D01*
X151318503Y-82896750D01*
X151318503Y-81565631D01*
X151425659Y-81544200D01*
X151590561Y-81581109D01*
G37*
G36*
X149880228Y-83619062D02*
G01*
X149225384Y-83619062D01*
X148630072Y-83619062D01*
X148133978Y-83619062D01*
X148133978Y-82218094D01*
X148630072Y-82218094D01*
X148639374Y-82430174D01*
X148667279Y-82613977D01*
X148713788Y-82769502D01*
X148778900Y-82896750D01*
X148862616Y-82995721D01*
X148964935Y-83066414D01*
X149085858Y-83108830D01*
X149225384Y-83122969D01*
X149367730Y-83113708D01*
X149502668Y-83085927D01*
X149630197Y-83039625D01*
X149630197Y-82063313D01*
X149075366Y-82063313D01*
X149075366Y-82265719D01*
X149375403Y-82265719D01*
X149375403Y-82889606D01*
X149232528Y-82918181D01*
X149087272Y-82877700D01*
X148980116Y-82756256D01*
X148931168Y-82624494D01*
X148901799Y-82445106D01*
X148892009Y-82218094D01*
X148902328Y-81996241D01*
X148933284Y-81822806D01*
X148984878Y-81697791D01*
X149103345Y-81584384D01*
X149273009Y-81546581D01*
X149418861Y-81560869D01*
X149570666Y-81603731D01*
X149570666Y-81389419D01*
X149464593Y-81360844D01*
X149880228Y-81360844D01*
X149880228Y-83099156D01*
X150142166Y-83099156D01*
X150142166Y-81837094D01*
X150146928Y-81837094D01*
X150518403Y-83099156D01*
X150785103Y-83099156D01*
X150785103Y-83075344D01*
X151051803Y-83075344D01*
X151230992Y-83111062D01*
X151425659Y-83122969D01*
X151623303Y-83102430D01*
X151778084Y-83040816D01*
X151895659Y-82928599D01*
X151981681Y-82756256D01*
X152020707Y-82605179D01*
X152044123Y-82421823D01*
X152051928Y-82206188D01*
X152042775Y-81983615D01*
X152015316Y-81796910D01*
X151969552Y-81646073D01*
X151905481Y-81531103D01*
X151787080Y-81423285D01*
X151627140Y-81358595D01*
X151425659Y-81337031D01*
X151238136Y-81348938D01*
X151051803Y-81384656D01*
X151051803Y-83075344D01*
X150785103Y-83075344D01*
X150785103Y-81360844D01*
X150535072Y-81360844D01*
X150535072Y-82622906D01*
X150527928Y-82622906D01*
X150156453Y-81360844D01*
X149880228Y-81360844D01*
X149464593Y-81360844D01*
X149424814Y-81350128D01*
X149273009Y-81337031D01*
X149076556Y-81360579D01*
X148915822Y-81431223D01*
X148790806Y-81548963D01*
X148720485Y-81670257D01*
X148670255Y-81822211D01*
X148640118Y-82004823D01*
X148630072Y-82218094D01*
X148133978Y-82218094D01*
X148133978Y-80840938D01*
X148630072Y-80840938D01*
X152051928Y-80840938D01*
X152548022Y-80840938D01*
X152548022Y-83619062D01*
X152051928Y-83619062D01*
X151425659Y-83619062D01*
X149880228Y-83619062D01*
G37*
X158500000Y-97293000D02*
X145900000Y-97293000D01*
X158500000Y-94293000D02*
X158500000Y-97293000D01*
X158500000Y-84693000D02*
X158500000Y-87693000D01*
X145900000Y-97293000D02*
X145900000Y-94293000D01*
X145900000Y-87693000D02*
X145900000Y-84693000D01*
X145900000Y-84693000D02*
X158500000Y-84693000D01*
G36*
X144995094Y-116881156D02*
G01*
X143368700Y-116881156D01*
X142954362Y-116881156D01*
X142458269Y-116881156D01*
X142458269Y-115123000D01*
X142954362Y-115123000D01*
X143363938Y-114894400D01*
X143368700Y-114896781D01*
X143368700Y-116385063D01*
X143635400Y-116385063D01*
X144137844Y-116385063D01*
X144995094Y-116385063D01*
X144995094Y-116177894D01*
X144414069Y-116177894D01*
X144414069Y-116173131D01*
X144553744Y-116006741D01*
X144672732Y-115850472D01*
X144771033Y-115704323D01*
X144848647Y-115568294D01*
X144923392Y-115398431D01*
X144968239Y-115238094D01*
X144983188Y-115087281D01*
X144956101Y-114886363D01*
X144874841Y-114740809D01*
X144742384Y-114652405D01*
X144707711Y-114646750D01*
X145214169Y-114646750D01*
X145599931Y-116385063D01*
X145909494Y-116385063D01*
X146297638Y-114646750D01*
X146033319Y-114646750D01*
X145761856Y-116146938D01*
X145759475Y-116146938D01*
X145488013Y-114646750D01*
X145214169Y-114646750D01*
X144707711Y-114646750D01*
X144561706Y-114622937D01*
X144410894Y-114636696D01*
X144269606Y-114677971D01*
X144137844Y-114746763D01*
X144137844Y-114970600D01*
X144271988Y-114892548D01*
X144395019Y-114845717D01*
X144506938Y-114830106D01*
X144662909Y-114894400D01*
X144701307Y-114977744D01*
X144714106Y-115099188D01*
X144702346Y-115229670D01*
X144667064Y-115368026D01*
X144608262Y-115514254D01*
X144525939Y-115668355D01*
X144420095Y-115830328D01*
X144290730Y-116000175D01*
X144137844Y-116177894D01*
X144137844Y-116385063D01*
X143635400Y-116385063D01*
X143635400Y-114646750D01*
X143371081Y-114646750D01*
X142954362Y-114889637D01*
X142954362Y-115123000D01*
X142458269Y-115123000D01*
X142458269Y-114126844D01*
X142954362Y-114126844D01*
X142954363Y-114126844D01*
X146297638Y-114126844D01*
X146793731Y-114126844D01*
X146793731Y-116881156D01*
X146297638Y-116881156D01*
X145909494Y-116881156D01*
X144995094Y-116881156D01*
G37*
G36*
X181689561Y-81581109D02*
G01*
X181803266Y-81691838D01*
X181852214Y-81814604D01*
X181881582Y-81986054D01*
X181891372Y-82206188D01*
X181881715Y-82449340D01*
X181852743Y-82635871D01*
X181804456Y-82765781D01*
X181691049Y-82880081D01*
X181524659Y-82918181D01*
X181417503Y-82896750D01*
X181417503Y-81565631D01*
X181524659Y-81544200D01*
X181689561Y-81581109D01*
G37*
G36*
X179979228Y-83619062D02*
G01*
X179324384Y-83619062D01*
X178729072Y-83619062D01*
X178232978Y-83619062D01*
X178232978Y-82218094D01*
X178729072Y-82218094D01*
X178738374Y-82430174D01*
X178766279Y-82613977D01*
X178812788Y-82769502D01*
X178877900Y-82896750D01*
X178961616Y-82995721D01*
X179063935Y-83066414D01*
X179184858Y-83108830D01*
X179324384Y-83122969D01*
X179466730Y-83113708D01*
X179601668Y-83085927D01*
X179729197Y-83039625D01*
X179729197Y-82063313D01*
X179174366Y-82063313D01*
X179174366Y-82265719D01*
X179474403Y-82265719D01*
X179474403Y-82889606D01*
X179331528Y-82918181D01*
X179186272Y-82877700D01*
X179079116Y-82756256D01*
X179030168Y-82624494D01*
X179000799Y-82445106D01*
X178991009Y-82218094D01*
X179001328Y-81996241D01*
X179032284Y-81822806D01*
X179083878Y-81697791D01*
X179202345Y-81584384D01*
X179372009Y-81546581D01*
X179517861Y-81560869D01*
X179669666Y-81603731D01*
X179669666Y-81389419D01*
X179563593Y-81360844D01*
X179979228Y-81360844D01*
X179979228Y-83099156D01*
X180241166Y-83099156D01*
X180241166Y-81837094D01*
X180245928Y-81837094D01*
X180617403Y-83099156D01*
X180884103Y-83099156D01*
X180884103Y-83075344D01*
X181150803Y-83075344D01*
X181329992Y-83111062D01*
X181524659Y-83122969D01*
X181722303Y-83102430D01*
X181877084Y-83040816D01*
X181994659Y-82928599D01*
X182080681Y-82756256D01*
X182119707Y-82605179D01*
X182143123Y-82421823D01*
X182150928Y-82206188D01*
X182141775Y-81983615D01*
X182114316Y-81796910D01*
X182068552Y-81646073D01*
X182004481Y-81531103D01*
X181886080Y-81423285D01*
X181726140Y-81358595D01*
X181524659Y-81337031D01*
X181337136Y-81348938D01*
X181150803Y-81384656D01*
X181150803Y-83075344D01*
X180884103Y-83075344D01*
X180884103Y-81360844D01*
X180634072Y-81360844D01*
X180634072Y-82622906D01*
X180626928Y-82622906D01*
X180255453Y-81360844D01*
X179979228Y-81360844D01*
X179563593Y-81360844D01*
X179523814Y-81350128D01*
X179372009Y-81337031D01*
X179175556Y-81360579D01*
X179014822Y-81431223D01*
X178889806Y-81548963D01*
X178819485Y-81670257D01*
X178769255Y-81822211D01*
X178739118Y-82004823D01*
X178729072Y-82218094D01*
X178232978Y-82218094D01*
X178232978Y-80840938D01*
X178729072Y-80840938D01*
X182150928Y-80840938D01*
X182647022Y-80840938D01*
X182647022Y-83619062D01*
X182150928Y-83619062D01*
X181524659Y-83619062D01*
X179979228Y-83619062D01*
G37*
X164768252Y-108794000D02*
X163345748Y-108794000D01*
X164768252Y-106974000D02*
X163345748Y-106974000D01*
D10*
X174506000Y-100315000D02*
X174456000Y-100315000D01*
X174506000Y-100315000D02*
X174506000Y-104465000D01*
X174456000Y-100315000D02*
X174456000Y-98915000D01*
X169356000Y-100315000D02*
X169501000Y-100315000D01*
X169356000Y-100315000D02*
X169356000Y-104465000D01*
X174506000Y-104465000D02*
X174361000Y-104465000D01*
X169356000Y-104465000D02*
X169501000Y-104465000D01*
G36*
X128143847Y-90944121D02*
G01*
X127482389Y-90944121D01*
X127482389Y-89958813D01*
X128143847Y-89958813D01*
X128143847Y-90282663D01*
X129391622Y-90282663D01*
X129759922Y-90282663D01*
X130150447Y-90282663D01*
X130150447Y-89111088D01*
X130240935Y-89101562D01*
X130328247Y-89098388D01*
X130521922Y-89190463D01*
X130557641Y-89311906D01*
X130569547Y-89492088D01*
X130569547Y-90282663D01*
X130960072Y-90282663D01*
X130960072Y-89441288D01*
X130952928Y-89295634D01*
X130931497Y-89163475D01*
X130834660Y-88947575D01*
X130648922Y-88807875D01*
X130516366Y-88770966D01*
X130353647Y-88758663D01*
X130179419Y-88765013D01*
X130018685Y-88784063D01*
X129877000Y-88810256D01*
X129759922Y-88838038D01*
X129759922Y-90282663D01*
X129391622Y-90282663D01*
X129391622Y-89958813D01*
X128966172Y-89958813D01*
X128966172Y-88641188D01*
X129391622Y-88641188D01*
X129391622Y-88317338D01*
X128143847Y-88317338D01*
X128143847Y-88641188D01*
X128572472Y-88641188D01*
X128572472Y-89958813D01*
X128143847Y-89958813D01*
X127482389Y-89958813D01*
X127482389Y-87655879D01*
X128143847Y-87655879D01*
X130960072Y-87655879D01*
X131621531Y-87655879D01*
X132717611Y-89300000D01*
X131621531Y-90944121D01*
X130960072Y-90944121D01*
X128143847Y-90944121D01*
G37*
D11*
X139762258Y-114522500D02*
X139287742Y-114522500D01*
X139762258Y-113477500D02*
X139287742Y-113477500D01*
X139762258Y-90622500D02*
X139287742Y-90622500D01*
X139762258Y-89577500D02*
X139287742Y-89577500D01*
G36*
X132666951Y-98966346D02*
G01*
X131069926Y-98966346D01*
X128987126Y-98966346D01*
X128152101Y-98966346D01*
X127490643Y-98966346D01*
X127490643Y-97631787D01*
X128152101Y-97631787D01*
X128650576Y-97631787D01*
X128650576Y-98184238D01*
X128987126Y-98184238D01*
X128987126Y-97631787D01*
X129485601Y-97631787D01*
X129485601Y-97311112D01*
X128987126Y-97311112D01*
X128987126Y-96758662D01*
X128650576Y-96758662D01*
X128650576Y-97311112D01*
X128152101Y-97311112D01*
X128152101Y-97631787D01*
X127490643Y-97631787D01*
X127490643Y-96749138D01*
X129765001Y-96749138D01*
X129892001Y-97072988D01*
X130085676Y-96995200D01*
X130288876Y-96882487D01*
X130288876Y-97981038D01*
X129876126Y-97981038D01*
X129876126Y-98304887D01*
X131069926Y-98304887D01*
X131069926Y-97981038D01*
X130679401Y-97981038D01*
X130679401Y-96555462D01*
X131336626Y-96555462D01*
X131530301Y-96828512D01*
X131730326Y-96679287D01*
X131924001Y-96634837D01*
X132108151Y-96699925D01*
X132181176Y-96885663D01*
X132122439Y-97053938D01*
X131973214Y-97225387D01*
X131879551Y-97316272D01*
X131779539Y-97411125D01*
X131679526Y-97511931D01*
X131585864Y-97620675D01*
X131503314Y-97738547D01*
X131436639Y-97866737D01*
X131392586Y-98006437D01*
X131377901Y-98158838D01*
X131376314Y-98225512D01*
X131384251Y-98304887D01*
X132666951Y-98304887D01*
X132666951Y-97981038D01*
X131822401Y-97981038D01*
X131855739Y-97876262D01*
X131936701Y-97763550D01*
X132038301Y-97655600D01*
X132133551Y-97565113D01*
X132295476Y-97406362D01*
X132438351Y-97234912D01*
X132539951Y-97052350D01*
X132578051Y-96857087D01*
X132527251Y-96611025D01*
X132390726Y-96434812D01*
X132211771Y-96339562D01*
X132828876Y-96339562D01*
X132865389Y-96517362D01*
X132917776Y-96739612D01*
X132959757Y-96905947D01*
X133005265Y-97078985D01*
X133054301Y-97258725D01*
X133106160Y-97441993D01*
X133160135Y-97625614D01*
X133216226Y-97809588D01*
X133299570Y-98071525D01*
X133378151Y-98304887D01*
X133781376Y-98304887D01*
X133842054Y-98135731D01*
X133901321Y-97962693D01*
X133959176Y-97785775D01*
X134014739Y-97607975D01*
X134067126Y-97432292D01*
X134116339Y-97258725D01*
X134183808Y-97005916D01*
X134243339Y-96765012D01*
X134294536Y-96541175D01*
X134337001Y-96339562D01*
X133927426Y-96339562D01*
X133898851Y-96504662D01*
X133863926Y-96695162D01*
X133824239Y-96901141D01*
X133781376Y-97112675D01*
X133735339Y-97325400D01*
X133686126Y-97534950D01*
X133635326Y-97731403D01*
X133584526Y-97904837D01*
X133533330Y-97729022D01*
X133481339Y-97531775D01*
X133430539Y-97322225D01*
X133382914Y-97109500D01*
X133338861Y-96898363D01*
X133298776Y-96693575D01*
X133265439Y-96504266D01*
X133241626Y-96339562D01*
X132828876Y-96339562D01*
X132211771Y-96339562D01*
X132193876Y-96330037D01*
X131962101Y-96295113D01*
X131796605Y-96310988D01*
X131630314Y-96358613D01*
X131473548Y-96439575D01*
X131336626Y-96555462D01*
X130679401Y-96555462D01*
X130679401Y-96339562D01*
X130412701Y-96339562D01*
X130276176Y-96463387D01*
X130107901Y-96577687D01*
X129930101Y-96676113D01*
X129765001Y-96749138D01*
X127490643Y-96749138D01*
X127490643Y-95633654D01*
X128152101Y-95633654D01*
X134337001Y-95633654D01*
X134998460Y-95633654D01*
X136109357Y-97300000D01*
X134998460Y-98966346D01*
X134337001Y-98966346D01*
X133378151Y-98966346D01*
X132666951Y-98966346D01*
G37*
X171914000Y-108756000D02*
X179314000Y-108756000D01*
X171914000Y-111056000D02*
X171914000Y-108756000D01*
X171914000Y-116156000D02*
X171914000Y-113856000D01*
X179314000Y-108756000D02*
X179314000Y-111056000D01*
X179314000Y-113856000D02*
X179314000Y-116156000D01*
X179314000Y-116156000D02*
X171914000Y-116156000D01*
G36*
X161496561Y-81581109D02*
G01*
X161610266Y-81691838D01*
X161659214Y-81814604D01*
X161688582Y-81986054D01*
X161698372Y-82206188D01*
X161688715Y-82449340D01*
X161659743Y-82635871D01*
X161611456Y-82765781D01*
X161498049Y-82880081D01*
X161331659Y-82918181D01*
X161224503Y-82896750D01*
X161224503Y-81565631D01*
X161331659Y-81544200D01*
X161496561Y-81581109D01*
G37*
G36*
X159786228Y-83619062D02*
G01*
X159131384Y-83619062D01*
X158536072Y-83619062D01*
X158039978Y-83619062D01*
X158039978Y-82218094D01*
X158536072Y-82218094D01*
X158545374Y-82430174D01*
X158573279Y-82613977D01*
X158619788Y-82769502D01*
X158684900Y-82896750D01*
X158768616Y-82995721D01*
X158870935Y-83066414D01*
X158991858Y-83108830D01*
X159131384Y-83122969D01*
X159273730Y-83113708D01*
X159408668Y-83085927D01*
X159536197Y-83039625D01*
X159536197Y-82063313D01*
X158981366Y-82063313D01*
X158981366Y-82265719D01*
X159281403Y-82265719D01*
X159281403Y-82889606D01*
X159138528Y-82918181D01*
X158993272Y-82877700D01*
X158886116Y-82756256D01*
X158837168Y-82624494D01*
X158807799Y-82445106D01*
X158798009Y-82218094D01*
X158808328Y-81996241D01*
X158839284Y-81822806D01*
X158890878Y-81697791D01*
X159009345Y-81584384D01*
X159179009Y-81546581D01*
X159324861Y-81560869D01*
X159476666Y-81603731D01*
X159476666Y-81389419D01*
X159370593Y-81360844D01*
X159786228Y-81360844D01*
X159786228Y-83099156D01*
X160048166Y-83099156D01*
X160048166Y-81837094D01*
X160052928Y-81837094D01*
X160424403Y-83099156D01*
X160691103Y-83099156D01*
X160691103Y-83075344D01*
X160957803Y-83075344D01*
X161136992Y-83111062D01*
X161331659Y-83122969D01*
X161529303Y-83102430D01*
X161684084Y-83040816D01*
X161801659Y-82928599D01*
X161887681Y-82756256D01*
X161926707Y-82605179D01*
X161950123Y-82421823D01*
X161957928Y-82206188D01*
X161948775Y-81983615D01*
X161921316Y-81796910D01*
X161875552Y-81646073D01*
X161811481Y-81531103D01*
X161693080Y-81423285D01*
X161533140Y-81358595D01*
X161331659Y-81337031D01*
X161144136Y-81348938D01*
X160957803Y-81384656D01*
X160957803Y-83075344D01*
X160691103Y-83075344D01*
X160691103Y-81360844D01*
X160441072Y-81360844D01*
X160441072Y-82622906D01*
X160433928Y-82622906D01*
X160062453Y-81360844D01*
X159786228Y-81360844D01*
X159370593Y-81360844D01*
X159330814Y-81350128D01*
X159179009Y-81337031D01*
X158982556Y-81360579D01*
X158821822Y-81431223D01*
X158696806Y-81548963D01*
X158626485Y-81670257D01*
X158576255Y-81822211D01*
X158546118Y-82004823D01*
X158536072Y-82218094D01*
X158039978Y-82218094D01*
X158039978Y-80840938D01*
X158536072Y-80840938D01*
X161957928Y-80840938D01*
X162454022Y-80840938D01*
X162454022Y-83619062D01*
X161957928Y-83619062D01*
X161331659Y-83619062D01*
X159786228Y-83619062D01*
G37*
X139762258Y-98622500D02*
X139287742Y-98622500D01*
X139762258Y-97577500D02*
X139287742Y-97577500D01*
G36*
X144618063Y-82799913D02*
G01*
X144513288Y-82820550D01*
X144397400Y-82783244D01*
X144356125Y-82677675D01*
X144369023Y-82605841D01*
X144407719Y-82555438D01*
X144474989Y-82525672D01*
X144573613Y-82515750D01*
X144618063Y-82515750D01*
X144618063Y-82799913D01*
G37*
G36*
X146156945Y-82232977D02*
G01*
X146204769Y-82280006D01*
X146231558Y-82370295D01*
X146240488Y-82515750D01*
X146231558Y-82661205D01*
X146204769Y-82751494D01*
X146156945Y-82798523D01*
X146084913Y-82814200D01*
X146012880Y-82798523D01*
X145965056Y-82751494D01*
X145938267Y-82661205D01*
X145929338Y-82515750D01*
X145938267Y-82370295D01*
X145965056Y-82280006D01*
X146012880Y-82232977D01*
X146084913Y-82217300D01*
X146156945Y-82232977D01*
G37*
G36*
X146084913Y-83275104D02*
G01*
X145584850Y-83275104D01*
X144513288Y-83275104D01*
X143805263Y-83275104D01*
X143341713Y-83275104D01*
X143010983Y-83275104D01*
X143010983Y-81769625D01*
X143341713Y-81769625D01*
X143598888Y-82928500D01*
X143805263Y-82928500D01*
X143861269Y-82677675D01*
X144187850Y-82677675D01*
X144209083Y-82790388D01*
X144272781Y-82874525D01*
X144337251Y-82913331D01*
X144417420Y-82936614D01*
X144513288Y-82944375D01*
X144609772Y-82938731D01*
X144702376Y-82921797D01*
X144791100Y-82893575D01*
X144791100Y-82401450D01*
X144784309Y-82290325D01*
X144763936Y-82206717D01*
X144729981Y-82150625D01*
X144640486Y-82103000D01*
X144494238Y-82087125D01*
X144408865Y-82092769D01*
X144319965Y-82109703D01*
X144227538Y-82137925D01*
X144227538Y-82274450D01*
X144319613Y-82242700D01*
X144405338Y-82223650D01*
X144484713Y-82217300D01*
X144593456Y-82246669D01*
X144618063Y-82369700D01*
X144618063Y-82396687D01*
X144573613Y-82396687D01*
X144455344Y-82404713D01*
X144358771Y-82428790D01*
X144283894Y-82468919D01*
X144211861Y-82557223D01*
X144187850Y-82677675D01*
X143861269Y-82677675D01*
X144035313Y-81898212D01*
X144981600Y-81898212D01*
X145194325Y-81898212D01*
X145194325Y-82928500D01*
X145584850Y-82928500D01*
X145584850Y-82799913D01*
X145372125Y-82799913D01*
X145372125Y-82515750D01*
X145751538Y-82515750D01*
X145760710Y-82652275D01*
X145788226Y-82761283D01*
X145834088Y-82842775D01*
X145898646Y-82899219D01*
X145982254Y-82933086D01*
X146084913Y-82944375D01*
X146187571Y-82933086D01*
X146198893Y-82928500D01*
X146577038Y-82928500D01*
X146751663Y-82928500D01*
X146751663Y-82252225D01*
X146859613Y-82217300D01*
X146977088Y-82249050D01*
X147008838Y-82364938D01*
X147008838Y-82928500D01*
X147180288Y-82928500D01*
X147180288Y-82372875D01*
X147163817Y-82231984D01*
X147114406Y-82145862D01*
X147056286Y-82113231D01*
X146969767Y-82093651D01*
X146854850Y-82087125D01*
X146752721Y-82094533D01*
X146660117Y-82116758D01*
X146577038Y-82153800D01*
X146577038Y-82928500D01*
X146198893Y-82928500D01*
X146271179Y-82899219D01*
X146335738Y-82842775D01*
X146381599Y-82761283D01*
X146409115Y-82652275D01*
X146418288Y-82515750D01*
X146409115Y-82379225D01*
X146381599Y-82270217D01*
X146335738Y-82188725D01*
X146271179Y-82132281D01*
X146187571Y-82098414D01*
X146084913Y-82087125D01*
X145982254Y-82098414D01*
X145898646Y-82132281D01*
X145834088Y-82188725D01*
X145788226Y-82270217D01*
X145760710Y-82379225D01*
X145751538Y-82515750D01*
X145372125Y-82515750D01*
X145372125Y-81769625D01*
X144981600Y-81769625D01*
X144981600Y-81898212D01*
X144035313Y-81898212D01*
X144064025Y-81769625D01*
X143887813Y-81769625D01*
X143706838Y-82769750D01*
X143705250Y-82769750D01*
X143524275Y-81769625D01*
X143341713Y-81769625D01*
X143010983Y-81769625D01*
X143010983Y-81438896D01*
X143341713Y-81438896D01*
X147180288Y-81438896D01*
X147511017Y-81438896D01*
X147511017Y-83275104D01*
X147180288Y-83275104D01*
X146084913Y-83275104D01*
G37*
G36*
X164077042Y-81568671D02*
G01*
X164166934Y-81624928D01*
X164220513Y-81721666D01*
X164238372Y-81861863D01*
X164219322Y-82008309D01*
X164162172Y-82104750D01*
X164059778Y-82158328D01*
X163904997Y-82176188D01*
X163812128Y-82176188D01*
X163812128Y-81568969D01*
X163950241Y-81549919D01*
X164077042Y-81568671D01*
G37*
G36*
X165281062Y-81571945D02*
G01*
X165370656Y-81638025D01*
X165423341Y-81753516D01*
X165440903Y-81923775D01*
X165423341Y-82106834D01*
X165370656Y-82227384D01*
X165281062Y-82294357D01*
X165152772Y-82316681D01*
X165014659Y-82300013D01*
X165014659Y-81568969D01*
X165152772Y-81549919D01*
X165281062Y-81571945D01*
G37*
G36*
X165014659Y-83600969D02*
G01*
X164545553Y-83600969D01*
X163545428Y-83600969D01*
X163049334Y-83600969D01*
X163049334Y-83104875D01*
X163545428Y-83104875D01*
X163812128Y-83104875D01*
X163812128Y-82383356D01*
X163904997Y-82383356D01*
X164049063Y-82429791D01*
X164094604Y-82496763D01*
X164133597Y-82604813D01*
X164271709Y-83104875D01*
X164545553Y-83104875D01*
X164747959Y-83104875D01*
X165014659Y-83104875D01*
X165014659Y-82509563D01*
X165152772Y-82521469D01*
X165322502Y-82505594D01*
X165460218Y-82457969D01*
X165565919Y-82378594D01*
X165640664Y-82264558D01*
X165685510Y-82112952D01*
X165689733Y-82059506D01*
X166017166Y-82059506D01*
X166333872Y-82059506D01*
X166333872Y-83104875D01*
X166600572Y-83104875D01*
X166600572Y-81866625D01*
X166286247Y-81866625D01*
X166017166Y-81866625D01*
X166017166Y-82059506D01*
X165689733Y-82059506D01*
X165700459Y-81923775D01*
X165685907Y-81737905D01*
X165642251Y-81589871D01*
X165569491Y-81479672D01*
X165464980Y-81403604D01*
X165326074Y-81357964D01*
X165152772Y-81342750D01*
X165015718Y-81348042D01*
X164880780Y-81363917D01*
X164747959Y-81390375D01*
X164747959Y-83104875D01*
X164545553Y-83104875D01*
X164397916Y-82619100D01*
X164321716Y-82432172D01*
X164231228Y-82314300D01*
X164231228Y-82309538D01*
X164347909Y-82241374D01*
X164431253Y-82144041D01*
X164481259Y-82017537D01*
X164497928Y-81861863D01*
X164483244Y-81698482D01*
X164439191Y-81567117D01*
X164365769Y-81467766D01*
X164260861Y-81398312D01*
X164122352Y-81356641D01*
X163950241Y-81342750D01*
X163813186Y-81348042D01*
X163678249Y-81363917D01*
X163545428Y-81390375D01*
X163545428Y-83104875D01*
X163049334Y-83104875D01*
X163049334Y-81295125D01*
X166286247Y-81295125D01*
X166286247Y-81592781D01*
X166600572Y-81592781D01*
X166600572Y-81295125D01*
X166286247Y-81295125D01*
X163049334Y-81295125D01*
X163049334Y-80799031D01*
X163545428Y-80799031D01*
X166600572Y-80799031D01*
X167096666Y-80799031D01*
X167096666Y-83600969D01*
X166600572Y-83600969D01*
X165014659Y-83600969D01*
G37*
X198033000Y-71601000D02*
X198033000Y-70961000D01*
X198033000Y-70961000D02*
X197633000Y-70961000D01*
X197793000Y-80321000D02*
X197793000Y-71201000D01*
X197793000Y-80321000D02*
X137673000Y-80321000D01*
X197793000Y-72761000D02*
X137673000Y-72761000D01*
X197793000Y-71661000D02*
X137673000Y-71661000D01*
X197793000Y-71201000D02*
X137673000Y-71201000D01*
X196781000Y-74980000D02*
X196887000Y-74873000D01*
X196515000Y-74714000D02*
X196621000Y-74607000D01*
X193845000Y-77915000D02*
X193952000Y-77808000D01*
X193579000Y-77649000D02*
X193686000Y-77542000D01*
X191491000Y-75269000D02*
X191886000Y-74873000D01*
X191240000Y-74987000D02*
X191620000Y-74607000D01*
X188845000Y-77915000D02*
X189225000Y-77535000D01*
X188579000Y-77649000D02*
X188974000Y-77253000D01*
X186491000Y-75269000D02*
X186886000Y-74873000D01*
X186240000Y-74987000D02*
X186620000Y-74607000D01*
X183845000Y-77915000D02*
X184225000Y-77535000D01*
X183579000Y-77649000D02*
X183974000Y-77253000D01*
X181491000Y-75269000D02*
X181886000Y-74873000D01*
X181240000Y-74987000D02*
X181620000Y-74607000D01*
X178845000Y-77915000D02*
X179225000Y-77535000D01*
X178579000Y-77649000D02*
X178974000Y-77253000D01*
X176491000Y-75269000D02*
X176886000Y-74873000D01*
X176240000Y-74987000D02*
X176620000Y-74607000D01*
X173845000Y-77915000D02*
X174225000Y-77535000D01*
X173579000Y-77649000D02*
X173974000Y-77253000D01*
X171491000Y-75269000D02*
X171886000Y-74873000D01*
X171240000Y-74987000D02*
X171620000Y-74607000D01*
X168845000Y-77915000D02*
X169225000Y-77535000D01*
X168579000Y-77649000D02*
X168974000Y-77253000D01*
X166491000Y-75269000D02*
X166886000Y-74873000D01*
X166240000Y-74987000D02*
X166620000Y-74607000D01*
X163845000Y-77915000D02*
X164225000Y-77535000D01*
X163579000Y-77649000D02*
X163974000Y-77253000D01*
X161491000Y-75269000D02*
X161886000Y-74873000D01*
X161240000Y-74987000D02*
X161620000Y-74607000D01*
X158845000Y-77915000D02*
X159225000Y-77535000D01*
X158579000Y-77649000D02*
X158974000Y-77253000D01*
X156491000Y-75269000D02*
X156886000Y-74873000D01*
X156240000Y-74987000D02*
X156620000Y-74607000D01*
X153845000Y-77915000D02*
X154225000Y-77535000D01*
X153579000Y-77649000D02*
X153974000Y-77253000D01*
X151491000Y-75269000D02*
X151886000Y-74873000D01*
X151240000Y-74987000D02*
X151620000Y-74607000D01*
X148845000Y-77915000D02*
X149225000Y-77535000D01*
X148579000Y-77649000D02*
X148974000Y-77253000D01*
X146491000Y-75269000D02*
X146886000Y-74873000D01*
X146240000Y-74987000D02*
X146620000Y-74607000D01*
X143845000Y-77915000D02*
X144225000Y-77535000D01*
X143579000Y-77649000D02*
X143974000Y-77253000D01*
X141491000Y-75269000D02*
X141886000Y-74873000D01*
X141240000Y-74987000D02*
X141620000Y-74607000D01*
X138845000Y-77915000D02*
X139225000Y-77535000D01*
X138579000Y-77649000D02*
X138974000Y-77253000D01*
X137673000Y-80321000D02*
X137673000Y-71201000D01*
X197413000Y-76261000D02*
G75*
G03*
X197413000Y-76261000I-2180000J0D01*
G01*
X192413000Y-76261000D02*
G75*
G03*
X192413000Y-76261000I-2180000J0D01*
G01*
X187413000Y-76261000D02*
G75*
G03*
X187413000Y-76261000I-2180000J0D01*
G01*
X182413000Y-76261000D02*
G75*
G03*
X182413000Y-76261000I-2180000J0D01*
G01*
X177413000Y-76261000D02*
G75*
G03*
X177413000Y-76261000I-2180000J0D01*
G01*
X172413000Y-76261000D02*
G75*
G03*
X172413000Y-76261000I-2180000J0D01*
G01*
X167413000Y-76261000D02*
G75*
G03*
X167413000Y-76261000I-2180000J0D01*
G01*
X162413000Y-76261000D02*
G75*
G03*
X162413000Y-76261000I-2180000J0D01*
G01*
X157413000Y-76261000D02*
G75*
G03*
X157413000Y-76261000I-2180000J0D01*
G01*
X152413000Y-76261000D02*
G75*
G03*
X152413000Y-76261000I-2180000J0D01*
G01*
X147413000Y-76261000D02*
G75*
G03*
X147413000Y-76261000I-2180000J0D01*
G01*
X142413000Y-76261000D02*
G75*
G03*
X142413000Y-76261000I-2180000J0D01*
G01*
D10*
X155478000Y-100325000D02*
X155428000Y-100325000D01*
X155478000Y-100325000D02*
X155478000Y-104475000D01*
X155428000Y-100325000D02*
X155428000Y-98925000D01*
X150328000Y-100325000D02*
X150473000Y-100325000D01*
X150328000Y-100325000D02*
X150328000Y-104475000D01*
X155478000Y-104475000D02*
X155333000Y-104475000D01*
X150328000Y-104475000D02*
X150473000Y-104475000D01*
G36*
X205649401Y-78931969D02*
G01*
X205734828Y-78989119D01*
X205783941Y-79086750D01*
X205800313Y-79227244D01*
X205800313Y-79296300D01*
X205297869Y-79296300D01*
X205278819Y-79177237D01*
X205306071Y-79030394D01*
X205387827Y-78942287D01*
X205524088Y-78912919D01*
X205649401Y-78931969D01*
G37*
G36*
X205838115Y-83650118D02*
G01*
X205958666Y-83702803D01*
X206025638Y-83792398D01*
X206047963Y-83920687D01*
X206031294Y-84058800D01*
X205300250Y-84058800D01*
X205281200Y-83920687D01*
X205303227Y-83792398D01*
X205369306Y-83702803D01*
X205484797Y-83650118D01*
X205655056Y-83632556D01*
X205838115Y-83650118D01*
G37*
G36*
X206477480Y-78888213D02*
G01*
X206577791Y-78942684D01*
X206635834Y-79034065D01*
X206655181Y-79162950D01*
X206636131Y-79296300D01*
X206002719Y-79296300D01*
X206002719Y-79196287D01*
X206022364Y-79049841D01*
X206081300Y-78948637D01*
X206183098Y-78889702D01*
X206331331Y-78870056D01*
X206477480Y-78888213D01*
G37*
G36*
X206435213Y-82467232D02*
G01*
X206570647Y-82507416D01*
X206641191Y-82579151D01*
X206664706Y-82687200D01*
X206641191Y-82795249D01*
X206570647Y-82866984D01*
X206435213Y-82907168D01*
X206217031Y-82920562D01*
X205998849Y-82907168D01*
X205863416Y-82866984D01*
X205792871Y-82795249D01*
X205769356Y-82687200D01*
X205792871Y-82579151D01*
X205863416Y-82507416D01*
X205998849Y-82467232D01*
X206217031Y-82453837D01*
X206435213Y-82467232D01*
G37*
G36*
X207356062Y-79162950D02*
G01*
X207356062Y-81056044D01*
X207356062Y-82687200D01*
X207356062Y-84058800D01*
X207356062Y-84325500D01*
X207356062Y-84821594D01*
X204577938Y-84821594D01*
X204577938Y-84325500D01*
X204577938Y-83920687D01*
X205074031Y-83920687D01*
X205079323Y-84057742D01*
X205095198Y-84192679D01*
X205121656Y-84325500D01*
X206836156Y-84325500D01*
X206836156Y-84058800D01*
X206240844Y-84058800D01*
X206252750Y-83920687D01*
X206236875Y-83750957D01*
X206189250Y-83613242D01*
X206109875Y-83507541D01*
X205995840Y-83432796D01*
X205844233Y-83387949D01*
X205655056Y-83373000D01*
X205469186Y-83387552D01*
X205321152Y-83431208D01*
X205210953Y-83503969D01*
X205134885Y-83608479D01*
X205089245Y-83747385D01*
X205074031Y-83920687D01*
X204577938Y-83920687D01*
X204577938Y-82687200D01*
X205574094Y-82687200D01*
X205591027Y-82841187D01*
X205641827Y-82966600D01*
X205726494Y-83063437D01*
X205848731Y-83132229D01*
X206012244Y-83173504D01*
X206217031Y-83187262D01*
X206421819Y-83173504D01*
X206585331Y-83132229D01*
X206707569Y-83063437D01*
X206792235Y-82966600D01*
X206843035Y-82841187D01*
X206859969Y-82687200D01*
X206843035Y-82533212D01*
X206792235Y-82407800D01*
X206707569Y-82310962D01*
X206585331Y-82242171D01*
X206421819Y-82200896D01*
X206217031Y-82187137D01*
X206012244Y-82200896D01*
X205848731Y-82242171D01*
X205726494Y-82310962D01*
X205641827Y-82407800D01*
X205591027Y-82533212D01*
X205574094Y-82687200D01*
X204577938Y-82687200D01*
X204577938Y-81960919D01*
X205097844Y-81960919D01*
X205290725Y-81960919D01*
X205290725Y-81641831D01*
X206836156Y-81641831D01*
X206836156Y-81056044D01*
X206643275Y-81056044D01*
X206643275Y-81375131D01*
X205097844Y-81375131D01*
X205097844Y-81960919D01*
X204577938Y-81960919D01*
X204577938Y-79177237D01*
X205074031Y-79177237D01*
X205085938Y-79373691D01*
X205121656Y-79563000D01*
X206812344Y-79563000D01*
X206838802Y-79431767D01*
X206854677Y-79298417D01*
X206859969Y-79162950D01*
X206845417Y-78994146D01*
X206801760Y-78856033D01*
X206729000Y-78748612D01*
X206627135Y-78671883D01*
X206496167Y-78625846D01*
X206336094Y-78610500D01*
X206176550Y-78633420D01*
X206040819Y-78702178D01*
X205941402Y-78805465D01*
X205890800Y-78931969D01*
X205888419Y-78931969D01*
X205839603Y-78820348D01*
X205755069Y-78733134D01*
X205641959Y-78676877D01*
X205507419Y-78658125D01*
X205351399Y-78678889D01*
X205230051Y-78741183D01*
X205143373Y-78845005D01*
X205091367Y-78990357D01*
X205074031Y-79177237D01*
X204577938Y-79177237D01*
X204577938Y-78610500D01*
X204577938Y-78114406D01*
X207356062Y-78114406D01*
X207356062Y-78610500D01*
X207356062Y-79162950D01*
G37*
G36*
X185414828Y-82894369D02*
G01*
X185257666Y-82925325D01*
X185083834Y-82869366D01*
X185021922Y-82711012D01*
X185041270Y-82603261D01*
X185099312Y-82527656D01*
X185200218Y-82483008D01*
X185348153Y-82468125D01*
X185414828Y-82468125D01*
X185414828Y-82894369D01*
G37*
G36*
X185257666Y-83607156D02*
G01*
X183921784Y-83607156D01*
X183655084Y-83607156D01*
X183158991Y-83607156D01*
X183158991Y-83087250D01*
X183655084Y-83087250D01*
X183921784Y-83087250D01*
X183921784Y-82711012D01*
X184769509Y-82711012D01*
X184801359Y-82880081D01*
X184896906Y-83006288D01*
X184993611Y-83064496D01*
X185113865Y-83099421D01*
X185257666Y-83111062D01*
X185402393Y-83102596D01*
X185486316Y-83087250D01*
X185972041Y-83087250D01*
X186233978Y-83087250D01*
X186233978Y-82072838D01*
X186395903Y-82020450D01*
X186572116Y-82068075D01*
X186619741Y-82241906D01*
X186619741Y-83087250D01*
X186876916Y-83087250D01*
X186876916Y-82253813D01*
X186852210Y-82042477D01*
X186778094Y-81913294D01*
X186690914Y-81864346D01*
X186561135Y-81834977D01*
X186388759Y-81825188D01*
X186235566Y-81836300D01*
X186096659Y-81869637D01*
X185972041Y-81925200D01*
X185972041Y-83087250D01*
X185486316Y-83087250D01*
X185541299Y-83077196D01*
X185674384Y-83034863D01*
X185674384Y-82296675D01*
X185664198Y-82129987D01*
X185633639Y-82004575D01*
X185582706Y-81920438D01*
X185448463Y-81849000D01*
X185229091Y-81825188D01*
X185101032Y-81833654D01*
X184967682Y-81859054D01*
X184829041Y-81901388D01*
X184829041Y-82106175D01*
X184967153Y-82058550D01*
X185095741Y-82029975D01*
X185214803Y-82020450D01*
X185377919Y-82064503D01*
X185414828Y-82249050D01*
X185414828Y-82289531D01*
X185348153Y-82289531D01*
X185170750Y-82301570D01*
X185025891Y-82337685D01*
X184913575Y-82397878D01*
X184805526Y-82530335D01*
X184769509Y-82711012D01*
X183921784Y-82711012D01*
X183921784Y-82253813D01*
X184440897Y-82253813D01*
X184440897Y-82051406D01*
X183921784Y-82051406D01*
X183921784Y-81556106D01*
X184464709Y-81556106D01*
X184464709Y-81348938D01*
X183655084Y-81348938D01*
X183655084Y-83087250D01*
X183158991Y-83087250D01*
X183158991Y-80852844D01*
X183655084Y-80852844D01*
X186876916Y-80852844D01*
X187373009Y-80852844D01*
X187373009Y-83607156D01*
X186876916Y-83607156D01*
X185257666Y-83607156D01*
G37*
G36*
X130248231Y-114964758D02*
G01*
X128981406Y-114964758D01*
X128146381Y-114964758D01*
X127484922Y-114964758D01*
X127484922Y-114201700D01*
X129718006Y-114201700D01*
X129808493Y-114236625D01*
X129940256Y-114269963D01*
X130092656Y-114293775D01*
X130248231Y-114303300D01*
X130429999Y-114291394D01*
X130587956Y-114255675D01*
X130722099Y-114198525D01*
X130832431Y-114122325D01*
X130978481Y-113920713D01*
X131026106Y-113668300D01*
X131004586Y-113484150D01*
X130940028Y-113329633D01*
X130832431Y-113204750D01*
X130681089Y-113110206D01*
X130485297Y-113046706D01*
X130245056Y-113014250D01*
X130260931Y-112833275D01*
X130276806Y-112620550D01*
X130953081Y-112620550D01*
X130953081Y-112296700D01*
X131235656Y-112296700D01*
X131272168Y-112474500D01*
X131324556Y-112696750D01*
X131366536Y-112863085D01*
X131412044Y-113036122D01*
X131461081Y-113215863D01*
X131512939Y-113399131D01*
X131566914Y-113582751D01*
X131623006Y-113766725D01*
X131706349Y-114028663D01*
X131784931Y-114262025D01*
X132188156Y-114262025D01*
X132248833Y-114092868D01*
X132308100Y-113919831D01*
X132365956Y-113742913D01*
X132421518Y-113565113D01*
X132473906Y-113389429D01*
X132523118Y-113215863D01*
X132590587Y-112963053D01*
X132650118Y-112722150D01*
X132701315Y-112498313D01*
X132743781Y-112296700D01*
X132334206Y-112296700D01*
X132305631Y-112461800D01*
X132270706Y-112652300D01*
X132231018Y-112858278D01*
X132188156Y-113069813D01*
X132142118Y-113282538D01*
X132092906Y-113492088D01*
X132042106Y-113688541D01*
X131991306Y-113861975D01*
X131940109Y-113686159D01*
X131888118Y-113488913D01*
X131837318Y-113279363D01*
X131789693Y-113066638D01*
X131745640Y-112855500D01*
X131705556Y-112650713D01*
X131672218Y-112461403D01*
X131648406Y-112296700D01*
X131235656Y-112296700D01*
X130953081Y-112296700D01*
X129949781Y-112296700D01*
X129937874Y-112539191D01*
X129921206Y-112790413D01*
X129898981Y-113048778D01*
X129870406Y-113312700D01*
X130088687Y-113319447D01*
X130260931Y-113339688D01*
X130491118Y-113415888D01*
X130599068Y-113533363D01*
X130626056Y-113684175D01*
X130610181Y-113788950D01*
X130551443Y-113879438D01*
X130433968Y-113944525D01*
X130245056Y-113969925D01*
X130096624Y-113962781D01*
X129975181Y-113941350D01*
X129797381Y-113877850D01*
X129718006Y-114201700D01*
X127484922Y-114201700D01*
X127484922Y-113588925D01*
X128146381Y-113588925D01*
X128644856Y-113588925D01*
X128644856Y-114141375D01*
X128981406Y-114141375D01*
X128981406Y-113588925D01*
X129479881Y-113588925D01*
X129479881Y-113268250D01*
X128981406Y-113268250D01*
X128981406Y-112715800D01*
X128644856Y-112715800D01*
X128644856Y-113268250D01*
X128146381Y-113268250D01*
X128146381Y-113588925D01*
X127484922Y-113588925D01*
X127484922Y-111635242D01*
X128146381Y-111635242D01*
X132743781Y-111635242D01*
X133405239Y-111635242D01*
X134515078Y-113300000D01*
X133405239Y-114964758D01*
X132743781Y-114964758D01*
X131784931Y-114964758D01*
X130248231Y-114964758D01*
G37*
G36*
X176489506Y-83171917D02*
G01*
X175737031Y-83171917D01*
X174975031Y-83171917D01*
X174308281Y-83171917D01*
X173220844Y-83171917D01*
X172943031Y-83171917D01*
X172612302Y-83171917D01*
X172612302Y-81952188D01*
X172943031Y-81952188D01*
X172959502Y-82064900D01*
X173008912Y-82158563D01*
X173063505Y-82213596D01*
X173139440Y-82266513D01*
X173236719Y-82317313D01*
X173304783Y-82358191D01*
X173350225Y-82404625D01*
X173375823Y-82460981D01*
X173384356Y-82531625D01*
X173373244Y-82605642D01*
X173339906Y-82659419D01*
X173286725Y-82692161D01*
X173216081Y-82703075D01*
X173123124Y-82691610D01*
X173034753Y-82657214D01*
X172950969Y-82599888D01*
X172950969Y-82764988D01*
X173032460Y-82807321D01*
X173122419Y-82832721D01*
X173220844Y-82841188D01*
X173343716Y-82828488D01*
X173439284Y-82790387D01*
X173507546Y-82726888D01*
X173548504Y-82637988D01*
X173562156Y-82523688D01*
X173545091Y-82401053D01*
X173493894Y-82303025D01*
X173435862Y-82246404D01*
X173352783Y-82190842D01*
X173244656Y-82136338D01*
X173174101Y-82088889D01*
X173131767Y-82024860D01*
X173127382Y-81999813D01*
X173665344Y-81999813D01*
X173768531Y-82825313D01*
X173932044Y-82825313D01*
X174027294Y-82176025D01*
X174030469Y-82176025D01*
X174114606Y-82825313D01*
X174308281Y-82825313D01*
X174395396Y-82128400D01*
X174586094Y-82128400D01*
X174797231Y-82128400D01*
X174797231Y-82825313D01*
X174975031Y-82825313D01*
X174975031Y-82160150D01*
X175316344Y-82160150D01*
X175479856Y-82160150D01*
X175479856Y-82587188D01*
X175493945Y-82710219D01*
X175536212Y-82787213D01*
X175614595Y-82827694D01*
X175737031Y-82841188D01*
X175824741Y-82836425D01*
X175903719Y-82822138D01*
X175903719Y-82677675D01*
X175835853Y-82695534D01*
X175768781Y-82701488D01*
X175673531Y-82675294D01*
X175652894Y-82555438D01*
X175652894Y-82412563D01*
X176113269Y-82412563D01*
X176124205Y-82542738D01*
X176157013Y-82649629D01*
X176211694Y-82733238D01*
X176286306Y-82793210D01*
X176378910Y-82829193D01*
X176489506Y-82841188D01*
X176589122Y-82831266D01*
X176608251Y-82825313D01*
X176919719Y-82825313D01*
X177094344Y-82825313D01*
X177094344Y-82177613D01*
X177159034Y-82129988D01*
X177232456Y-82114113D01*
X177329294Y-82153800D01*
X177348344Y-82214522D01*
X177354694Y-82317313D01*
X177353106Y-82825313D01*
X177522969Y-82825313D01*
X177522969Y-82272863D01*
X177508284Y-82140505D01*
X177464231Y-82051406D01*
X177388031Y-82000805D01*
X177276906Y-81983938D01*
X177183641Y-81995844D01*
X177094344Y-82031563D01*
X177094344Y-81634688D01*
X176919719Y-81634688D01*
X176919719Y-82825313D01*
X176608251Y-82825313D01*
X176684769Y-82801500D01*
X176684769Y-82671325D01*
X176595869Y-82705853D01*
X176510144Y-82717363D01*
X176419259Y-82698313D01*
X176349806Y-82641163D01*
X176305753Y-82545913D01*
X176291069Y-82412563D01*
X176303769Y-82282983D01*
X176341869Y-82189519D01*
X176402591Y-82132964D01*
X176483156Y-82114113D01*
X176526019Y-82118875D01*
X176526019Y-82301438D01*
X176692706Y-82301438D01*
X176692706Y-82015688D01*
X176595075Y-81991875D01*
X176486331Y-81983938D01*
X176387355Y-81992685D01*
X176303607Y-82018927D01*
X176235085Y-82062665D01*
X176181790Y-82123897D01*
X176143723Y-82202624D01*
X176120882Y-82298846D01*
X176113269Y-82412563D01*
X175652894Y-82412563D01*
X175652894Y-82160150D01*
X175919594Y-82160150D01*
X175919594Y-82031563D01*
X175652894Y-82031563D01*
X175652894Y-81729938D01*
X175479856Y-81729938D01*
X175479856Y-82031563D01*
X175316344Y-82031563D01*
X175316344Y-82160150D01*
X174975031Y-82160150D01*
X174975031Y-81999813D01*
X174765481Y-81999813D01*
X174586094Y-81999813D01*
X174586094Y-82128400D01*
X174395396Y-82128400D01*
X174411469Y-81999813D01*
X174267006Y-81999813D01*
X174209856Y-82682438D01*
X174205094Y-82682438D01*
X174114606Y-81999813D01*
X173979669Y-81999813D01*
X173882831Y-82626875D01*
X173879656Y-82626875D01*
X173828856Y-81999813D01*
X173665344Y-81999813D01*
X173127382Y-81999813D01*
X173117656Y-81944250D01*
X173128769Y-81879163D01*
X173162106Y-81829950D01*
X173214891Y-81798994D01*
X173284344Y-81788675D01*
X173407772Y-81805741D01*
X173530406Y-81856938D01*
X173530406Y-81698188D01*
X173445034Y-81671729D01*
X173356134Y-81655854D01*
X173263706Y-81650563D01*
X173168897Y-81659382D01*
X173089787Y-81685840D01*
X173026375Y-81729938D01*
X172963867Y-81825188D01*
X172943031Y-81952188D01*
X172612302Y-81952188D01*
X172612302Y-81618812D01*
X174765481Y-81618812D01*
X174765481Y-81817250D01*
X174975031Y-81817250D01*
X174975031Y-81618812D01*
X174765481Y-81618812D01*
X172612302Y-81618812D01*
X172612302Y-81288083D01*
X172943031Y-81288083D01*
X177522969Y-81288083D01*
X177853698Y-81288083D01*
X177853698Y-83171917D01*
X177522969Y-83171917D01*
X176489506Y-83171917D01*
G37*
G36*
X202358613Y-115804831D02*
G01*
X201541844Y-115642906D01*
X201541844Y-115640525D01*
X202358613Y-115478600D01*
X202358613Y-115804831D01*
G37*
G36*
X202595993Y-113049576D02*
G01*
X202736636Y-113091992D01*
X202821021Y-113162686D01*
X202849150Y-113261656D01*
X202794381Y-113440250D01*
X201977613Y-113440250D01*
X201951419Y-113285469D01*
X201976720Y-113173848D01*
X202052622Y-113096159D01*
X202189841Y-113050618D01*
X202399094Y-113035438D01*
X202595993Y-113049576D01*
G37*
G36*
X204038188Y-113440250D02*
G01*
X204038188Y-113897450D01*
X204038188Y-116202500D01*
X204038188Y-116698594D01*
X200783813Y-116698594D01*
X200783813Y-116202500D01*
X200783813Y-115792925D01*
X201279906Y-115792925D01*
X203018219Y-116202500D01*
X203018219Y-115935800D01*
X202561019Y-115845313D01*
X202561019Y-115438119D01*
X203018219Y-115347631D01*
X203018219Y-115071406D01*
X201279906Y-115483362D01*
X201279906Y-115792925D01*
X200783813Y-115792925D01*
X200783813Y-114657069D01*
X201756156Y-114657069D01*
X201778778Y-114835067D01*
X201846644Y-114992825D01*
X203018219Y-114992825D01*
X203018219Y-114742794D01*
X201984756Y-114742794D01*
X201951419Y-114647544D01*
X201976422Y-114578488D01*
X202065719Y-114559438D01*
X203018219Y-114559438D01*
X203018219Y-114321313D01*
X201984756Y-114321313D01*
X201951419Y-114223681D01*
X201975231Y-114157006D01*
X202065719Y-114137956D01*
X203018219Y-114137956D01*
X203018219Y-113897450D01*
X202089531Y-113897450D01*
X201924332Y-113913821D01*
X201824022Y-113962934D01*
X201773123Y-114057291D01*
X201756156Y-114209394D01*
X201771039Y-114333814D01*
X201815688Y-114445138D01*
X201771039Y-114536220D01*
X201756156Y-114657069D01*
X200783813Y-114657069D01*
X200783813Y-113297375D01*
X201756156Y-113297375D01*
X201764623Y-113439721D01*
X201790023Y-113574658D01*
X201832356Y-113702188D01*
X203542094Y-113702188D01*
X203542094Y-113440250D01*
X202994406Y-113440250D01*
X203030125Y-113339047D01*
X203042031Y-113230700D01*
X203024172Y-113091000D01*
X202970594Y-112976700D01*
X202881297Y-112887800D01*
X202756281Y-112824300D01*
X202595547Y-112786200D01*
X202399094Y-112773500D01*
X202190734Y-112787391D01*
X202026031Y-112829062D01*
X201904984Y-112898516D01*
X201822302Y-112998396D01*
X201772693Y-113131349D01*
X201756156Y-113297375D01*
X200783813Y-113297375D01*
X200783813Y-112773500D01*
X200783813Y-112277406D01*
X204038188Y-112277406D01*
X204038188Y-112773500D01*
X204038188Y-113440250D01*
G37*
G36*
X202376340Y-108220285D02*
G01*
X202562871Y-108249257D01*
X202692781Y-108297544D01*
X202807081Y-108410951D01*
X202845181Y-108577341D01*
X202823750Y-108684497D01*
X201492631Y-108684497D01*
X201471200Y-108577341D01*
X201508109Y-108412439D01*
X201618838Y-108298734D01*
X201741604Y-108249786D01*
X201913054Y-108220418D01*
X202133188Y-108210628D01*
X202376340Y-108220285D01*
G37*
G36*
X203546062Y-108577341D02*
G01*
X203546062Y-110122772D01*
X203546062Y-110777616D01*
X203546062Y-111372928D01*
X203546062Y-111869022D01*
X200767938Y-111869022D01*
X200767938Y-111372928D01*
X200767938Y-110729991D01*
X201264031Y-110729991D01*
X201287579Y-110926444D01*
X201358223Y-111087178D01*
X201475963Y-111212194D01*
X201597257Y-111282515D01*
X201749211Y-111332745D01*
X201931823Y-111362882D01*
X202145094Y-111372928D01*
X202357174Y-111363626D01*
X202540977Y-111335721D01*
X202696502Y-111289212D01*
X202823750Y-111224100D01*
X202922721Y-111140384D01*
X202993414Y-111038065D01*
X203035830Y-110917142D01*
X203049969Y-110777616D01*
X203040708Y-110635270D01*
X203012927Y-110500332D01*
X202966625Y-110372803D01*
X201990313Y-110372803D01*
X201990313Y-110927634D01*
X202192719Y-110927634D01*
X202192719Y-110627597D01*
X202816606Y-110627597D01*
X202845181Y-110770472D01*
X202804700Y-110915728D01*
X202683256Y-111022884D01*
X202551494Y-111071832D01*
X202372106Y-111101201D01*
X202145094Y-111110991D01*
X201923241Y-111100672D01*
X201749806Y-111069716D01*
X201624791Y-111018122D01*
X201511384Y-110899655D01*
X201473581Y-110729991D01*
X201487869Y-110584139D01*
X201530731Y-110432334D01*
X201316419Y-110432334D01*
X201277128Y-110578186D01*
X201264031Y-110729991D01*
X200767938Y-110729991D01*
X200767938Y-110122772D01*
X201287844Y-110122772D01*
X203026156Y-110122772D01*
X203026156Y-109860834D01*
X201764094Y-109860834D01*
X201764094Y-109856072D01*
X203026156Y-109484597D01*
X203026156Y-109217897D01*
X201287844Y-109217897D01*
X201287844Y-109467928D01*
X202549906Y-109467928D01*
X202549906Y-109475072D01*
X201287844Y-109846547D01*
X201287844Y-110122772D01*
X200767938Y-110122772D01*
X200767938Y-108577341D01*
X201264031Y-108577341D01*
X201275938Y-108764864D01*
X201311656Y-108951197D01*
X203002344Y-108951197D01*
X203038062Y-108772008D01*
X203049969Y-108577341D01*
X203029430Y-108379697D01*
X202967816Y-108224916D01*
X202855599Y-108107341D01*
X202683256Y-108021319D01*
X202532179Y-107982293D01*
X202348823Y-107958877D01*
X202133188Y-107951072D01*
X201910615Y-107960225D01*
X201723910Y-107987684D01*
X201573073Y-108033448D01*
X201458103Y-108097519D01*
X201350285Y-108215920D01*
X201285595Y-108375860D01*
X201264031Y-108577341D01*
X200767938Y-108577341D01*
X200767938Y-107951072D01*
X200767938Y-107454978D01*
X203546062Y-107454978D01*
X203546062Y-107951072D01*
X203546062Y-108577341D01*
G37*
D11*
X187997242Y-108726500D02*
X188471758Y-108726500D01*
X187997242Y-109771500D02*
X188471758Y-109771500D01*
G36*
X164668287Y-114840227D02*
G01*
X164757881Y-114906306D01*
X164810566Y-115021797D01*
X164828128Y-115192056D01*
X164810566Y-115375115D01*
X164757881Y-115495666D01*
X164668287Y-115562638D01*
X164539997Y-115584963D01*
X164401884Y-115568294D01*
X164401884Y-114837250D01*
X164539997Y-114818200D01*
X164668287Y-114840227D01*
G37*
G36*
X164401884Y-116893062D02*
G01*
X163475578Y-116893062D01*
X162880266Y-116893062D01*
X162384172Y-116893062D01*
X162384172Y-115492094D01*
X162880266Y-115492094D01*
X162889567Y-115704174D01*
X162917473Y-115887977D01*
X162963981Y-116043502D01*
X163029094Y-116170750D01*
X163112810Y-116269721D01*
X163215129Y-116340414D01*
X163336052Y-116382830D01*
X163475578Y-116396969D01*
X163617924Y-116387708D01*
X163688606Y-116373156D01*
X164135184Y-116373156D01*
X164401884Y-116373156D01*
X164401884Y-115777844D01*
X164539997Y-115789750D01*
X164709727Y-115773875D01*
X164847443Y-115726250D01*
X164953144Y-115646875D01*
X165027889Y-115532840D01*
X165072735Y-115381233D01*
X165087684Y-115192056D01*
X165077617Y-115063469D01*
X165321047Y-115063469D01*
X165345752Y-115232538D01*
X165419869Y-115373031D01*
X165501757Y-115455581D01*
X165615660Y-115534956D01*
X165761578Y-115611156D01*
X165863674Y-115672473D01*
X165931838Y-115742125D01*
X165970235Y-115826659D01*
X165983034Y-115932625D01*
X165966366Y-116043651D01*
X165916359Y-116124316D01*
X165836588Y-116173429D01*
X165730622Y-116189800D01*
X165591186Y-116172602D01*
X165458630Y-116121008D01*
X165332953Y-116035019D01*
X165332953Y-116282669D01*
X165455191Y-116346169D01*
X165590128Y-116384269D01*
X165737766Y-116396969D01*
X165922074Y-116377919D01*
X166065426Y-116320769D01*
X166167819Y-116225519D01*
X166229256Y-116092169D01*
X166249734Y-115920719D01*
X166224136Y-115736767D01*
X166147341Y-115589725D01*
X166060293Y-115504794D01*
X165935674Y-115421450D01*
X165773484Y-115339694D01*
X165667651Y-115268521D01*
X165604151Y-115172477D01*
X165582984Y-115051563D01*
X165599653Y-114953931D01*
X165649659Y-114880113D01*
X165728836Y-114833678D01*
X165833016Y-114818200D01*
X166018158Y-114843798D01*
X166202109Y-114920594D01*
X166202109Y-114682469D01*
X166074051Y-114642781D01*
X165940701Y-114618969D01*
X165802059Y-114611031D01*
X165659846Y-114624260D01*
X165541180Y-114663948D01*
X165446063Y-114730094D01*
X165352301Y-114872969D01*
X165321047Y-115063469D01*
X165077617Y-115063469D01*
X165073132Y-115006186D01*
X165029476Y-114858152D01*
X164956716Y-114747953D01*
X164852205Y-114671885D01*
X164713299Y-114626245D01*
X164539997Y-114611031D01*
X164402943Y-114616323D01*
X164268005Y-114632198D01*
X164135184Y-114658656D01*
X164135184Y-116373156D01*
X163688606Y-116373156D01*
X163752861Y-116359927D01*
X163880391Y-116313625D01*
X163880391Y-115337313D01*
X163325559Y-115337313D01*
X163325559Y-115539719D01*
X163625597Y-115539719D01*
X163625597Y-116163606D01*
X163482722Y-116192181D01*
X163337466Y-116151700D01*
X163230309Y-116030256D01*
X163181361Y-115898494D01*
X163151993Y-115719106D01*
X163142203Y-115492094D01*
X163152522Y-115270241D01*
X163183478Y-115096806D01*
X163235072Y-114971791D01*
X163353539Y-114858384D01*
X163523203Y-114820581D01*
X163669055Y-114834869D01*
X163820859Y-114877731D01*
X163820859Y-114663419D01*
X163675008Y-114624128D01*
X163523203Y-114611031D01*
X163326750Y-114634579D01*
X163166016Y-114705223D01*
X163041000Y-114822963D01*
X162970679Y-114944257D01*
X162920449Y-115096211D01*
X162890312Y-115278823D01*
X162880266Y-115492094D01*
X162384172Y-115492094D01*
X162384172Y-114114938D01*
X162880266Y-114114938D01*
X166249734Y-114114938D01*
X166745828Y-114114938D01*
X166745828Y-116893062D01*
X166249734Y-116893062D01*
X165737766Y-116893062D01*
X164401884Y-116893062D01*
G37*
G36*
X191595561Y-81551109D02*
G01*
X191709266Y-81661838D01*
X191758214Y-81784604D01*
X191787582Y-81956054D01*
X191797372Y-82176188D01*
X191787715Y-82419340D01*
X191758743Y-82605871D01*
X191710456Y-82735781D01*
X191597049Y-82850081D01*
X191430659Y-82888181D01*
X191323503Y-82866750D01*
X191323503Y-81535631D01*
X191430659Y-81514200D01*
X191595561Y-81551109D01*
G37*
G36*
X189885228Y-83589062D02*
G01*
X189230384Y-83589062D01*
X188635072Y-83589062D01*
X188138978Y-83589062D01*
X188138978Y-82188094D01*
X188635072Y-82188094D01*
X188644374Y-82400174D01*
X188672279Y-82583977D01*
X188718788Y-82739502D01*
X188783900Y-82866750D01*
X188867616Y-82965721D01*
X188969935Y-83036414D01*
X189090858Y-83078830D01*
X189230384Y-83092969D01*
X189372730Y-83083708D01*
X189507668Y-83055927D01*
X189635197Y-83009625D01*
X189635197Y-82033313D01*
X189080366Y-82033313D01*
X189080366Y-82235719D01*
X189380403Y-82235719D01*
X189380403Y-82859606D01*
X189237528Y-82888181D01*
X189092272Y-82847700D01*
X188985116Y-82726256D01*
X188936168Y-82594494D01*
X188906799Y-82415106D01*
X188897009Y-82188094D01*
X188907328Y-81966241D01*
X188938284Y-81792806D01*
X188989878Y-81667791D01*
X189108345Y-81554384D01*
X189278009Y-81516581D01*
X189423861Y-81530869D01*
X189575666Y-81573731D01*
X189575666Y-81359419D01*
X189469593Y-81330844D01*
X189885228Y-81330844D01*
X189885228Y-83069156D01*
X190147166Y-83069156D01*
X190147166Y-81807094D01*
X190151928Y-81807094D01*
X190523403Y-83069156D01*
X190790103Y-83069156D01*
X190790103Y-83045344D01*
X191056803Y-83045344D01*
X191235992Y-83081062D01*
X191430659Y-83092969D01*
X191628303Y-83072430D01*
X191783084Y-83010816D01*
X191900659Y-82898599D01*
X191986681Y-82726256D01*
X192025707Y-82575179D01*
X192049123Y-82391823D01*
X192056928Y-82176188D01*
X192047775Y-81953615D01*
X192020316Y-81766910D01*
X191974552Y-81616073D01*
X191910481Y-81501103D01*
X191792080Y-81393285D01*
X191632140Y-81328595D01*
X191430659Y-81307031D01*
X191243136Y-81318938D01*
X191056803Y-81354656D01*
X191056803Y-83045344D01*
X190790103Y-83045344D01*
X190790103Y-81330844D01*
X190540072Y-81330844D01*
X190540072Y-82592906D01*
X190532928Y-82592906D01*
X190161453Y-81330844D01*
X189885228Y-81330844D01*
X189469593Y-81330844D01*
X189429814Y-81320128D01*
X189278009Y-81307031D01*
X189081556Y-81330579D01*
X188920822Y-81401223D01*
X188795806Y-81518963D01*
X188725485Y-81640257D01*
X188675255Y-81792211D01*
X188645118Y-81974823D01*
X188635072Y-82188094D01*
X188138978Y-82188094D01*
X188138978Y-80810938D01*
X188635072Y-80810938D01*
X192056928Y-80810938D01*
X192553022Y-80810938D01*
X192553022Y-83589062D01*
X192056928Y-83589062D01*
X191430659Y-83589062D01*
X189885228Y-83589062D01*
G37*
G36*
X130522933Y-105355166D02*
G01*
X130614214Y-105415888D01*
X130680889Y-105646075D01*
X130666601Y-105757200D01*
X130622151Y-105861975D01*
X130544364Y-105941350D01*
X130430064Y-105973100D01*
X130291951Y-105933413D01*
X130204639Y-105827050D01*
X130160189Y-105676238D01*
X130147489Y-105500025D01*
X130149076Y-105439700D01*
X130153839Y-105382550D01*
X130258614Y-105347625D01*
X130382439Y-105334925D01*
X130522933Y-105355166D01*
G37*
G36*
X133433614Y-106971108D02*
G01*
X132001689Y-106971108D01*
X130439589Y-106971108D01*
X128991789Y-106971108D01*
X128156764Y-106971108D01*
X127495306Y-106971108D01*
X127495306Y-105595275D01*
X128156764Y-105595275D01*
X128655239Y-105595275D01*
X128655239Y-106147725D01*
X128991789Y-106147725D01*
X128991789Y-105595275D01*
X129490264Y-105595275D01*
X129490264Y-105465100D01*
X129763314Y-105465100D01*
X129782540Y-105729507D01*
X129840219Y-105942761D01*
X129936351Y-106104862D01*
X130069172Y-106218633D01*
X130236918Y-106286896D01*
X130439589Y-106309650D01*
X130590401Y-106294172D01*
X130718989Y-106247738D01*
X130912664Y-106087400D01*
X130949130Y-106017550D01*
X131715939Y-106017550D01*
X131739751Y-106139787D01*
X131803251Y-106228688D01*
X131893739Y-106284250D01*
X132001689Y-106303300D01*
X132198539Y-106230275D01*
X132207495Y-106208050D01*
X132903389Y-106208050D01*
X132993876Y-106242975D01*
X133125639Y-106276312D01*
X133278039Y-106300125D01*
X133433614Y-106309650D01*
X133615383Y-106297744D01*
X133773339Y-106262025D01*
X133907483Y-106204875D01*
X134017814Y-106128675D01*
X134163864Y-105927063D01*
X134211489Y-105674650D01*
X134189969Y-105490500D01*
X134125411Y-105335983D01*
X134017814Y-105211100D01*
X133866472Y-105116556D01*
X133670681Y-105053056D01*
X133430439Y-105020600D01*
X133446314Y-104839625D01*
X133462189Y-104626900D01*
X134138464Y-104626900D01*
X134138464Y-104303050D01*
X134421039Y-104303050D01*
X134457551Y-104480850D01*
X134509939Y-104703100D01*
X134551919Y-104869435D01*
X134597428Y-105042472D01*
X134646464Y-105222212D01*
X134698322Y-105405481D01*
X134752297Y-105589101D01*
X134808389Y-105773075D01*
X134891733Y-106035013D01*
X134970314Y-106268375D01*
X135373539Y-106268375D01*
X135434217Y-106099218D01*
X135493483Y-105926181D01*
X135551339Y-105749263D01*
X135606901Y-105571463D01*
X135659289Y-105395779D01*
X135708501Y-105222212D01*
X135775970Y-104969403D01*
X135835501Y-104728500D01*
X135886698Y-104504662D01*
X135929164Y-104303050D01*
X135519589Y-104303050D01*
X135491014Y-104468150D01*
X135456089Y-104658650D01*
X135416401Y-104864628D01*
X135373539Y-105076162D01*
X135327501Y-105288888D01*
X135278289Y-105498438D01*
X135227489Y-105694891D01*
X135176689Y-105868325D01*
X135125492Y-105692509D01*
X135073501Y-105495262D01*
X135022701Y-105285712D01*
X134975076Y-105072988D01*
X134931023Y-104861850D01*
X134890939Y-104657063D01*
X134857601Y-104467753D01*
X134833789Y-104303050D01*
X134421039Y-104303050D01*
X134138464Y-104303050D01*
X133135164Y-104303050D01*
X133123258Y-104545541D01*
X133106589Y-104796762D01*
X133084364Y-105055128D01*
X133055789Y-105319050D01*
X133274070Y-105325797D01*
X133446314Y-105346037D01*
X133676501Y-105422237D01*
X133784451Y-105539713D01*
X133811439Y-105690525D01*
X133795564Y-105795300D01*
X133736826Y-105885788D01*
X133619351Y-105950875D01*
X133430439Y-105976275D01*
X133282008Y-105969131D01*
X133160564Y-105947700D01*
X132982764Y-105884200D01*
X132903389Y-106208050D01*
X132207495Y-106208050D01*
X132284264Y-106017550D01*
X132198539Y-105811175D01*
X132001689Y-105738150D01*
X131893739Y-105757200D01*
X131803251Y-105811175D01*
X131739751Y-105898488D01*
X131715939Y-106017550D01*
X130949130Y-106017550D01*
X131025376Y-105871500D01*
X131061889Y-105639725D01*
X131028551Y-105398425D01*
X130919014Y-105198400D01*
X130723751Y-105061875D01*
X130591592Y-105023775D01*
X130433239Y-105011075D01*
X130331639Y-105025362D01*
X130214164Y-105065050D01*
X130323701Y-104858675D01*
X130499914Y-104723737D01*
X130722164Y-104649125D01*
X130969814Y-104623725D01*
X130947589Y-104290350D01*
X130692795Y-104309400D01*
X130461814Y-104366550D01*
X130258614Y-104461006D01*
X130087164Y-104591975D01*
X129949448Y-104758662D01*
X129847451Y-104960275D01*
X129784348Y-105196019D01*
X129763314Y-105465100D01*
X129490264Y-105465100D01*
X129490264Y-105274600D01*
X128991789Y-105274600D01*
X128991789Y-104722150D01*
X128655239Y-104722150D01*
X128655239Y-105274600D01*
X128156764Y-105274600D01*
X128156764Y-105595275D01*
X127495306Y-105595275D01*
X127495306Y-103628892D01*
X128156764Y-103628892D01*
X135929164Y-103628892D01*
X136590622Y-103628892D01*
X137704694Y-105300000D01*
X136590622Y-106971108D01*
X135929164Y-106971108D01*
X134970314Y-106971108D01*
X133433614Y-106971108D01*
G37*
X168374000Y-101468859D02*
X168374000Y-101776141D01*
X167614000Y-101468859D02*
X167614000Y-101776141D01*
X153136252Y-112060000D02*
X151713748Y-112060000D01*
X153136252Y-110240000D02*
X151713748Y-110240000D01*
G36*
X141430561Y-81581109D02*
G01*
X141544266Y-81691838D01*
X141593214Y-81814604D01*
X141622582Y-81986054D01*
X141632372Y-82206188D01*
X141622715Y-82449340D01*
X141593743Y-82635871D01*
X141545456Y-82765781D01*
X141432049Y-82880081D01*
X141265659Y-82918181D01*
X141158503Y-82896750D01*
X141158503Y-81565631D01*
X141265659Y-81544200D01*
X141430561Y-81581109D01*
G37*
G36*
X139720228Y-83619062D02*
G01*
X139065384Y-83619062D01*
X138470072Y-83619062D01*
X137973978Y-83619062D01*
X137973978Y-82218094D01*
X138470072Y-82218094D01*
X138479374Y-82430174D01*
X138507279Y-82613977D01*
X138553788Y-82769502D01*
X138618900Y-82896750D01*
X138702616Y-82995721D01*
X138804935Y-83066414D01*
X138925858Y-83108830D01*
X139065384Y-83122969D01*
X139207730Y-83113708D01*
X139342668Y-83085927D01*
X139470197Y-83039625D01*
X139470197Y-82063313D01*
X138915366Y-82063313D01*
X138915366Y-82265719D01*
X139215403Y-82265719D01*
X139215403Y-82889606D01*
X139072528Y-82918181D01*
X138927272Y-82877700D01*
X138820116Y-82756256D01*
X138771168Y-82624494D01*
X138741799Y-82445106D01*
X138732009Y-82218094D01*
X138742328Y-81996241D01*
X138773284Y-81822806D01*
X138824878Y-81697791D01*
X138943345Y-81584384D01*
X139113009Y-81546581D01*
X139258861Y-81560869D01*
X139410666Y-81603731D01*
X139410666Y-81389419D01*
X139304593Y-81360844D01*
X139720228Y-81360844D01*
X139720228Y-83099156D01*
X139982166Y-83099156D01*
X139982166Y-81837094D01*
X139986928Y-81837094D01*
X140358403Y-83099156D01*
X140625103Y-83099156D01*
X140625103Y-83075344D01*
X140891803Y-83075344D01*
X141070992Y-83111062D01*
X141265659Y-83122969D01*
X141463303Y-83102430D01*
X141618084Y-83040816D01*
X141735659Y-82928599D01*
X141821681Y-82756256D01*
X141860707Y-82605179D01*
X141884123Y-82421823D01*
X141891928Y-82206188D01*
X141882775Y-81983615D01*
X141855316Y-81796910D01*
X141809552Y-81646073D01*
X141745481Y-81531103D01*
X141627080Y-81423285D01*
X141467140Y-81358595D01*
X141265659Y-81337031D01*
X141078136Y-81348938D01*
X140891803Y-81384656D01*
X140891803Y-83075344D01*
X140625103Y-83075344D01*
X140625103Y-81360844D01*
X140375072Y-81360844D01*
X140375072Y-82622906D01*
X140367928Y-82622906D01*
X139996453Y-81360844D01*
X139720228Y-81360844D01*
X139304593Y-81360844D01*
X139264814Y-81350128D01*
X139113009Y-81337031D01*
X138916556Y-81360579D01*
X138755822Y-81431223D01*
X138630806Y-81548963D01*
X138560485Y-81670257D01*
X138510255Y-81822211D01*
X138480118Y-82004823D01*
X138470072Y-82218094D01*
X137973978Y-82218094D01*
X137973978Y-80840938D01*
X138470072Y-80840938D01*
X141891928Y-80840938D01*
X142388022Y-80840938D01*
X142388022Y-83619062D01*
X141891928Y-83619062D01*
X141265659Y-83619062D01*
X139720228Y-83619062D01*
G37*
X141010000Y-113135000D02*
X141010000Y-111665000D01*
X141010000Y-111665000D02*
X138725000Y-111665000D01*
X138725000Y-113135000D02*
X141010000Y-113135000D01*
X191547436Y-112119000D02*
X192001564Y-112119000D01*
X191547436Y-113589000D02*
X192001564Y-113589000D01*
G36*
X206049550Y-109921159D02*
G01*
X205232781Y-109759234D01*
X205232781Y-109756853D01*
X206049550Y-109594928D01*
X206049550Y-109921159D01*
G37*
G36*
X205711115Y-114286884D02*
G01*
X205831666Y-114339569D01*
X205898638Y-114429163D01*
X205920963Y-114557453D01*
X205904294Y-114695566D01*
X205173250Y-114695566D01*
X205154200Y-114557453D01*
X205176227Y-114429163D01*
X205242306Y-114339569D01*
X205357797Y-114286884D01*
X205528056Y-114269322D01*
X205711115Y-114286884D01*
G37*
G36*
X206308213Y-113103998D02*
G01*
X206443647Y-113144181D01*
X206514191Y-113215916D01*
X206537706Y-113323966D01*
X206514191Y-113432015D01*
X206443647Y-113503750D01*
X206308213Y-113543934D01*
X206090031Y-113557328D01*
X205871849Y-113543934D01*
X205736416Y-113503750D01*
X205665871Y-113432015D01*
X205642356Y-113323966D01*
X205665871Y-113215916D01*
X205736416Y-113144181D01*
X205871849Y-113103998D01*
X206090031Y-113090603D01*
X206308213Y-113103998D01*
G37*
G36*
X207229062Y-110318828D02*
G01*
X207229062Y-111692809D01*
X207229062Y-113323966D01*
X207229062Y-114695566D01*
X207229062Y-114962266D01*
X207229062Y-115458359D01*
X204450938Y-115458359D01*
X204450938Y-114962266D01*
X204450938Y-114557453D01*
X204947031Y-114557453D01*
X204952323Y-114694507D01*
X204968198Y-114829445D01*
X204994656Y-114962266D01*
X206709156Y-114962266D01*
X206709156Y-114695566D01*
X206113844Y-114695566D01*
X206125750Y-114557453D01*
X206109875Y-114387723D01*
X206062250Y-114250007D01*
X205982875Y-114144306D01*
X205868840Y-114069561D01*
X205717233Y-114024715D01*
X205528056Y-114009766D01*
X205342186Y-114024318D01*
X205194152Y-114067974D01*
X205083953Y-114140734D01*
X205007885Y-114245245D01*
X204962245Y-114384151D01*
X204947031Y-114557453D01*
X204450938Y-114557453D01*
X204450938Y-113323966D01*
X205447094Y-113323966D01*
X205464027Y-113477953D01*
X205514827Y-113603366D01*
X205599494Y-113700203D01*
X205721731Y-113768995D01*
X205885244Y-113810270D01*
X206090031Y-113824028D01*
X206294819Y-113810270D01*
X206458331Y-113768995D01*
X206580569Y-113700203D01*
X206665235Y-113603366D01*
X206716035Y-113477953D01*
X206732969Y-113323966D01*
X206716035Y-113169978D01*
X206665235Y-113044566D01*
X206580569Y-112947728D01*
X206458331Y-112878936D01*
X206294819Y-112837661D01*
X206090031Y-112823903D01*
X205885244Y-112837661D01*
X205721731Y-112878936D01*
X205599494Y-112947728D01*
X205514827Y-113044566D01*
X205464027Y-113169978D01*
X205447094Y-113323966D01*
X204450938Y-113323966D01*
X204450938Y-112597684D01*
X204970844Y-112597684D01*
X205163725Y-112597684D01*
X205163725Y-112278597D01*
X206709156Y-112278597D01*
X206709156Y-111692809D01*
X206516275Y-111692809D01*
X206516275Y-112011897D01*
X204970844Y-112011897D01*
X204970844Y-112597684D01*
X204450938Y-112597684D01*
X204450938Y-109909253D01*
X204970844Y-109909253D01*
X206709156Y-110318828D01*
X206709156Y-110052128D01*
X206251956Y-109961641D01*
X206251956Y-109554447D01*
X206709156Y-109463959D01*
X206709156Y-109187734D01*
X204970844Y-109599691D01*
X204970844Y-109909253D01*
X204450938Y-109909253D01*
X204450938Y-109187734D01*
X204450938Y-108691641D01*
X207229062Y-108691641D01*
X207229062Y-109187734D01*
X207229062Y-110318828D01*
G37*
X149324000Y-99446359D02*
X149324000Y-99753641D01*
X148564000Y-99446359D02*
X148564000Y-99753641D01*
X156200000Y-107650000D02*
X159500000Y-107650000D01*
X156200000Y-107650000D02*
X156200000Y-102250000D01*
X159500000Y-107650000D02*
X159500000Y-102250000D01*
X185100000Y-106008000D02*
X185100000Y-84868000D01*
X196100000Y-106008000D02*
X185100000Y-106008000D01*
X196100000Y-106008000D02*
X196100000Y-84868000D01*
X194410000Y-103058000D02*
X194410000Y-101788000D01*
X189580000Y-102298000D02*
X189580000Y-101788000D01*
X191360000Y-102298000D02*
X190350000Y-101278000D01*
X192120000Y-102298000D02*
X189580000Y-102298000D01*
X186790000Y-101788000D02*
X186790000Y-103058000D01*
X189580000Y-101788000D02*
X186790000Y-101788000D01*
X189580000Y-101788000D02*
X189580000Y-101278000D01*
X192120000Y-101788000D02*
X192120000Y-102298000D01*
X194410000Y-101788000D02*
X192120000Y-101788000D01*
X189580000Y-101278000D02*
X192120000Y-101278000D01*
X192120000Y-101278000D02*
X192120000Y-101788000D01*
X190600000Y-94168000D02*
X190600000Y-90993000D01*
X193140000Y-94168000D02*
X190600000Y-94168000D01*
X190600000Y-90993000D02*
X188060000Y-87183000D01*
X188060000Y-89088000D02*
X189330000Y-89088000D01*
X193140000Y-86548000D02*
X190600000Y-86548000D01*
X196100000Y-84868000D02*
X185100000Y-84868000D01*
X190727000Y-90993000D02*
G75*
G03*
X190727000Y-90993000I-127000J0D01*
G01*
G36*
X196279281Y-82409550D02*
G01*
X195953050Y-82409550D01*
X196114975Y-81592781D01*
X196117356Y-81592781D01*
X196279281Y-82409550D01*
G37*
G36*
X197398171Y-81536227D02*
G01*
X197487766Y-81602306D01*
X197540451Y-81717797D01*
X197558012Y-81888056D01*
X197540451Y-82071115D01*
X197487766Y-82191666D01*
X197398171Y-82258638D01*
X197269881Y-82280963D01*
X197131769Y-82264294D01*
X197131769Y-81533250D01*
X197269881Y-81514200D01*
X197398171Y-81536227D01*
G37*
G36*
X195555381Y-83589062D02*
G01*
X194479056Y-83589062D01*
X193705150Y-83589062D01*
X193288431Y-83589062D01*
X192792337Y-83589062D01*
X192792337Y-81759469D01*
X193288431Y-81759469D01*
X193313137Y-81928538D01*
X193387253Y-82069031D01*
X193469142Y-82151581D01*
X193583045Y-82230956D01*
X193728962Y-82307156D01*
X193831059Y-82368473D01*
X193899222Y-82438125D01*
X193937620Y-82522659D01*
X193950419Y-82628625D01*
X193933750Y-82739651D01*
X193883744Y-82820316D01*
X193803972Y-82869429D01*
X193698006Y-82885800D01*
X193558571Y-82868602D01*
X193426015Y-82817008D01*
X193300337Y-82731019D01*
X193300337Y-82978669D01*
X193422575Y-83042169D01*
X193557512Y-83080269D01*
X193705150Y-83092969D01*
X193889459Y-83073919D01*
X194032810Y-83016769D01*
X194135204Y-82921519D01*
X194196640Y-82788169D01*
X194217119Y-82616719D01*
X194191520Y-82432767D01*
X194114725Y-82285725D01*
X194027677Y-82200794D01*
X193903058Y-82117450D01*
X193740869Y-82035694D01*
X193635035Y-81964521D01*
X193571535Y-81868477D01*
X193550369Y-81747563D01*
X193567037Y-81649931D01*
X193617044Y-81576113D01*
X193696220Y-81529678D01*
X193800400Y-81514200D01*
X193985542Y-81539798D01*
X194169494Y-81616594D01*
X194169494Y-81378469D01*
X194041435Y-81338781D01*
X193996987Y-81330844D01*
X194479056Y-81330844D01*
X194479056Y-83069156D01*
X194740994Y-83069156D01*
X194740994Y-81807094D01*
X194745756Y-81807094D01*
X195117231Y-83069156D01*
X195383931Y-83069156D01*
X195555381Y-83069156D01*
X195822081Y-83069156D01*
X195912569Y-82611956D01*
X196319762Y-82611956D01*
X196410250Y-83069156D01*
X196686475Y-83069156D01*
X196865069Y-83069156D01*
X197131769Y-83069156D01*
X197131769Y-82473844D01*
X197269881Y-82485750D01*
X197439611Y-82469875D01*
X197577327Y-82422250D01*
X197683028Y-82342875D01*
X197757773Y-82228840D01*
X197802620Y-82077233D01*
X197817569Y-81888056D01*
X197803017Y-81702186D01*
X197759360Y-81554152D01*
X197686600Y-81443953D01*
X197582090Y-81367885D01*
X197443183Y-81322245D01*
X197269881Y-81307031D01*
X197132827Y-81312323D01*
X196997890Y-81328198D01*
X196865069Y-81354656D01*
X196865069Y-83069156D01*
X196686475Y-83069156D01*
X196274519Y-81330844D01*
X195964956Y-81330844D01*
X195555381Y-83069156D01*
X195383931Y-83069156D01*
X195383931Y-81330844D01*
X195133900Y-81330844D01*
X195133900Y-82592906D01*
X195126756Y-82592906D01*
X194755281Y-81330844D01*
X194479056Y-81330844D01*
X193996987Y-81330844D01*
X193908085Y-81314969D01*
X193769444Y-81307031D01*
X193627230Y-81320260D01*
X193508565Y-81359948D01*
X193413447Y-81426094D01*
X193319685Y-81568969D01*
X193288431Y-81759469D01*
X192792337Y-81759469D01*
X192792337Y-80810938D01*
X193288431Y-80810938D01*
X197817569Y-80810938D01*
X198313662Y-80810938D01*
X198313662Y-83589062D01*
X197817569Y-83589062D01*
X197131769Y-83589062D01*
X195555381Y-83589062D01*
G37*
X176622748Y-98967500D02*
X177145252Y-98967500D01*
X176622748Y-100437500D02*
X177145252Y-100437500D01*
X141010000Y-97235000D02*
X141010000Y-95765000D01*
X141010000Y-95765000D02*
X138725000Y-95765000D01*
X138725000Y-97235000D02*
X141010000Y-97235000D01*
X157538748Y-98915000D02*
X158061252Y-98915000D01*
X157538748Y-100385000D02*
X158061252Y-100385000D01*
X139762258Y-106622500D02*
X139287742Y-106622500D01*
X139762258Y-105577500D02*
X139287742Y-105577500D01*
G36*
X137363187Y-124608313D02*
G01*
X136029687Y-124608313D01*
X135037500Y-124608313D01*
X135037500Y-121139625D01*
X136029687Y-121139625D01*
X136696437Y-123616125D01*
X137363187Y-123616125D01*
X138553812Y-123616125D01*
X140268313Y-123616125D01*
X140268313Y-123201788D01*
X139106262Y-123201788D01*
X139106262Y-123192263D01*
X139385613Y-122859483D01*
X139623589Y-122546944D01*
X139820191Y-122254645D01*
X139975419Y-121982588D01*
X140124908Y-121642862D01*
X140214602Y-121322188D01*
X140244500Y-121020563D01*
X140190327Y-120618727D01*
X140027806Y-120327619D01*
X139762892Y-120150811D01*
X139401537Y-120091875D01*
X139099912Y-120119392D01*
X138817338Y-120201942D01*
X138553812Y-120339525D01*
X138553812Y-120787200D01*
X138822100Y-120631096D01*
X139068162Y-120537433D01*
X139292000Y-120506212D01*
X139603944Y-120634800D01*
X139680739Y-120801488D01*
X139706337Y-121044375D01*
X139682817Y-121305341D01*
X139612254Y-121582052D01*
X139494649Y-121874508D01*
X139330003Y-122182710D01*
X139118315Y-122506657D01*
X138859584Y-122846349D01*
X138553812Y-123201788D01*
X138553812Y-123616125D01*
X137363187Y-123616125D01*
X138029938Y-121139625D01*
X137506062Y-121139625D01*
X137044100Y-123235125D01*
X137034575Y-123235125D01*
X136572612Y-121139625D01*
X136029687Y-121139625D01*
X135037500Y-121139625D01*
X135037500Y-119099687D01*
X136029687Y-119099687D01*
X140268313Y-119099687D01*
X141260500Y-119099687D01*
X141260500Y-124608313D01*
X140268313Y-124608313D01*
X137363187Y-124608313D01*
G37*
G36*
X151082561Y-114855109D02*
G01*
X151196266Y-114965838D01*
X151245214Y-115088604D01*
X151274582Y-115260054D01*
X151284372Y-115480188D01*
X151274715Y-115723340D01*
X151245743Y-115909871D01*
X151197456Y-116039781D01*
X151084049Y-116154081D01*
X150917659Y-116192181D01*
X150810503Y-116170750D01*
X150810503Y-114839631D01*
X150917659Y-114818200D01*
X151082561Y-114855109D01*
G37*
G36*
X149372228Y-116893062D02*
G01*
X148717384Y-116893062D01*
X148122072Y-116893062D01*
X147625978Y-116893062D01*
X147625978Y-115492094D01*
X148122072Y-115492094D01*
X148131374Y-115704174D01*
X148159279Y-115887977D01*
X148205788Y-116043502D01*
X148270900Y-116170750D01*
X148354616Y-116269721D01*
X148456935Y-116340414D01*
X148577858Y-116382830D01*
X148717384Y-116396969D01*
X148859730Y-116387708D01*
X148994668Y-116359927D01*
X149122197Y-116313625D01*
X149122197Y-115337313D01*
X148567366Y-115337313D01*
X148567366Y-115539719D01*
X148867403Y-115539719D01*
X148867403Y-116163606D01*
X148724528Y-116192181D01*
X148579272Y-116151700D01*
X148472116Y-116030256D01*
X148423168Y-115898494D01*
X148393799Y-115719106D01*
X148384009Y-115492094D01*
X148394328Y-115270241D01*
X148425284Y-115096806D01*
X148476878Y-114971791D01*
X148595345Y-114858384D01*
X148765009Y-114820581D01*
X148910861Y-114834869D01*
X149062666Y-114877731D01*
X149062666Y-114663419D01*
X148956593Y-114634844D01*
X149372228Y-114634844D01*
X149372228Y-116373156D01*
X149634166Y-116373156D01*
X149634166Y-115111094D01*
X149638928Y-115111094D01*
X150010403Y-116373156D01*
X150277103Y-116373156D01*
X150277103Y-116349344D01*
X150543803Y-116349344D01*
X150722992Y-116385062D01*
X150917659Y-116396969D01*
X151115303Y-116376430D01*
X151270084Y-116314816D01*
X151387659Y-116202599D01*
X151473681Y-116030256D01*
X151512707Y-115879179D01*
X151536123Y-115695823D01*
X151543928Y-115480188D01*
X151534775Y-115257615D01*
X151507316Y-115070910D01*
X151461552Y-114920073D01*
X151397481Y-114805103D01*
X151279080Y-114697285D01*
X151119140Y-114632595D01*
X150917659Y-114611031D01*
X150730136Y-114622938D01*
X150543803Y-114658656D01*
X150543803Y-116349344D01*
X150277103Y-116349344D01*
X150277103Y-114634844D01*
X150027072Y-114634844D01*
X150027072Y-115896906D01*
X150019928Y-115896906D01*
X149648453Y-114634844D01*
X149372228Y-114634844D01*
X148956593Y-114634844D01*
X148916814Y-114624128D01*
X148765009Y-114611031D01*
X148568556Y-114634579D01*
X148407822Y-114705223D01*
X148282806Y-114822963D01*
X148212485Y-114944257D01*
X148162255Y-115096211D01*
X148132118Y-115278823D01*
X148122072Y-115492094D01*
X147625978Y-115492094D01*
X147625978Y-114114938D01*
X148122072Y-114114938D01*
X151543928Y-114114938D01*
X152040022Y-114114938D01*
X152040022Y-116893062D01*
X151543928Y-116893062D01*
X150917659Y-116893062D01*
X149372228Y-116893062D01*
G37*
X147140000Y-98648000D02*
X142620000Y-98648000D01*
X142620000Y-98648000D02*
X142620000Y-106708000D01*
X147140000Y-106708000D02*
X147140000Y-98648000D01*
X149324000Y-101396359D02*
X149324000Y-101703641D01*
X148564000Y-101396359D02*
X148564000Y-101703641D01*
X175234000Y-107702500D02*
X178534000Y-107702500D01*
X175234000Y-107702500D02*
X175234000Y-102302500D01*
X178534000Y-107702500D02*
X178534000Y-102302500D01*
X193294500Y-109984000D02*
X193294500Y-108514000D01*
X193294500Y-108514000D02*
X191009500Y-108514000D01*
X191009500Y-109984000D02*
X193294500Y-109984000D01*
X176072000Y-97293000D02*
X163472000Y-97293000D01*
X176072000Y-94293000D02*
X176072000Y-97293000D01*
X176072000Y-84693000D02*
X176072000Y-87693000D01*
X163472000Y-97293000D02*
X163472000Y-94293000D01*
X163472000Y-87693000D02*
X163472000Y-84693000D01*
X163472000Y-84693000D02*
X176072000Y-84693000D01*
X195378359Y-112394000D02*
X195685641Y-112394000D01*
X195378359Y-113154000D02*
X195685641Y-113154000D01*
X165767000Y-98705000D02*
X162347000Y-98705000D01*
X162347000Y-98705000D02*
X162347000Y-105465000D01*
X165767000Y-105465000D02*
X165767000Y-98705000D01*
%LPC*%
D12*
X153900000Y-107850000D03*
X150950000Y-107850000D03*
D13*
X144692000Y-121092000D03*
D14*
X149692000Y-121092000D03*
X154692000Y-121092000D03*
X159692000Y-121092000D03*
X164692000Y-121092000D03*
X169692000Y-121092000D03*
D13*
X202538000Y-103580000D03*
D14*
X202538000Y-98580000D03*
X202538000Y-93580000D03*
X202538000Y-88580000D03*
D12*
X165532000Y-111177500D03*
X162582000Y-111177500D03*
D15*
X188972000Y-107249000D03*
X191072000Y-107249000D03*
D16*
X196072000Y-111124000D03*
X197972000Y-111124000D03*
X197022000Y-109249000D03*
D17*
X198052000Y-112774000D03*
X197032000Y-112774000D03*
D18*
X140312500Y-104500000D03*
X138737500Y-104500000D03*
X140312500Y-88500000D03*
X138737500Y-88500000D03*
D19*
X130600000Y-74300000D03*
D20*
X130600000Y-74300000D03*
D21*
X167994000Y-99119000D03*
X167994000Y-100139000D03*
D22*
X184432000Y-112854000D03*
X187132000Y-112854000D03*
D23*
X157150000Y-90993000D03*
X147250000Y-90993000D03*
D19*
X204500000Y-123200000D03*
D20*
X204500000Y-123200000D03*
D12*
X165532000Y-107884000D03*
X162582000Y-107884000D03*
D24*
X173836000Y-99690000D03*
X172566000Y-99690000D03*
X171296000Y-99690000D03*
X170026000Y-99690000D03*
X170026000Y-105090000D03*
X171296000Y-105090000D03*
X172566000Y-105090000D03*
X173836000Y-105090000D03*
D25*
X171931000Y-102390000D03*
D26*
X140350000Y-114000000D03*
X138700000Y-114000000D03*
X140350000Y-90100000D03*
X138700000Y-90100000D03*
D27*
X172414000Y-112456000D03*
X178814000Y-112456000D03*
D26*
X140350000Y-98100000D03*
X138700000Y-98100000D03*
D19*
X204500000Y-74300000D03*
D20*
X204500000Y-74300000D03*
D13*
X195233000Y-76261000D03*
D14*
X190233000Y-76261000D03*
X185233000Y-76261000D03*
X180233000Y-76261000D03*
X175233000Y-76261000D03*
X170233000Y-76261000D03*
X165233000Y-76261000D03*
X160233000Y-76261000D03*
X155233000Y-76261000D03*
X150233000Y-76261000D03*
X145233000Y-76261000D03*
X140233000Y-76261000D03*
D24*
X154808000Y-99700000D03*
X153538000Y-99700000D03*
X152268000Y-99700000D03*
X150998000Y-99700000D03*
X150998000Y-105100000D03*
X152268000Y-105100000D03*
X153538000Y-105100000D03*
X154808000Y-105100000D03*
D25*
X152903000Y-102400000D03*
D28*
X187409500Y-109249000D03*
X189059500Y-109249000D03*
D21*
X167994000Y-101112500D03*
X167994000Y-102132500D03*
D12*
X153900000Y-111150000D03*
X150950000Y-111150000D03*
D18*
X140312500Y-112400000D03*
X138737500Y-112400000D03*
D29*
X190862000Y-112854000D03*
X192687000Y-112854000D03*
D21*
X148944000Y-99090000D03*
X148944000Y-100110000D03*
D30*
X157850000Y-106250000D03*
X157850000Y-102250000D03*
D31*
X194410000Y-104328000D03*
D32*
X194410000Y-94168000D03*
X194410000Y-86548000D03*
X186790000Y-89088000D03*
X186790000Y-104328000D03*
D33*
X175934000Y-99702500D03*
X177834000Y-99702500D03*
D18*
X140312500Y-96500000D03*
X138737500Y-96500000D03*
D33*
X156850000Y-99650000D03*
X158750000Y-99650000D03*
D26*
X140350000Y-106100000D03*
X138700000Y-106100000D03*
D34*
X144880000Y-99945500D03*
X144880000Y-106170500D03*
D21*
X148944000Y-101040000D03*
X148944000Y-102060000D03*
D30*
X176884000Y-106302500D03*
X176884000Y-102302500D03*
D18*
X192597000Y-109249000D03*
X191022000Y-109249000D03*
D23*
X174722000Y-90993000D03*
X164822000Y-90993000D03*
D35*
X195022000Y-112774000D03*
X196042000Y-112774000D03*
D36*
X164057000Y-100002500D03*
X164057000Y-104927500D03*
D19*
X130600000Y-123200000D03*
D20*
X130600000Y-123200000D03*
M02*
