G04 #@! TF.GenerationSoftware,KiCad,Pcbnew,7.0.1*
G04 #@! TF.CreationDate,2023-12-04T13:47:49-08:00*
G04 #@! TF.ProjectId,GReX_Power,47526558-5f50-46f7-9765-722e6b696361,2*
G04 #@! TF.SameCoordinates,Original*
G04 #@! TF.FileFunction,Copper,L2,Bot*
G04 #@! TF.FilePolarity,Positive*
%FSLAX46Y46*%
G04 Gerber Fmt 4.6, Leading zero omitted, Abs format (unit mm)*
G04 Created by KiCad (PCBNEW 7.0.1) date 2023-12-04 13:47:49*
%MOMM*%
%LPD*%
G01*
G04 APERTURE LIST*
G04 #@! TA.AperFunction,ComponentPad*
%ADD10R,2.600000X2.600000*%
G04 #@! TD*
G04 #@! TA.AperFunction,ComponentPad*
%ADD11C,2.600000*%
G04 #@! TD*
G04 #@! TA.AperFunction,ComponentPad*
%ADD12C,3.600000*%
G04 #@! TD*
G04 #@! TA.AperFunction,ConnectorPad*
%ADD13C,6.400000*%
G04 #@! TD*
G04 #@! TA.AperFunction,ComponentPad*
%ADD14C,0.600000*%
G04 #@! TD*
G04 #@! TA.AperFunction,SMDPad,CuDef*
%ADD15R,4.500000X2.950000*%
G04 #@! TD*
G04 #@! TA.AperFunction,ComponentPad*
%ADD16R,2.300000X2.300000*%
G04 #@! TD*
G04 #@! TA.AperFunction,ComponentPad*
%ADD17C,2.300000*%
G04 #@! TD*
G04 #@! TA.AperFunction,ViaPad*
%ADD18C,0.800000*%
G04 #@! TD*
G04 #@! TA.AperFunction,Conductor*
%ADD19C,0.500000*%
G04 #@! TD*
G04 #@! TA.AperFunction,Conductor*
%ADD20C,1.500000*%
G04 #@! TD*
G04 APERTURE END LIST*
D10*
X144692000Y-121092000D03*
D11*
X149692000Y-121092000D03*
X154692000Y-121092000D03*
X159692000Y-121092000D03*
X164692000Y-121092000D03*
X169692000Y-121092000D03*
D10*
X202538000Y-103580000D03*
D11*
X202538000Y-98580000D03*
X202538000Y-93580000D03*
X202538000Y-88580000D03*
D12*
X130600000Y-74300000D03*
D13*
X130600000Y-74300000D03*
D12*
X204500000Y-123200000D03*
D13*
X204500000Y-123200000D03*
D14*
X173731000Y-101790000D03*
X172531000Y-101790000D03*
X171231000Y-101790000D03*
X170131000Y-101790000D03*
D15*
X171931000Y-102390000D03*
D14*
X173731000Y-102990000D03*
X172531000Y-102990000D03*
X171231000Y-102990000D03*
X170131000Y-102990000D03*
D12*
X204500000Y-74300000D03*
D13*
X204500000Y-74300000D03*
D10*
X195233000Y-76261000D03*
D11*
X190233000Y-76261000D03*
X185233000Y-76261000D03*
X180233000Y-76261000D03*
X175233000Y-76261000D03*
X170233000Y-76261000D03*
X165233000Y-76261000D03*
X160233000Y-76261000D03*
X155233000Y-76261000D03*
X150233000Y-76261000D03*
X145233000Y-76261000D03*
X140233000Y-76261000D03*
D14*
X154703000Y-101800000D03*
X153503000Y-101800000D03*
X152203000Y-101800000D03*
X151103000Y-101800000D03*
D15*
X152903000Y-102400000D03*
D14*
X154703000Y-103000000D03*
X153503000Y-103000000D03*
X152203000Y-103000000D03*
X151103000Y-103000000D03*
D16*
X194410000Y-104328000D03*
D17*
X194410000Y-94168000D03*
X194410000Y-86548000D03*
X186790000Y-89088000D03*
X186790000Y-104328000D03*
D12*
X130600000Y-123200000D03*
D13*
X130600000Y-123200000D03*
D18*
X129259000Y-86738000D03*
X133259000Y-94738000D03*
X201259000Y-118738000D03*
X205259000Y-94738000D03*
X149259000Y-110738000D03*
X129259000Y-94738000D03*
X169259000Y-82738000D03*
X169259000Y-102738000D03*
X201259000Y-110738000D03*
X145259000Y-114738000D03*
X205259000Y-86738000D03*
X189259000Y-110738000D03*
X189259000Y-118738000D03*
X189259000Y-82738000D03*
X205259000Y-82738000D03*
X137259000Y-118738000D03*
X129259000Y-82738000D03*
X129259000Y-114738000D03*
X133259000Y-98738000D03*
X201259000Y-86738000D03*
X197259000Y-94738000D03*
X133259000Y-86738000D03*
X189259000Y-114738000D03*
X129259000Y-110738000D03*
X157259000Y-110738000D03*
X185259000Y-122738000D03*
X197259000Y-122738000D03*
X141259000Y-94738000D03*
X205259000Y-110738000D03*
X201259000Y-90738000D03*
X177259000Y-122738000D03*
X137259000Y-82738000D03*
X189259000Y-90738000D03*
X205259000Y-102738000D03*
X153259000Y-90738000D03*
X201259000Y-114738000D03*
X177259000Y-110738000D03*
X161259000Y-118738000D03*
X141259000Y-82738000D03*
X137259000Y-110738000D03*
X145259000Y-86738000D03*
X153259000Y-94738000D03*
X157259000Y-86738000D03*
X141259000Y-122738000D03*
X169259000Y-86738000D03*
X133259000Y-114738000D03*
X145259000Y-110738000D03*
X137259000Y-86738000D03*
X137259000Y-94738000D03*
X137259000Y-90738000D03*
X205259000Y-114738000D03*
X177259000Y-102738000D03*
X193259000Y-114738000D03*
X157259000Y-102738000D03*
X193259000Y-110738000D03*
X133259000Y-110738000D03*
X153259000Y-86738000D03*
X161259000Y-86738000D03*
X161259000Y-82738000D03*
X137259000Y-122738000D03*
X137259000Y-106738000D03*
X185259000Y-90738000D03*
X193259000Y-118738000D03*
X205259000Y-98738000D03*
X161259000Y-122738000D03*
X137259000Y-98738000D03*
X169259000Y-114738000D03*
X157259000Y-82738000D03*
X129259000Y-102738000D03*
X201259000Y-106738000D03*
X129259000Y-118738000D03*
X185259000Y-106738000D03*
X133259000Y-82738000D03*
X129259000Y-98738000D03*
X141259000Y-110738000D03*
X185259000Y-94738000D03*
X129259000Y-90738000D03*
X173259000Y-82738000D03*
X149259000Y-106738000D03*
X189259000Y-122738000D03*
X153259000Y-82738000D03*
X173259000Y-114738000D03*
X193259000Y-82738000D03*
X149259000Y-86738000D03*
X177259000Y-118738000D03*
X205259000Y-106738000D03*
X145259000Y-82738000D03*
X133259000Y-118738000D03*
X149259000Y-102738000D03*
X197259000Y-102738000D03*
X185259000Y-118738000D03*
X181259000Y-122738000D03*
X133259000Y-90738000D03*
X181259000Y-114738000D03*
X173259000Y-122738000D03*
X153259000Y-118738000D03*
X169259000Y-94738000D03*
X189259000Y-102738000D03*
X137259000Y-102738000D03*
X205259000Y-118738000D03*
X181259000Y-118738000D03*
X165259000Y-102738000D03*
X133259000Y-102738000D03*
X169259000Y-90738000D03*
X129259000Y-106738000D03*
X201259000Y-82738000D03*
X177259000Y-86738000D03*
X169259000Y-110738000D03*
X133259000Y-106738000D03*
X189259000Y-86738000D03*
X185259000Y-82738000D03*
X189259000Y-94738000D03*
X141259000Y-86738000D03*
X157259000Y-118738000D03*
X193259000Y-90738000D03*
X205259000Y-90738000D03*
X166724000Y-99121000D03*
X137400000Y-112400000D03*
X174852000Y-79700000D03*
X137500000Y-96500000D03*
X137400000Y-88500000D03*
D19*
X159000000Y-112400000D02*
X137400000Y-112400000D01*
D20*
X181583000Y-99121000D02*
X191108000Y-99121000D01*
X181583000Y-99121000D02*
X166724000Y-99121000D01*
X196997000Y-99121000D02*
X202538000Y-93580000D01*
X186790000Y-104328000D02*
X181583000Y-99121000D01*
X191108000Y-99121000D02*
X196997000Y-99121000D01*
X198079000Y-99121000D02*
X202538000Y-103580000D01*
X191108000Y-99121000D02*
X198079000Y-99121000D01*
D19*
X166724000Y-104676000D02*
X166724000Y-99121000D01*
X159000000Y-112400000D02*
X166724000Y-104676000D01*
X137500000Y-96500000D02*
X154300000Y-79700000D01*
X154300000Y-79700000D02*
X174852000Y-79700000D01*
X135700000Y-114300000D02*
X142492000Y-121092000D01*
X135700000Y-90200000D02*
X135700000Y-114300000D01*
X144692000Y-121092000D02*
X142492000Y-121092000D01*
X137400000Y-88500000D02*
X135700000Y-90200000D01*
G04 #@! TA.AperFunction,Conductor*
G36*
X128982972Y-70814515D02*
G01*
X129034621Y-70855231D01*
X129063709Y-70914217D01*
X129064570Y-70979979D01*
X129037036Y-71039705D01*
X128986471Y-71081760D01*
X128797528Y-71178031D01*
X128481072Y-71383539D01*
X128352964Y-71487279D01*
X130599999Y-73734314D01*
X132847035Y-71487279D01*
X132718927Y-71383539D01*
X132402471Y-71178031D01*
X132213529Y-71081760D01*
X132162964Y-71039705D01*
X132135430Y-70979979D01*
X132136291Y-70914217D01*
X132165379Y-70855231D01*
X132217028Y-70814515D01*
X132281174Y-70800000D01*
X202818826Y-70800000D01*
X202882972Y-70814515D01*
X202934621Y-70855231D01*
X202963709Y-70914217D01*
X202964570Y-70979979D01*
X202937036Y-71039705D01*
X202886471Y-71081760D01*
X202697528Y-71178031D01*
X202381072Y-71383539D01*
X202252964Y-71487279D01*
X204499999Y-73734314D01*
X206747035Y-71487279D01*
X206618927Y-71383539D01*
X206302471Y-71178031D01*
X206113529Y-71081760D01*
X206062964Y-71039705D01*
X206035430Y-70979979D01*
X206036291Y-70914217D01*
X206065379Y-70855231D01*
X206117028Y-70814515D01*
X206181174Y-70800000D01*
X207038282Y-70800000D01*
X207095302Y-70811342D01*
X207143641Y-70843641D01*
X208055859Y-71755859D01*
X208088158Y-71804198D01*
X208099500Y-71861218D01*
X208099500Y-72827545D01*
X208083845Y-72894028D01*
X208040171Y-72946542D01*
X207977653Y-72974050D01*
X207909430Y-72970773D01*
X207849837Y-72937399D01*
X207811397Y-72880942D01*
X207793279Y-72833744D01*
X207621968Y-72497528D01*
X207416460Y-72181072D01*
X207312719Y-72052964D01*
X205065685Y-74300000D01*
X207312719Y-76547034D01*
X207416459Y-76418929D01*
X207621968Y-76102471D01*
X207793279Y-75766255D01*
X207811397Y-75719058D01*
X207849837Y-75662601D01*
X207909430Y-75629227D01*
X207977653Y-75625950D01*
X208040171Y-75653458D01*
X208083845Y-75705972D01*
X208099500Y-75772455D01*
X208099500Y-121727545D01*
X208083845Y-121794028D01*
X208040171Y-121846542D01*
X207977653Y-121874050D01*
X207909430Y-121870773D01*
X207849837Y-121837399D01*
X207811397Y-121780942D01*
X207793279Y-121733744D01*
X207621968Y-121397528D01*
X207416460Y-121081072D01*
X207312719Y-120952964D01*
X205065685Y-123200000D01*
X207312719Y-125447034D01*
X207416459Y-125318929D01*
X207621968Y-125002471D01*
X207793279Y-124666255D01*
X207811397Y-124619058D01*
X207849837Y-124562601D01*
X207909430Y-124529227D01*
X207977653Y-124525950D01*
X208040171Y-124553458D01*
X208083845Y-124605972D01*
X208099500Y-124672455D01*
X208099500Y-125688782D01*
X208088158Y-125745802D01*
X208055859Y-125794141D01*
X207144141Y-126705859D01*
X207095802Y-126738158D01*
X207038782Y-126749500D01*
X206084025Y-126749500D01*
X206019879Y-126734985D01*
X205968230Y-126694269D01*
X205939142Y-126635283D01*
X205938281Y-126569521D01*
X205965815Y-126509795D01*
X206016380Y-126467740D01*
X206302471Y-126321968D01*
X206618929Y-126116459D01*
X206747034Y-126012719D01*
X204500000Y-123765685D01*
X202252964Y-126012719D01*
X202381072Y-126116460D01*
X202697528Y-126321968D01*
X202983620Y-126467740D01*
X203034185Y-126509795D01*
X203061719Y-126569521D01*
X203060858Y-126635283D01*
X203031770Y-126694269D01*
X202980121Y-126734985D01*
X202915975Y-126749500D01*
X132184025Y-126749500D01*
X132119879Y-126734985D01*
X132068230Y-126694269D01*
X132039142Y-126635283D01*
X132038281Y-126569521D01*
X132065815Y-126509795D01*
X132116380Y-126467740D01*
X132402471Y-126321968D01*
X132718929Y-126116459D01*
X132847034Y-126012719D01*
X130600000Y-123765685D01*
X128352964Y-126012719D01*
X128481072Y-126116460D01*
X128797528Y-126321968D01*
X129083620Y-126467740D01*
X129134185Y-126509795D01*
X129161719Y-126569521D01*
X129160858Y-126635283D01*
X129131770Y-126694269D01*
X129080121Y-126734985D01*
X129015975Y-126749500D01*
X128161218Y-126749500D01*
X128104198Y-126738158D01*
X128055859Y-126705859D01*
X127144141Y-125794141D01*
X127111842Y-125745802D01*
X127100500Y-125688782D01*
X127100500Y-124882155D01*
X127115015Y-124818009D01*
X127155731Y-124766360D01*
X127214717Y-124737272D01*
X127280479Y-124736411D01*
X127340206Y-124763945D01*
X127382260Y-124814511D01*
X127478028Y-125002468D01*
X127683539Y-125318927D01*
X127787279Y-125447034D01*
X130034315Y-123200000D01*
X131165685Y-123200000D01*
X133412719Y-125447034D01*
X133516459Y-125318929D01*
X133721968Y-125002471D01*
X133893279Y-124666255D01*
X134028500Y-124313992D01*
X134126161Y-123949512D01*
X134185191Y-123576816D01*
X134204939Y-123200000D01*
X200895060Y-123200000D01*
X200914808Y-123576816D01*
X200973838Y-123949512D01*
X201071499Y-124313992D01*
X201206720Y-124666255D01*
X201378031Y-125002471D01*
X201583539Y-125318927D01*
X201687279Y-125447034D01*
X203934315Y-123200000D01*
X201687279Y-120952964D01*
X201583539Y-121081072D01*
X201378031Y-121397528D01*
X201206720Y-121733744D01*
X201071499Y-122086007D01*
X200973838Y-122450487D01*
X200914808Y-122823183D01*
X200895060Y-123200000D01*
X134204939Y-123200000D01*
X134185191Y-122823183D01*
X134126161Y-122450487D01*
X134028500Y-122086007D01*
X133893279Y-121733744D01*
X133721968Y-121397528D01*
X133516460Y-121081072D01*
X133412719Y-120952964D01*
X131165685Y-123200000D01*
X130034315Y-123200000D01*
X127787279Y-120952964D01*
X127683539Y-121081072D01*
X127478028Y-121397531D01*
X127382260Y-121585489D01*
X127340206Y-121636055D01*
X127280479Y-121663589D01*
X127214717Y-121662728D01*
X127155731Y-121633640D01*
X127115015Y-121581991D01*
X127100500Y-121517845D01*
X127100500Y-120387279D01*
X128352964Y-120387279D01*
X130599999Y-122634314D01*
X132847035Y-120387279D01*
X132718927Y-120283539D01*
X132402471Y-120078031D01*
X132066255Y-119906720D01*
X131713992Y-119771499D01*
X131349512Y-119673838D01*
X130976816Y-119614808D01*
X130600000Y-119595060D01*
X130223183Y-119614808D01*
X129850487Y-119673838D01*
X129486007Y-119771499D01*
X129133744Y-119906720D01*
X128797528Y-120078031D01*
X128481072Y-120283539D01*
X128352964Y-120387279D01*
X127100500Y-120387279D01*
X127100500Y-114300003D01*
X134644416Y-114300003D01*
X134664699Y-114505932D01*
X134724767Y-114703953D01*
X134823011Y-114887753D01*
X134826959Y-114892109D01*
X134953588Y-115046409D01*
X134988017Y-115074663D01*
X134998853Y-115084484D01*
X141707515Y-121793146D01*
X141717334Y-121803980D01*
X141745590Y-121838410D01*
X141785677Y-121871308D01*
X141905550Y-121969685D01*
X142088046Y-122067232D01*
X142286066Y-122127300D01*
X142302879Y-122128956D01*
X142457105Y-122144147D01*
X142525280Y-122168540D01*
X142573906Y-122222191D01*
X142591500Y-122292429D01*
X142591500Y-122436954D01*
X142606632Y-122571255D01*
X142666211Y-122741522D01*
X142762184Y-122894262D01*
X142889738Y-123021816D01*
X143042478Y-123117789D01*
X143212745Y-123177368D01*
X143334696Y-123191108D01*
X143347045Y-123192500D01*
X143347046Y-123192500D01*
X146036954Y-123192500D01*
X146036955Y-123192500D01*
X146048264Y-123191225D01*
X146171255Y-123177368D01*
X146341522Y-123117789D01*
X146494262Y-123021816D01*
X146621816Y-122894262D01*
X146717789Y-122741522D01*
X146777368Y-122571255D01*
X146780356Y-122544736D01*
X148804949Y-122544736D01*
X148839614Y-122568371D01*
X149069182Y-122678924D01*
X149312651Y-122754024D01*
X149564604Y-122792000D01*
X149819396Y-122792000D01*
X150071348Y-122754024D01*
X150314817Y-122678924D01*
X150544385Y-122568370D01*
X150579049Y-122544735D01*
X149692000Y-121657685D01*
X148804949Y-122544735D01*
X148804949Y-122544736D01*
X146780356Y-122544736D01*
X146792500Y-122436954D01*
X146792500Y-121092000D01*
X147987232Y-121092000D01*
X148006273Y-121346082D01*
X148062969Y-121594487D01*
X148156056Y-121831668D01*
X148240458Y-121977855D01*
X149126314Y-121092000D01*
X150257685Y-121092000D01*
X151143541Y-121977856D01*
X151227942Y-121831671D01*
X151321030Y-121594487D01*
X151377726Y-121346082D01*
X151396767Y-121092000D01*
X152586592Y-121092000D01*
X152606202Y-121378686D01*
X152664666Y-121660032D01*
X152664667Y-121660035D01*
X152760895Y-121930796D01*
X152785280Y-121977856D01*
X152893099Y-122185936D01*
X153058811Y-122420698D01*
X153254947Y-122630708D01*
X153477853Y-122812055D01*
X153723375Y-122961361D01*
X153986942Y-123075844D01*
X154263642Y-123153371D01*
X154405981Y-123172935D01*
X154548321Y-123192500D01*
X154548322Y-123192500D01*
X154835678Y-123192500D01*
X154835679Y-123192500D01*
X154945777Y-123177367D01*
X155120358Y-123153371D01*
X155397058Y-123075844D01*
X155660625Y-122961361D01*
X155906147Y-122812055D01*
X156129053Y-122630708D01*
X156209345Y-122544736D01*
X158804949Y-122544736D01*
X158839614Y-122568371D01*
X159069182Y-122678924D01*
X159312651Y-122754024D01*
X159564604Y-122792000D01*
X159819396Y-122792000D01*
X160071348Y-122754024D01*
X160314817Y-122678924D01*
X160544385Y-122568370D01*
X160579049Y-122544735D01*
X159692000Y-121657685D01*
X158804949Y-122544735D01*
X158804949Y-122544736D01*
X156209345Y-122544736D01*
X156325189Y-122420698D01*
X156490901Y-122185936D01*
X156623104Y-121930797D01*
X156719334Y-121660032D01*
X156777798Y-121378686D01*
X156797408Y-121092000D01*
X157987232Y-121092000D01*
X158006273Y-121346082D01*
X158062969Y-121594487D01*
X158156056Y-121831668D01*
X158240458Y-121977855D01*
X159126314Y-121092000D01*
X160257685Y-121092000D01*
X161143541Y-121977856D01*
X161227942Y-121831671D01*
X161321030Y-121594487D01*
X161377726Y-121346082D01*
X161396767Y-121092000D01*
X162586592Y-121092000D01*
X162606202Y-121378686D01*
X162664666Y-121660032D01*
X162664667Y-121660035D01*
X162760895Y-121930796D01*
X162785280Y-121977856D01*
X162893099Y-122185936D01*
X163058811Y-122420698D01*
X163254947Y-122630708D01*
X163477853Y-122812055D01*
X163723375Y-122961361D01*
X163986942Y-123075844D01*
X164263642Y-123153371D01*
X164405981Y-123172935D01*
X164548321Y-123192500D01*
X164548322Y-123192500D01*
X164835678Y-123192500D01*
X164835679Y-123192500D01*
X164945777Y-123177367D01*
X165120358Y-123153371D01*
X165397058Y-123075844D01*
X165660625Y-122961361D01*
X165906147Y-122812055D01*
X166129053Y-122630708D01*
X166209345Y-122544736D01*
X168804949Y-122544736D01*
X168839614Y-122568371D01*
X169069182Y-122678924D01*
X169312651Y-122754024D01*
X169564604Y-122792000D01*
X169819396Y-122792000D01*
X170071348Y-122754024D01*
X170314817Y-122678924D01*
X170544385Y-122568370D01*
X170579049Y-122544735D01*
X169692000Y-121657685D01*
X168804949Y-122544735D01*
X168804949Y-122544736D01*
X166209345Y-122544736D01*
X166325189Y-122420698D01*
X166490901Y-122185936D01*
X166623104Y-121930797D01*
X166719334Y-121660032D01*
X166777798Y-121378686D01*
X166797408Y-121092000D01*
X167987232Y-121092000D01*
X168006273Y-121346082D01*
X168062969Y-121594487D01*
X168156056Y-121831668D01*
X168240458Y-121977855D01*
X169126314Y-121092000D01*
X170257685Y-121092000D01*
X171143541Y-121977856D01*
X171227942Y-121831671D01*
X171321030Y-121594487D01*
X171377726Y-121346082D01*
X171396767Y-121092000D01*
X171377726Y-120837917D01*
X171321030Y-120589512D01*
X171241659Y-120387279D01*
X202252964Y-120387279D01*
X204499999Y-122634314D01*
X206747035Y-120387279D01*
X206618927Y-120283539D01*
X206302471Y-120078031D01*
X205966255Y-119906720D01*
X205613992Y-119771499D01*
X205249512Y-119673838D01*
X204876816Y-119614808D01*
X204500000Y-119595060D01*
X204123183Y-119614808D01*
X203750487Y-119673838D01*
X203386007Y-119771499D01*
X203033744Y-119906720D01*
X202697528Y-120078031D01*
X202381072Y-120283539D01*
X202252964Y-120387279D01*
X171241659Y-120387279D01*
X171227943Y-120352330D01*
X171143540Y-120206143D01*
X170257685Y-121092000D01*
X169126314Y-121092000D01*
X168240458Y-120206143D01*
X168156057Y-120352330D01*
X168062969Y-120589512D01*
X168006273Y-120837917D01*
X167987232Y-121092000D01*
X166797408Y-121092000D01*
X166777798Y-120805314D01*
X166719334Y-120523968D01*
X166623104Y-120253203D01*
X166490901Y-119998064D01*
X166325189Y-119763302D01*
X166209344Y-119639263D01*
X168804949Y-119639263D01*
X169691999Y-120526313D01*
X170579050Y-119639262D01*
X170544387Y-119615629D01*
X170314817Y-119505076D01*
X170071348Y-119429975D01*
X169819396Y-119392000D01*
X169564604Y-119392000D01*
X169312651Y-119429975D01*
X169069179Y-119505076D01*
X168839617Y-119615627D01*
X168804949Y-119639263D01*
X166209344Y-119639263D01*
X166129053Y-119553292D01*
X165906147Y-119371945D01*
X165906144Y-119371943D01*
X165660631Y-119222642D01*
X165660627Y-119222640D01*
X165660625Y-119222639D01*
X165397058Y-119108156D01*
X165337436Y-119091451D01*
X165120356Y-119030628D01*
X164835679Y-118991500D01*
X164835678Y-118991500D01*
X164548322Y-118991500D01*
X164548321Y-118991500D01*
X164263643Y-119030628D01*
X163986945Y-119108155D01*
X163986943Y-119108155D01*
X163986942Y-119108156D01*
X163862557Y-119162184D01*
X163723368Y-119222642D01*
X163477855Y-119371943D01*
X163254947Y-119553291D01*
X163058812Y-119763300D01*
X162893099Y-119998063D01*
X162760895Y-120253203D01*
X162664667Y-120523964D01*
X162606202Y-120805315D01*
X162587340Y-121081072D01*
X162586592Y-121092000D01*
X161396767Y-121092000D01*
X161377726Y-120837917D01*
X161321030Y-120589512D01*
X161227943Y-120352330D01*
X161143540Y-120206143D01*
X160257685Y-121092000D01*
X159126314Y-121092000D01*
X158240458Y-120206143D01*
X158156057Y-120352330D01*
X158062969Y-120589512D01*
X158006273Y-120837917D01*
X157987232Y-121092000D01*
X156797408Y-121092000D01*
X156777798Y-120805314D01*
X156719334Y-120523968D01*
X156623104Y-120253203D01*
X156490901Y-119998064D01*
X156325189Y-119763302D01*
X156209344Y-119639263D01*
X158804949Y-119639263D01*
X159691999Y-120526313D01*
X160579050Y-119639262D01*
X160544387Y-119615629D01*
X160314817Y-119505076D01*
X160071348Y-119429975D01*
X159819396Y-119392000D01*
X159564604Y-119392000D01*
X159312651Y-119429975D01*
X159069179Y-119505076D01*
X158839617Y-119615627D01*
X158804949Y-119639263D01*
X156209344Y-119639263D01*
X156129053Y-119553292D01*
X155906147Y-119371945D01*
X155906144Y-119371943D01*
X155660631Y-119222642D01*
X155660627Y-119222640D01*
X155660625Y-119222639D01*
X155397058Y-119108156D01*
X155337436Y-119091451D01*
X155120356Y-119030628D01*
X154835679Y-118991500D01*
X154835678Y-118991500D01*
X154548322Y-118991500D01*
X154548321Y-118991500D01*
X154263643Y-119030628D01*
X153986945Y-119108155D01*
X153986943Y-119108155D01*
X153986942Y-119108156D01*
X153862557Y-119162184D01*
X153723368Y-119222642D01*
X153477855Y-119371943D01*
X153254947Y-119553291D01*
X153058812Y-119763300D01*
X152893099Y-119998063D01*
X152760895Y-120253203D01*
X152664667Y-120523964D01*
X152606202Y-120805315D01*
X152587340Y-121081072D01*
X152586592Y-121092000D01*
X151396767Y-121092000D01*
X151377726Y-120837917D01*
X151321030Y-120589512D01*
X151227943Y-120352330D01*
X151143540Y-120206143D01*
X150257685Y-121092000D01*
X149126314Y-121092000D01*
X148240458Y-120206143D01*
X148156057Y-120352330D01*
X148062969Y-120589512D01*
X148006273Y-120837917D01*
X147987232Y-121092000D01*
X146792500Y-121092000D01*
X146792500Y-119747046D01*
X146780356Y-119639263D01*
X148804949Y-119639263D01*
X149691999Y-120526313D01*
X150579050Y-119639262D01*
X150544387Y-119615629D01*
X150314817Y-119505076D01*
X150071348Y-119429975D01*
X149819396Y-119392000D01*
X149564604Y-119392000D01*
X149312651Y-119429975D01*
X149069179Y-119505076D01*
X148839617Y-119615627D01*
X148804949Y-119639263D01*
X146780356Y-119639263D01*
X146777368Y-119612745D01*
X146717789Y-119442478D01*
X146621816Y-119289738D01*
X146494262Y-119162184D01*
X146341522Y-119066211D01*
X146171255Y-119006632D01*
X146081721Y-118996544D01*
X146036955Y-118991500D01*
X146036954Y-118991500D01*
X143347046Y-118991500D01*
X143347045Y-118991500D01*
X143279895Y-118999065D01*
X143212745Y-119006632D01*
X143144166Y-119030629D01*
X143042477Y-119066211D01*
X142889737Y-119162184D01*
X142762184Y-119289737D01*
X142666210Y-119442479D01*
X142656889Y-119469116D01*
X142615535Y-119531004D01*
X142549405Y-119565167D01*
X142475002Y-119563078D01*
X142410892Y-119525261D01*
X136794141Y-113908510D01*
X136761842Y-113860171D01*
X136750500Y-113803151D01*
X136750500Y-113653333D01*
X136767690Y-113583855D01*
X136815295Y-113530408D01*
X136882329Y-113505326D01*
X136953325Y-113514395D01*
X136994660Y-113530408D01*
X137070060Y-113559618D01*
X137288757Y-113600500D01*
X137511243Y-113600500D01*
X137729940Y-113559618D01*
X137846674Y-113514395D01*
X137937397Y-113479249D01*
X137937398Y-113479247D01*
X137937401Y-113479247D01*
X137947784Y-113472818D01*
X137985446Y-113456188D01*
X138026223Y-113450500D01*
X158941067Y-113450500D01*
X158955671Y-113451217D01*
X158964475Y-113452084D01*
X159000000Y-113455583D01*
X159000001Y-113455582D01*
X159000003Y-113455583D01*
X159123560Y-113443413D01*
X159205934Y-113435300D01*
X159403955Y-113375232D01*
X159586450Y-113277685D01*
X159706323Y-113179308D01*
X159746410Y-113146410D01*
X159774665Y-113111979D01*
X159784475Y-113101154D01*
X167425154Y-105460475D01*
X167435966Y-105450675D01*
X167470410Y-105422410D01*
X167601685Y-105262450D01*
X167699232Y-105079954D01*
X167759300Y-104881934D01*
X167761801Y-104856535D01*
X167774501Y-104727608D01*
X167774500Y-104727609D01*
X167774918Y-104723362D01*
X167779583Y-104676000D01*
X167775217Y-104631671D01*
X167774500Y-104617067D01*
X167774500Y-102790000D01*
X169281001Y-102790000D01*
X169281001Y-103896478D01*
X169295835Y-103990148D01*
X169353358Y-104103044D01*
X169442954Y-104192640D01*
X169555851Y-104250164D01*
X169649521Y-104265000D01*
X171531000Y-104265000D01*
X171531000Y-102790000D01*
X172331000Y-102790000D01*
X172331000Y-104264999D01*
X174212478Y-104264999D01*
X174306148Y-104250164D01*
X174419044Y-104192641D01*
X174508640Y-104103045D01*
X174566164Y-103990148D01*
X174581000Y-103896479D01*
X174581000Y-102790000D01*
X172331000Y-102790000D01*
X171531000Y-102790000D01*
X169281001Y-102790000D01*
X167774500Y-102790000D01*
X167774500Y-100820500D01*
X167785842Y-100763480D01*
X167818141Y-100715141D01*
X167866480Y-100682842D01*
X167923500Y-100671500D01*
X169140124Y-100671500D01*
X169202504Y-100685187D01*
X169253424Y-100723732D01*
X169283530Y-100780055D01*
X169287290Y-100843809D01*
X169281000Y-100883523D01*
X169281000Y-101990000D01*
X174580999Y-101990000D01*
X174580999Y-100883523D01*
X174574709Y-100843808D01*
X174578469Y-100780055D01*
X174608575Y-100723732D01*
X174659495Y-100685187D01*
X174721875Y-100671500D01*
X180879044Y-100671500D01*
X180936064Y-100682842D01*
X180984403Y-100715141D01*
X184817610Y-104548348D01*
X184843025Y-104582299D01*
X184857846Y-104622035D01*
X184913729Y-104878926D01*
X184988709Y-105079954D01*
X185011231Y-105140337D01*
X185059930Y-105229522D01*
X185144942Y-105385211D01*
X185172787Y-105422407D01*
X185312145Y-105608568D01*
X185509432Y-105805855D01*
X185687915Y-105939465D01*
X185732788Y-105973057D01*
X185804689Y-106012318D01*
X185977663Y-106106769D01*
X186135192Y-106165524D01*
X186239073Y-106204270D01*
X186239076Y-106204270D01*
X186239077Y-106204271D01*
X186511706Y-106263578D01*
X186790000Y-106283482D01*
X187068294Y-106263578D01*
X187340923Y-106204271D01*
X187342216Y-106203789D01*
X187366042Y-106194901D01*
X187602337Y-106106769D01*
X187847213Y-105973056D01*
X188070568Y-105805855D01*
X188267855Y-105608568D01*
X188331945Y-105522954D01*
X192459500Y-105522954D01*
X192474632Y-105657255D01*
X192534211Y-105827522D01*
X192630184Y-105980262D01*
X192757738Y-106107816D01*
X192910478Y-106203789D01*
X193080745Y-106263368D01*
X193202696Y-106277108D01*
X193215045Y-106278500D01*
X193215046Y-106278500D01*
X195604954Y-106278500D01*
X195604955Y-106278500D01*
X195616264Y-106277225D01*
X195739255Y-106263368D01*
X195909522Y-106203789D01*
X196062262Y-106107816D01*
X196189816Y-105980262D01*
X196285789Y-105827522D01*
X196345368Y-105657255D01*
X196360500Y-105522954D01*
X196360500Y-103133046D01*
X196345368Y-102998745D01*
X196285789Y-102828478D01*
X196189816Y-102675738D01*
X196062262Y-102548184D01*
X195909522Y-102452211D01*
X195739255Y-102392632D01*
X195649720Y-102382543D01*
X195604955Y-102377500D01*
X195604954Y-102377500D01*
X193215046Y-102377500D01*
X193215045Y-102377500D01*
X193147895Y-102385065D01*
X193080745Y-102392632D01*
X192995611Y-102422421D01*
X192910477Y-102452211D01*
X192757737Y-102548184D01*
X192630184Y-102675737D01*
X192534211Y-102828477D01*
X192534211Y-102828478D01*
X192474632Y-102998745D01*
X192459500Y-103133046D01*
X192459500Y-105522954D01*
X188331945Y-105522954D01*
X188435056Y-105385213D01*
X188568769Y-105140337D01*
X188666271Y-104878923D01*
X188725578Y-104606294D01*
X188745482Y-104328000D01*
X188725578Y-104049706D01*
X188666271Y-103777077D01*
X188568769Y-103515663D01*
X188435056Y-103270787D01*
X188267855Y-103047432D01*
X188070568Y-102850145D01*
X187936956Y-102750124D01*
X187847211Y-102682942D01*
X187703407Y-102604419D01*
X187602337Y-102549231D01*
X187577217Y-102539861D01*
X187340926Y-102451729D01*
X187084035Y-102395846D01*
X187044299Y-102381025D01*
X187010348Y-102355610D01*
X185580597Y-100925859D01*
X185544249Y-100866544D01*
X185538790Y-100797191D01*
X185565412Y-100732920D01*
X185618311Y-100687740D01*
X185685956Y-100671500D01*
X190982831Y-100671500D01*
X191170481Y-100671500D01*
X196979910Y-100671500D01*
X196982909Y-100671529D01*
X197090921Y-100673705D01*
X197096043Y-100672978D01*
X197116979Y-100671500D01*
X197375044Y-100671500D01*
X197432064Y-100682842D01*
X197480403Y-100715141D01*
X200393859Y-103628598D01*
X200426158Y-103676937D01*
X200437500Y-103733957D01*
X200437500Y-104924954D01*
X200452632Y-105059255D01*
X200512211Y-105229522D01*
X200608184Y-105382262D01*
X200735738Y-105509816D01*
X200888478Y-105605789D01*
X201058745Y-105665368D01*
X201180696Y-105679108D01*
X201193045Y-105680500D01*
X201193046Y-105680500D01*
X203882954Y-105680500D01*
X203882955Y-105680500D01*
X203894264Y-105679225D01*
X204017255Y-105665368D01*
X204187522Y-105605789D01*
X204340262Y-105509816D01*
X204467816Y-105382262D01*
X204563789Y-105229522D01*
X204623368Y-105059255D01*
X204638500Y-104924954D01*
X204638500Y-102235046D01*
X204623368Y-102100745D01*
X204563789Y-101930478D01*
X204467816Y-101777738D01*
X204340262Y-101650184D01*
X204187522Y-101554211D01*
X204017255Y-101494632D01*
X203927720Y-101484543D01*
X203882955Y-101479500D01*
X203882954Y-101479500D01*
X202691956Y-101479500D01*
X202634936Y-101468158D01*
X202586597Y-101435859D01*
X201305430Y-100154692D01*
X201268138Y-100092363D01*
X201264743Y-100019809D01*
X201296054Y-99954271D01*
X201354628Y-99911322D01*
X201426549Y-99901169D01*
X201494724Y-99926223D01*
X201685618Y-100056372D01*
X201915182Y-100166924D01*
X202158651Y-100242024D01*
X202410604Y-100280000D01*
X202665396Y-100280000D01*
X202917348Y-100242024D01*
X203160817Y-100166924D01*
X203390385Y-100056370D01*
X203425049Y-100032735D01*
X202077673Y-98685359D01*
X202045374Y-98637020D01*
X202034032Y-98580000D01*
X203103685Y-98580000D01*
X203989541Y-99465856D01*
X204073942Y-99319671D01*
X204167030Y-99082487D01*
X204223726Y-98834082D01*
X204242767Y-98579999D01*
X204223726Y-98325917D01*
X204167030Y-98077512D01*
X204073943Y-97840330D01*
X203989540Y-97694143D01*
X203103685Y-98580000D01*
X202034032Y-98580000D01*
X202045374Y-98522980D01*
X202077673Y-98474641D01*
X202538000Y-98014315D01*
X203425049Y-97127263D01*
X203390383Y-97103627D01*
X203160817Y-96993076D01*
X202917348Y-96917975D01*
X202665396Y-96880000D01*
X202410604Y-96880000D01*
X202158651Y-96917975D01*
X201915182Y-96993075D01*
X201685614Y-97103629D01*
X201494725Y-97233774D01*
X201426550Y-97258828D01*
X201354630Y-97248675D01*
X201296055Y-97205726D01*
X201264745Y-97140187D01*
X201268140Y-97067634D01*
X201305429Y-97005308D01*
X202586614Y-95724124D01*
X202625689Y-95696040D01*
X202671681Y-95681874D01*
X202681677Y-95680500D01*
X202681678Y-95680500D01*
X202966358Y-95641371D01*
X203243058Y-95563844D01*
X203506625Y-95449361D01*
X203752147Y-95300055D01*
X203975053Y-95118708D01*
X204171189Y-94908698D01*
X204336901Y-94673936D01*
X204469104Y-94418797D01*
X204565334Y-94148032D01*
X204623798Y-93866686D01*
X204643408Y-93580000D01*
X204623798Y-93293314D01*
X204565334Y-93011968D01*
X204469104Y-92741203D01*
X204336901Y-92486064D01*
X204171189Y-92251302D01*
X203975053Y-92041292D01*
X203752147Y-91859945D01*
X203752144Y-91859943D01*
X203506631Y-91710642D01*
X203506627Y-91710640D01*
X203506625Y-91710639D01*
X203243058Y-91596156D01*
X203183436Y-91579451D01*
X202966356Y-91518628D01*
X202681679Y-91479500D01*
X202681678Y-91479500D01*
X202394322Y-91479500D01*
X202394321Y-91479500D01*
X202109643Y-91518628D01*
X201832945Y-91596155D01*
X201832943Y-91596155D01*
X201832942Y-91596156D01*
X201600451Y-91697140D01*
X201569368Y-91710642D01*
X201323855Y-91859943D01*
X201100947Y-92041291D01*
X200904812Y-92251300D01*
X200739099Y-92486063D01*
X200606895Y-92741203D01*
X200510667Y-93011964D01*
X200452202Y-93293315D01*
X200442814Y-93430550D01*
X200429792Y-93482068D01*
X200399520Y-93525740D01*
X196398403Y-97526859D01*
X196350064Y-97559158D01*
X196293044Y-97570500D01*
X191233169Y-97570500D01*
X181708169Y-97570500D01*
X181634339Y-97570500D01*
X181625343Y-97570228D01*
X181617358Y-97569745D01*
X181551676Y-97565772D01*
X181551675Y-97565772D01*
X181512350Y-97569745D01*
X181497373Y-97570500D01*
X166661519Y-97570500D01*
X166599170Y-97575533D01*
X166474469Y-97585600D01*
X166231411Y-97645508D01*
X166001103Y-97743634D01*
X165789517Y-97877433D01*
X165602139Y-98043434D01*
X165443811Y-98237350D01*
X165318641Y-98454153D01*
X165229872Y-98688216D01*
X165179797Y-98933502D01*
X165169718Y-99183631D01*
X165199893Y-99432153D01*
X165269540Y-99672603D01*
X165376858Y-99898772D01*
X165415167Y-99954271D01*
X165519068Y-100104797D01*
X165631959Y-100222328D01*
X165662725Y-100269913D01*
X165673500Y-100325544D01*
X165673500Y-104179151D01*
X165662158Y-104236171D01*
X165629859Y-104284510D01*
X158608510Y-111305859D01*
X158560171Y-111338158D01*
X158503151Y-111349500D01*
X138026223Y-111349500D01*
X137985446Y-111343812D01*
X137947784Y-111327181D01*
X137943570Y-111324572D01*
X137937397Y-111320750D01*
X137729942Y-111240382D01*
X137511243Y-111199500D01*
X137288757Y-111199500D01*
X137070057Y-111240382D01*
X136953325Y-111285605D01*
X136882329Y-111294674D01*
X136815295Y-111269592D01*
X136767690Y-111216145D01*
X136750500Y-111146667D01*
X136750500Y-102800000D01*
X150253001Y-102800000D01*
X150253001Y-103906478D01*
X150267835Y-104000148D01*
X150325358Y-104113044D01*
X150414954Y-104202640D01*
X150527851Y-104260164D01*
X150621521Y-104275000D01*
X152503000Y-104275000D01*
X152503000Y-102800000D01*
X153303000Y-102800000D01*
X153303000Y-104274999D01*
X155184478Y-104274999D01*
X155278148Y-104260164D01*
X155391044Y-104202641D01*
X155480640Y-104113045D01*
X155538164Y-104000148D01*
X155553000Y-103906479D01*
X155553000Y-102800000D01*
X153303000Y-102800000D01*
X152503000Y-102800000D01*
X150253001Y-102800000D01*
X136750500Y-102800000D01*
X136750500Y-102000000D01*
X150253000Y-102000000D01*
X152503000Y-102000000D01*
X152503000Y-100525001D01*
X150621522Y-100525001D01*
X150527851Y-100539835D01*
X150414955Y-100597358D01*
X150325359Y-100686954D01*
X150267835Y-100799851D01*
X150253000Y-100893521D01*
X150253000Y-102000000D01*
X136750500Y-102000000D01*
X136750500Y-100525000D01*
X153303000Y-100525000D01*
X153303000Y-102000000D01*
X155552999Y-102000000D01*
X155552999Y-100893522D01*
X155538164Y-100799851D01*
X155480641Y-100686955D01*
X155391045Y-100597359D01*
X155278148Y-100539835D01*
X155184479Y-100525000D01*
X153303000Y-100525000D01*
X136750500Y-100525000D01*
X136750500Y-97714593D01*
X136767690Y-97645115D01*
X136815295Y-97591668D01*
X136882329Y-97566586D01*
X136953325Y-97575655D01*
X137170057Y-97659617D01*
X137170060Y-97659618D01*
X137388757Y-97700500D01*
X137611243Y-97700500D01*
X137829940Y-97659618D01*
X138037401Y-97579247D01*
X138226562Y-97462124D01*
X138390981Y-97312236D01*
X138525058Y-97134689D01*
X138624229Y-96935528D01*
X138643116Y-96869141D01*
X138681067Y-96804562D01*
X141317630Y-94167999D01*
X192454517Y-94167999D01*
X192474421Y-94446291D01*
X192533729Y-94718926D01*
X192621861Y-94955217D01*
X192631231Y-94980337D01*
X192686419Y-95081407D01*
X192764942Y-95225211D01*
X192820970Y-95300055D01*
X192932145Y-95448568D01*
X193129432Y-95645855D01*
X193307915Y-95779465D01*
X193352788Y-95813057D01*
X193424689Y-95852318D01*
X193597663Y-95946769D01*
X193755192Y-96005524D01*
X193859073Y-96044270D01*
X193859076Y-96044270D01*
X193859077Y-96044271D01*
X194131706Y-96103578D01*
X194410000Y-96123482D01*
X194688294Y-96103578D01*
X194960923Y-96044271D01*
X195222337Y-95946769D01*
X195467213Y-95813056D01*
X195690568Y-95645855D01*
X195887855Y-95448568D01*
X196055056Y-95225213D01*
X196188769Y-94980337D01*
X196286271Y-94718923D01*
X196345578Y-94446294D01*
X196365482Y-94168000D01*
X196345578Y-93889706D01*
X196286271Y-93617077D01*
X196188769Y-93355663D01*
X196055056Y-93110787D01*
X195887855Y-92887432D01*
X195690568Y-92690145D01*
X195556956Y-92590124D01*
X195467211Y-92522942D01*
X195323407Y-92444419D01*
X195222337Y-92389231D01*
X195197217Y-92379861D01*
X194960926Y-92291729D01*
X194688291Y-92232421D01*
X194410000Y-92212517D01*
X194131708Y-92232421D01*
X193859073Y-92291729D01*
X193597665Y-92389230D01*
X193352788Y-92522942D01*
X193129432Y-92690145D01*
X192932145Y-92887432D01*
X192764942Y-93110788D01*
X192631230Y-93355665D01*
X192533729Y-93617073D01*
X192474421Y-93889708D01*
X192454517Y-94167999D01*
X141317630Y-94167999D01*
X146397629Y-89088000D01*
X184834517Y-89088000D01*
X184854421Y-89366291D01*
X184913729Y-89638926D01*
X185001861Y-89875217D01*
X185011231Y-89900337D01*
X185062411Y-89994066D01*
X185144942Y-90145211D01*
X185185954Y-90199996D01*
X185312145Y-90368568D01*
X185509432Y-90565855D01*
X185684420Y-90696849D01*
X185732788Y-90733057D01*
X185804689Y-90772318D01*
X185977663Y-90866769D01*
X186135192Y-90925524D01*
X186239073Y-90964270D01*
X186239076Y-90964270D01*
X186239077Y-90964271D01*
X186511706Y-91023578D01*
X186790000Y-91043482D01*
X187068294Y-91023578D01*
X187340923Y-90964271D01*
X187602337Y-90866769D01*
X187847213Y-90733056D01*
X188070568Y-90565855D01*
X188267855Y-90368568D01*
X188435056Y-90145213D01*
X188496473Y-90032736D01*
X201650949Y-90032736D01*
X201685614Y-90056371D01*
X201915182Y-90166924D01*
X202158651Y-90242024D01*
X202410604Y-90280000D01*
X202665396Y-90280000D01*
X202917348Y-90242024D01*
X203160817Y-90166924D01*
X203390385Y-90056370D01*
X203425049Y-90032735D01*
X202538000Y-89145685D01*
X201650949Y-90032735D01*
X201650949Y-90032736D01*
X188496473Y-90032736D01*
X188568769Y-89900337D01*
X188666271Y-89638923D01*
X188725578Y-89366294D01*
X188745482Y-89088000D01*
X188725578Y-88809706D01*
X188675608Y-88579999D01*
X200833232Y-88579999D01*
X200852273Y-88834082D01*
X200908969Y-89082487D01*
X201002056Y-89319668D01*
X201086458Y-89465855D01*
X201972314Y-88580000D01*
X203103685Y-88580000D01*
X203989541Y-89465856D01*
X204073942Y-89319671D01*
X204167030Y-89082487D01*
X204223726Y-88834082D01*
X204242767Y-88579999D01*
X204223726Y-88325917D01*
X204167030Y-88077512D01*
X204073943Y-87840330D01*
X203989540Y-87694143D01*
X203103685Y-88580000D01*
X201972314Y-88580000D01*
X201086458Y-87694143D01*
X201002057Y-87840330D01*
X200908969Y-88077512D01*
X200852273Y-88325917D01*
X200833232Y-88579999D01*
X188675608Y-88579999D01*
X188666271Y-88537077D01*
X188568769Y-88275663D01*
X188460570Y-88077512D01*
X188435057Y-88030788D01*
X188401465Y-87985915D01*
X188267855Y-87807432D01*
X188070568Y-87610145D01*
X187936956Y-87510124D01*
X187847211Y-87442942D01*
X187695925Y-87360334D01*
X187602337Y-87309231D01*
X187576247Y-87299500D01*
X187340926Y-87211729D01*
X187068291Y-87152421D01*
X186790000Y-87132517D01*
X186511708Y-87152421D01*
X186239073Y-87211729D01*
X185977665Y-87309230D01*
X185732788Y-87442942D01*
X185509432Y-87610145D01*
X185312145Y-87807432D01*
X185144942Y-88030788D01*
X185011230Y-88275665D01*
X184913729Y-88537073D01*
X184854421Y-88809708D01*
X184834517Y-89088000D01*
X146397629Y-89088000D01*
X148937630Y-86547999D01*
X192454517Y-86547999D01*
X192474421Y-86826291D01*
X192533729Y-87098926D01*
X192621861Y-87335217D01*
X192631231Y-87360337D01*
X192664220Y-87420752D01*
X192764942Y-87605211D01*
X192768636Y-87610145D01*
X192932145Y-87828568D01*
X193129432Y-88025855D01*
X193307915Y-88159465D01*
X193352788Y-88193057D01*
X193357147Y-88195437D01*
X193597663Y-88326769D01*
X193755192Y-88385524D01*
X193859073Y-88424270D01*
X193859076Y-88424270D01*
X193859077Y-88424271D01*
X194131706Y-88483578D01*
X194410000Y-88503482D01*
X194688294Y-88483578D01*
X194960923Y-88424271D01*
X195222337Y-88326769D01*
X195467213Y-88193056D01*
X195690568Y-88025855D01*
X195887855Y-87828568D01*
X196055056Y-87605213D01*
X196188769Y-87360337D01*
X196275701Y-87127263D01*
X201650949Y-87127263D01*
X202537999Y-88014313D01*
X203425050Y-87127262D01*
X203390387Y-87103629D01*
X203160817Y-86993076D01*
X202917348Y-86917975D01*
X202665396Y-86880000D01*
X202410604Y-86880000D01*
X202158651Y-86917975D01*
X201915179Y-86993076D01*
X201685617Y-87103627D01*
X201650949Y-87127263D01*
X196275701Y-87127263D01*
X196286271Y-87098923D01*
X196345578Y-86826294D01*
X196365482Y-86548000D01*
X196345578Y-86269706D01*
X196286271Y-85997077D01*
X196188769Y-85735663D01*
X196055056Y-85490787D01*
X195887855Y-85267432D01*
X195690568Y-85070145D01*
X195556956Y-84970124D01*
X195467211Y-84902942D01*
X195323407Y-84824419D01*
X195222337Y-84769231D01*
X195197217Y-84759861D01*
X194960926Y-84671729D01*
X194688291Y-84612421D01*
X194410000Y-84592517D01*
X194131708Y-84612421D01*
X193859073Y-84671729D01*
X193597665Y-84769230D01*
X193352788Y-84902942D01*
X193129432Y-85070145D01*
X192932145Y-85267432D01*
X192764942Y-85490788D01*
X192631230Y-85735665D01*
X192533729Y-85997073D01*
X192474421Y-86269708D01*
X192454517Y-86547999D01*
X148937630Y-86547999D01*
X154691489Y-80794141D01*
X154739829Y-80761842D01*
X154796849Y-80750500D01*
X174225777Y-80750500D01*
X174266554Y-80756188D01*
X174304215Y-80772818D01*
X174311640Y-80777414D01*
X174314602Y-80779249D01*
X174522057Y-80859617D01*
X174522060Y-80859618D01*
X174740757Y-80900500D01*
X174963243Y-80900500D01*
X175181940Y-80859618D01*
X175389401Y-80779247D01*
X175578562Y-80662124D01*
X175742981Y-80512236D01*
X175877058Y-80334689D01*
X175976229Y-80135528D01*
X176037115Y-79921536D01*
X176057643Y-79700000D01*
X176037115Y-79478464D01*
X175976229Y-79264472D01*
X175976229Y-79264471D01*
X175877060Y-79065314D01*
X175877058Y-79065311D01*
X175742981Y-78887764D01*
X175578562Y-78737876D01*
X175491309Y-78683851D01*
X175396405Y-78625089D01*
X175346006Y-78573252D01*
X175325941Y-78503793D01*
X175340935Y-78433066D01*
X175387458Y-78377723D01*
X175454551Y-78350796D01*
X175661358Y-78322371D01*
X175938058Y-78244844D01*
X176201625Y-78130361D01*
X176447147Y-77981055D01*
X176670053Y-77799708D01*
X176750345Y-77713736D01*
X179345949Y-77713736D01*
X179380614Y-77737371D01*
X179610182Y-77847924D01*
X179853651Y-77923024D01*
X180105604Y-77961000D01*
X180360396Y-77961000D01*
X180612348Y-77923024D01*
X180855817Y-77847924D01*
X181085385Y-77737370D01*
X181120049Y-77713735D01*
X180233000Y-76826685D01*
X179345949Y-77713735D01*
X179345949Y-77713736D01*
X176750345Y-77713736D01*
X176866189Y-77589698D01*
X177031901Y-77354936D01*
X177164104Y-77099797D01*
X177260334Y-76829032D01*
X177318798Y-76547686D01*
X177338408Y-76261000D01*
X177338408Y-76260999D01*
X178528232Y-76260999D01*
X178547273Y-76515082D01*
X178603969Y-76763487D01*
X178697056Y-77000668D01*
X178781458Y-77146855D01*
X179667314Y-76261000D01*
X180798685Y-76261000D01*
X181684541Y-77146856D01*
X181768942Y-77000671D01*
X181862030Y-76763487D01*
X181918726Y-76515082D01*
X181937767Y-76261000D01*
X183127592Y-76261000D01*
X183147202Y-76547686D01*
X183205666Y-76829032D01*
X183205667Y-76829035D01*
X183301895Y-77099796D01*
X183362346Y-77216460D01*
X183434099Y-77354936D01*
X183599811Y-77589698D01*
X183795947Y-77799708D01*
X184018853Y-77981055D01*
X184264375Y-78130361D01*
X184527942Y-78244844D01*
X184804642Y-78322371D01*
X184946982Y-78341935D01*
X185089321Y-78361500D01*
X185089322Y-78361500D01*
X185376678Y-78361500D01*
X185376679Y-78361500D01*
X185486777Y-78346367D01*
X185661358Y-78322371D01*
X185938058Y-78244844D01*
X186201625Y-78130361D01*
X186447147Y-77981055D01*
X186670053Y-77799708D01*
X186750345Y-77713736D01*
X189345949Y-77713736D01*
X189380614Y-77737371D01*
X189610182Y-77847924D01*
X189853651Y-77923024D01*
X190105604Y-77961000D01*
X190360396Y-77961000D01*
X190612348Y-77923024D01*
X190855817Y-77847924D01*
X191085385Y-77737370D01*
X191120049Y-77713735D01*
X191012268Y-77605954D01*
X193132500Y-77605954D01*
X193147632Y-77740255D01*
X193207211Y-77910522D01*
X193303184Y-78063262D01*
X193430738Y-78190816D01*
X193583478Y-78286789D01*
X193753745Y-78346368D01*
X193875696Y-78360108D01*
X193888045Y-78361500D01*
X193888046Y-78361500D01*
X196577954Y-78361500D01*
X196577955Y-78361500D01*
X196589264Y-78360225D01*
X196712255Y-78346368D01*
X196882522Y-78286789D01*
X197035262Y-78190816D01*
X197162816Y-78063262D01*
X197258789Y-77910522D01*
X197318368Y-77740255D01*
X197333500Y-77605954D01*
X197333500Y-77112719D01*
X202252964Y-77112719D01*
X202381072Y-77216460D01*
X202697528Y-77421968D01*
X203033744Y-77593279D01*
X203386007Y-77728500D01*
X203750487Y-77826161D01*
X204123183Y-77885191D01*
X204499999Y-77904939D01*
X204876816Y-77885191D01*
X205249512Y-77826161D01*
X205613992Y-77728500D01*
X205966255Y-77593279D01*
X206302471Y-77421968D01*
X206618929Y-77216459D01*
X206747034Y-77112719D01*
X204500000Y-74865685D01*
X202252964Y-77112719D01*
X197333500Y-77112719D01*
X197333500Y-74916046D01*
X197318368Y-74781745D01*
X197258789Y-74611478D01*
X197162816Y-74458738D01*
X197035262Y-74331184D01*
X196985633Y-74300000D01*
X200895060Y-74300000D01*
X200914808Y-74676816D01*
X200973838Y-75049512D01*
X201071499Y-75413992D01*
X201206720Y-75766255D01*
X201378031Y-76102471D01*
X201583539Y-76418927D01*
X201687279Y-76547034D01*
X203934315Y-74300000D01*
X201687279Y-72052964D01*
X201583539Y-72181072D01*
X201378031Y-72497528D01*
X201206720Y-72833744D01*
X201071499Y-73186007D01*
X200973838Y-73550487D01*
X200914808Y-73923183D01*
X200895060Y-74300000D01*
X196985633Y-74300000D01*
X196882522Y-74235211D01*
X196712255Y-74175632D01*
X196622721Y-74165544D01*
X196577955Y-74160500D01*
X196577954Y-74160500D01*
X193888046Y-74160500D01*
X193888045Y-74160500D01*
X193820895Y-74168066D01*
X193753745Y-74175632D01*
X193685166Y-74199629D01*
X193583477Y-74235211D01*
X193430737Y-74331184D01*
X193303184Y-74458737D01*
X193207211Y-74611477D01*
X193207211Y-74611478D01*
X193147632Y-74781745D01*
X193132500Y-74916046D01*
X193132500Y-77605954D01*
X191012268Y-77605954D01*
X190233000Y-76826685D01*
X189345949Y-77713735D01*
X189345949Y-77713736D01*
X186750345Y-77713736D01*
X186866189Y-77589698D01*
X187031901Y-77354936D01*
X187164104Y-77099797D01*
X187260334Y-76829032D01*
X187318798Y-76547686D01*
X187338408Y-76261000D01*
X187338408Y-76260999D01*
X188528232Y-76260999D01*
X188547273Y-76515082D01*
X188603969Y-76763487D01*
X188697056Y-77000668D01*
X188781458Y-77146855D01*
X189667314Y-76261000D01*
X190798685Y-76261000D01*
X191684541Y-77146856D01*
X191768942Y-77000671D01*
X191862030Y-76763487D01*
X191918726Y-76515082D01*
X191937767Y-76260999D01*
X191918726Y-76006917D01*
X191862030Y-75758512D01*
X191768943Y-75521330D01*
X191684540Y-75375143D01*
X190798685Y-76261000D01*
X189667314Y-76261000D01*
X188781458Y-75375143D01*
X188697057Y-75521330D01*
X188603969Y-75758512D01*
X188547273Y-76006917D01*
X188528232Y-76260999D01*
X187338408Y-76260999D01*
X187318798Y-75974314D01*
X187260334Y-75692968D01*
X187164104Y-75422203D01*
X187031901Y-75167064D01*
X186866189Y-74932302D01*
X186750344Y-74808263D01*
X189345949Y-74808263D01*
X190232999Y-75695313D01*
X191120050Y-74808262D01*
X191085387Y-74784629D01*
X190855817Y-74674076D01*
X190612348Y-74598975D01*
X190360396Y-74561000D01*
X190105604Y-74561000D01*
X189853651Y-74598975D01*
X189610179Y-74674076D01*
X189380617Y-74784627D01*
X189345949Y-74808263D01*
X186750344Y-74808263D01*
X186670053Y-74722292D01*
X186447147Y-74540945D01*
X186447144Y-74540943D01*
X186201631Y-74391642D01*
X186201627Y-74391640D01*
X186201625Y-74391639D01*
X185938058Y-74277156D01*
X185878436Y-74260450D01*
X185661356Y-74199628D01*
X185376679Y-74160500D01*
X185376678Y-74160500D01*
X185089322Y-74160500D01*
X185089321Y-74160500D01*
X184804643Y-74199628D01*
X184527945Y-74277155D01*
X184527943Y-74277155D01*
X184527942Y-74277156D01*
X184475350Y-74300000D01*
X184264368Y-74391642D01*
X184018855Y-74540943D01*
X183795947Y-74722291D01*
X183599812Y-74932300D01*
X183434099Y-75167063D01*
X183301895Y-75422203D01*
X183216458Y-75662601D01*
X183205666Y-75692968D01*
X183147202Y-75974314D01*
X183127592Y-76261000D01*
X181937767Y-76261000D01*
X181937767Y-76260999D01*
X181918726Y-76006917D01*
X181862030Y-75758512D01*
X181768943Y-75521330D01*
X181684540Y-75375143D01*
X180798685Y-76261000D01*
X179667314Y-76261000D01*
X178781458Y-75375143D01*
X178697057Y-75521330D01*
X178603969Y-75758512D01*
X178547273Y-76006917D01*
X178528232Y-76260999D01*
X177338408Y-76260999D01*
X177318798Y-75974314D01*
X177260334Y-75692968D01*
X177164104Y-75422203D01*
X177031901Y-75167064D01*
X176866189Y-74932302D01*
X176750344Y-74808263D01*
X179345949Y-74808263D01*
X180232999Y-75695313D01*
X181120050Y-74808262D01*
X181085387Y-74784629D01*
X180855817Y-74674076D01*
X180612348Y-74598975D01*
X180360396Y-74561000D01*
X180105604Y-74561000D01*
X179853651Y-74598975D01*
X179610179Y-74674076D01*
X179380617Y-74784627D01*
X179345949Y-74808263D01*
X176750344Y-74808263D01*
X176670053Y-74722292D01*
X176447147Y-74540945D01*
X176447144Y-74540943D01*
X176201631Y-74391642D01*
X176201627Y-74391640D01*
X176201625Y-74391639D01*
X175938058Y-74277156D01*
X175878436Y-74260450D01*
X175661356Y-74199628D01*
X175376679Y-74160500D01*
X175376678Y-74160500D01*
X175089322Y-74160500D01*
X175089321Y-74160500D01*
X174804643Y-74199628D01*
X174527945Y-74277155D01*
X174527943Y-74277155D01*
X174527942Y-74277156D01*
X174475350Y-74300000D01*
X174264368Y-74391642D01*
X174018855Y-74540943D01*
X173795947Y-74722291D01*
X173599812Y-74932300D01*
X173434099Y-75167063D01*
X173301895Y-75422203D01*
X173216458Y-75662601D01*
X173205666Y-75692968D01*
X173147202Y-75974314D01*
X173127592Y-76261000D01*
X173147202Y-76547686D01*
X173205666Y-76829032D01*
X173205667Y-76829035D01*
X173301895Y-77099796D01*
X173362346Y-77216460D01*
X173434099Y-77354936D01*
X173599811Y-77589698D01*
X173795947Y-77799708D01*
X174018853Y-77981055D01*
X174264375Y-78130361D01*
X174527942Y-78244844D01*
X174542708Y-78248981D01*
X174600804Y-78280477D01*
X174639565Y-78334005D01*
X174651363Y-78399033D01*
X174633875Y-78462766D01*
X174590544Y-78512666D01*
X174529892Y-78538917D01*
X174522060Y-78540381D01*
X174314602Y-78620750D01*
X174307596Y-78625089D01*
X174304215Y-78627181D01*
X174266554Y-78643812D01*
X174225777Y-78649500D01*
X165459624Y-78649500D01*
X165388081Y-78631200D01*
X165334111Y-78580796D01*
X165310971Y-78510668D01*
X165324346Y-78438043D01*
X165370950Y-78380759D01*
X165439335Y-78352888D01*
X165516384Y-78342297D01*
X165661358Y-78322371D01*
X165938058Y-78244844D01*
X166201625Y-78130361D01*
X166447147Y-77981055D01*
X166670053Y-77799708D01*
X166750345Y-77713736D01*
X169345949Y-77713736D01*
X169380614Y-77737371D01*
X169610182Y-77847924D01*
X169853651Y-77923024D01*
X170105604Y-77961000D01*
X170360396Y-77961000D01*
X170612348Y-77923024D01*
X170855817Y-77847924D01*
X171085385Y-77737370D01*
X171120049Y-77713735D01*
X170233000Y-76826685D01*
X169345949Y-77713735D01*
X169345949Y-77713736D01*
X166750345Y-77713736D01*
X166866189Y-77589698D01*
X167031901Y-77354936D01*
X167164104Y-77099797D01*
X167260334Y-76829032D01*
X167318798Y-76547686D01*
X167338408Y-76261000D01*
X167338408Y-76260999D01*
X168528232Y-76260999D01*
X168547273Y-76515082D01*
X168603969Y-76763487D01*
X168697056Y-77000668D01*
X168781458Y-77146855D01*
X169667314Y-76261000D01*
X170798685Y-76261000D01*
X171684541Y-77146856D01*
X171768942Y-77000671D01*
X171862030Y-76763487D01*
X171918726Y-76515082D01*
X171937767Y-76260999D01*
X171918726Y-76006917D01*
X171862030Y-75758512D01*
X171768943Y-75521330D01*
X171684540Y-75375143D01*
X170798685Y-76261000D01*
X169667314Y-76261000D01*
X168781458Y-75375143D01*
X168697057Y-75521330D01*
X168603969Y-75758512D01*
X168547273Y-76006917D01*
X168528232Y-76260999D01*
X167338408Y-76260999D01*
X167318798Y-75974314D01*
X167260334Y-75692968D01*
X167164104Y-75422203D01*
X167031901Y-75167064D01*
X166866189Y-74932302D01*
X166750344Y-74808263D01*
X169345949Y-74808263D01*
X170232999Y-75695313D01*
X171120050Y-74808262D01*
X171085387Y-74784629D01*
X170855817Y-74674076D01*
X170612348Y-74598975D01*
X170360396Y-74561000D01*
X170105604Y-74561000D01*
X169853651Y-74598975D01*
X169610179Y-74674076D01*
X169380617Y-74784627D01*
X169345949Y-74808263D01*
X166750344Y-74808263D01*
X166670053Y-74722292D01*
X166447147Y-74540945D01*
X166447144Y-74540943D01*
X166201631Y-74391642D01*
X166201627Y-74391640D01*
X166201625Y-74391639D01*
X165938058Y-74277156D01*
X165878436Y-74260450D01*
X165661356Y-74199628D01*
X165376679Y-74160500D01*
X165376678Y-74160500D01*
X165089322Y-74160500D01*
X165089321Y-74160500D01*
X164804643Y-74199628D01*
X164527945Y-74277155D01*
X164527943Y-74277155D01*
X164527942Y-74277156D01*
X164475350Y-74300000D01*
X164264368Y-74391642D01*
X164018855Y-74540943D01*
X163795947Y-74722291D01*
X163599812Y-74932300D01*
X163434099Y-75167063D01*
X163301895Y-75422203D01*
X163216458Y-75662601D01*
X163205666Y-75692968D01*
X163147202Y-75974314D01*
X163127592Y-76261000D01*
X163147202Y-76547686D01*
X163205666Y-76829032D01*
X163205667Y-76829035D01*
X163301895Y-77099796D01*
X163362346Y-77216460D01*
X163434099Y-77354936D01*
X163599811Y-77589698D01*
X163795947Y-77799708D01*
X164018853Y-77981055D01*
X164264375Y-78130361D01*
X164527942Y-78244844D01*
X164804642Y-78322371D01*
X164889284Y-78334005D01*
X165026665Y-78352888D01*
X165095050Y-78380759D01*
X165141654Y-78438043D01*
X165155029Y-78510668D01*
X165131889Y-78580796D01*
X165077919Y-78631200D01*
X165006376Y-78649500D01*
X155459624Y-78649500D01*
X155388081Y-78631200D01*
X155334111Y-78580796D01*
X155310971Y-78510668D01*
X155324346Y-78438043D01*
X155370950Y-78380759D01*
X155439335Y-78352888D01*
X155516384Y-78342297D01*
X155661358Y-78322371D01*
X155938058Y-78244844D01*
X156201625Y-78130361D01*
X156447147Y-77981055D01*
X156670053Y-77799708D01*
X156750345Y-77713736D01*
X159345949Y-77713736D01*
X159380614Y-77737371D01*
X159610182Y-77847924D01*
X159853651Y-77923024D01*
X160105604Y-77961000D01*
X160360396Y-77961000D01*
X160612348Y-77923024D01*
X160855817Y-77847924D01*
X161085385Y-77737370D01*
X161120049Y-77713735D01*
X160233000Y-76826685D01*
X159345949Y-77713735D01*
X159345949Y-77713736D01*
X156750345Y-77713736D01*
X156866189Y-77589698D01*
X157031901Y-77354936D01*
X157164104Y-77099797D01*
X157260334Y-76829032D01*
X157318798Y-76547686D01*
X157338408Y-76261000D01*
X157338408Y-76260999D01*
X158528232Y-76260999D01*
X158547273Y-76515082D01*
X158603969Y-76763487D01*
X158697056Y-77000668D01*
X158781458Y-77146855D01*
X159667313Y-76261000D01*
X160798685Y-76261000D01*
X161684541Y-77146856D01*
X161768942Y-77000671D01*
X161862030Y-76763487D01*
X161918726Y-76515082D01*
X161937767Y-76260999D01*
X161918726Y-76006917D01*
X161862030Y-75758512D01*
X161768943Y-75521330D01*
X161684540Y-75375143D01*
X160798685Y-76261000D01*
X159667313Y-76261000D01*
X159667314Y-76260999D01*
X158781458Y-75375143D01*
X158697057Y-75521330D01*
X158603969Y-75758512D01*
X158547273Y-76006917D01*
X158528232Y-76260999D01*
X157338408Y-76260999D01*
X157318798Y-75974314D01*
X157260334Y-75692968D01*
X157164104Y-75422203D01*
X157031901Y-75167064D01*
X156866189Y-74932302D01*
X156750344Y-74808263D01*
X159345949Y-74808263D01*
X160232999Y-75695313D01*
X161120050Y-74808262D01*
X161085387Y-74784629D01*
X160855817Y-74674076D01*
X160612348Y-74598975D01*
X160360396Y-74561000D01*
X160105604Y-74561000D01*
X159853651Y-74598975D01*
X159610179Y-74674076D01*
X159380617Y-74784627D01*
X159345949Y-74808263D01*
X156750344Y-74808263D01*
X156670053Y-74722292D01*
X156447147Y-74540945D01*
X156447144Y-74540943D01*
X156201631Y-74391642D01*
X156201627Y-74391640D01*
X156201625Y-74391639D01*
X155938058Y-74277156D01*
X155878436Y-74260450D01*
X155661356Y-74199628D01*
X155376679Y-74160500D01*
X155376678Y-74160500D01*
X155089322Y-74160500D01*
X155089321Y-74160500D01*
X154804643Y-74199628D01*
X154527945Y-74277155D01*
X154527943Y-74277155D01*
X154527942Y-74277156D01*
X154475350Y-74300000D01*
X154264368Y-74391642D01*
X154018855Y-74540943D01*
X153795947Y-74722291D01*
X153599812Y-74932300D01*
X153434099Y-75167063D01*
X153301895Y-75422203D01*
X153216458Y-75662601D01*
X153205666Y-75692968D01*
X153147202Y-75974314D01*
X153127592Y-76261000D01*
X153147202Y-76547686D01*
X153205666Y-76829032D01*
X153205667Y-76829035D01*
X153301895Y-77099796D01*
X153362346Y-77216460D01*
X153434099Y-77354936D01*
X153599811Y-77589698D01*
X153795947Y-77799708D01*
X154018853Y-77981055D01*
X154264375Y-78130361D01*
X154527942Y-78244844D01*
X154804642Y-78322371D01*
X154889284Y-78334005D01*
X155026665Y-78352888D01*
X155095050Y-78380759D01*
X155141654Y-78438043D01*
X155155029Y-78510668D01*
X155131889Y-78580796D01*
X155077919Y-78631200D01*
X155006376Y-78649500D01*
X154358933Y-78649500D01*
X154344329Y-78648783D01*
X154300000Y-78644417D01*
X154248391Y-78649500D01*
X154248392Y-78649499D01*
X154094067Y-78664699D01*
X153896047Y-78724767D01*
X153713548Y-78822315D01*
X153553589Y-78953590D01*
X153525329Y-78988024D01*
X153515512Y-78998855D01*
X137198693Y-95315674D01*
X137147159Y-95349253D01*
X136953325Y-95424345D01*
X136882329Y-95433414D01*
X136815295Y-95408332D01*
X136767690Y-95354885D01*
X136750500Y-95285407D01*
X136750500Y-90696849D01*
X136761842Y-90639829D01*
X136794141Y-90591490D01*
X137017064Y-90368567D01*
X137701304Y-89684325D01*
X137752836Y-89650748D01*
X137937401Y-89579247D01*
X137937400Y-89579247D01*
X138126562Y-89462124D01*
X138290981Y-89312236D01*
X138425058Y-89134689D01*
X138524229Y-88935528D01*
X138585115Y-88721536D01*
X138605643Y-88500000D01*
X138585115Y-88278464D01*
X138524229Y-88064472D01*
X138524229Y-88064471D01*
X138425060Y-87865314D01*
X138397310Y-87828567D01*
X138290981Y-87687764D01*
X138126562Y-87537876D01*
X138126559Y-87537874D01*
X137937401Y-87420752D01*
X137729942Y-87340382D01*
X137511243Y-87299500D01*
X137288757Y-87299500D01*
X137070057Y-87340382D01*
X136862598Y-87420752D01*
X136673440Y-87537874D01*
X136509021Y-87687761D01*
X136374939Y-87865314D01*
X136275770Y-88064472D01*
X136256882Y-88130856D01*
X136218930Y-88195437D01*
X134998855Y-89415512D01*
X134988024Y-89425329D01*
X134953590Y-89453589D01*
X134850467Y-89579247D01*
X134850466Y-89579248D01*
X134822316Y-89613548D01*
X134724767Y-89796046D01*
X134664699Y-89994067D01*
X134644416Y-90199996D01*
X134648783Y-90244329D01*
X134649500Y-90258933D01*
X134649500Y-114241067D01*
X134648783Y-114255671D01*
X134644416Y-114300003D01*
X127100500Y-114300003D01*
X127100500Y-77112719D01*
X128352964Y-77112719D01*
X128481072Y-77216460D01*
X128797528Y-77421968D01*
X129133744Y-77593279D01*
X129486007Y-77728500D01*
X129850487Y-77826161D01*
X130223183Y-77885191D01*
X130599999Y-77904939D01*
X130976816Y-77885191D01*
X131349512Y-77826161D01*
X131713992Y-77728500D01*
X131752454Y-77713736D01*
X139345949Y-77713736D01*
X139380614Y-77737371D01*
X139610182Y-77847924D01*
X139853651Y-77923024D01*
X140105604Y-77961000D01*
X140360396Y-77961000D01*
X140612348Y-77923024D01*
X140855817Y-77847924D01*
X141085385Y-77737370D01*
X141120049Y-77713735D01*
X140233000Y-76826685D01*
X139345949Y-77713735D01*
X139345949Y-77713736D01*
X131752454Y-77713736D01*
X132066255Y-77593279D01*
X132402471Y-77421968D01*
X132718929Y-77216459D01*
X132847034Y-77112719D01*
X130600000Y-74865685D01*
X128352964Y-77112719D01*
X127100500Y-77112719D01*
X127100500Y-75982155D01*
X127115015Y-75918009D01*
X127155731Y-75866360D01*
X127214717Y-75837272D01*
X127280479Y-75836411D01*
X127340206Y-75863945D01*
X127382260Y-75914511D01*
X127478028Y-76102468D01*
X127683539Y-76418927D01*
X127787279Y-76547034D01*
X130034315Y-74300000D01*
X131165685Y-74300000D01*
X133412719Y-76547034D01*
X133516459Y-76418929D01*
X133619019Y-76260999D01*
X138528232Y-76260999D01*
X138547273Y-76515082D01*
X138603969Y-76763487D01*
X138697056Y-77000668D01*
X138781458Y-77146855D01*
X139667314Y-76261000D01*
X140798685Y-76261000D01*
X141684541Y-77146856D01*
X141768942Y-77000671D01*
X141862030Y-76763487D01*
X141918726Y-76515082D01*
X141937767Y-76261000D01*
X143127592Y-76261000D01*
X143147202Y-76547686D01*
X143205666Y-76829032D01*
X143205667Y-76829035D01*
X143301895Y-77099796D01*
X143362346Y-77216460D01*
X143434099Y-77354936D01*
X143599811Y-77589698D01*
X143795947Y-77799708D01*
X144018853Y-77981055D01*
X144264375Y-78130361D01*
X144527942Y-78244844D01*
X144804642Y-78322371D01*
X144946982Y-78341935D01*
X145089321Y-78361500D01*
X145089322Y-78361500D01*
X145376678Y-78361500D01*
X145376679Y-78361500D01*
X145486777Y-78346367D01*
X145661358Y-78322371D01*
X145938058Y-78244844D01*
X146201625Y-78130361D01*
X146447147Y-77981055D01*
X146670053Y-77799708D01*
X146750345Y-77713736D01*
X149345949Y-77713736D01*
X149380614Y-77737371D01*
X149610182Y-77847924D01*
X149853651Y-77923024D01*
X150105604Y-77961000D01*
X150360396Y-77961000D01*
X150612348Y-77923024D01*
X150855817Y-77847924D01*
X151085385Y-77737370D01*
X151120049Y-77713735D01*
X150233000Y-76826685D01*
X149345949Y-77713735D01*
X149345949Y-77713736D01*
X146750345Y-77713736D01*
X146866189Y-77589698D01*
X147031901Y-77354936D01*
X147164104Y-77099797D01*
X147260334Y-76829032D01*
X147318798Y-76547686D01*
X147338408Y-76261000D01*
X147338408Y-76260999D01*
X148528232Y-76260999D01*
X148547273Y-76515082D01*
X148603969Y-76763487D01*
X148697056Y-77000668D01*
X148781458Y-77146855D01*
X149667314Y-76261000D01*
X150798685Y-76261000D01*
X151684541Y-77146856D01*
X151768942Y-77000671D01*
X151862030Y-76763487D01*
X151918726Y-76515082D01*
X151937767Y-76260999D01*
X151918726Y-76006917D01*
X151862030Y-75758512D01*
X151768943Y-75521330D01*
X151684540Y-75375143D01*
X150798685Y-76261000D01*
X149667314Y-76261000D01*
X148781458Y-75375143D01*
X148697057Y-75521330D01*
X148603969Y-75758512D01*
X148547273Y-76006917D01*
X148528232Y-76260999D01*
X147338408Y-76260999D01*
X147318798Y-75974314D01*
X147260334Y-75692968D01*
X147164104Y-75422203D01*
X147031901Y-75167064D01*
X146866189Y-74932302D01*
X146750344Y-74808263D01*
X149345949Y-74808263D01*
X150232999Y-75695313D01*
X151120050Y-74808262D01*
X151085387Y-74784629D01*
X150855817Y-74674076D01*
X150612348Y-74598975D01*
X150360396Y-74561000D01*
X150105604Y-74561000D01*
X149853651Y-74598975D01*
X149610179Y-74674076D01*
X149380617Y-74784627D01*
X149345949Y-74808263D01*
X146750344Y-74808263D01*
X146670053Y-74722292D01*
X146447147Y-74540945D01*
X146447144Y-74540943D01*
X146201631Y-74391642D01*
X146201627Y-74391640D01*
X146201625Y-74391639D01*
X145938058Y-74277156D01*
X145878436Y-74260450D01*
X145661356Y-74199628D01*
X145376679Y-74160500D01*
X145376678Y-74160500D01*
X145089322Y-74160500D01*
X145089321Y-74160500D01*
X144804643Y-74199628D01*
X144527945Y-74277155D01*
X144527943Y-74277155D01*
X144527942Y-74277156D01*
X144475350Y-74300000D01*
X144264368Y-74391642D01*
X144018855Y-74540943D01*
X143795947Y-74722291D01*
X143599812Y-74932300D01*
X143434099Y-75167063D01*
X143301895Y-75422203D01*
X143216458Y-75662601D01*
X143205666Y-75692968D01*
X143147202Y-75974314D01*
X143127592Y-76261000D01*
X141937767Y-76261000D01*
X141937767Y-76260999D01*
X141918726Y-76006917D01*
X141862030Y-75758512D01*
X141768943Y-75521330D01*
X141684540Y-75375143D01*
X140798685Y-76261000D01*
X139667314Y-76261000D01*
X138781458Y-75375143D01*
X138697057Y-75521330D01*
X138603969Y-75758512D01*
X138547273Y-76006917D01*
X138528232Y-76260999D01*
X133619019Y-76260999D01*
X133721968Y-76102471D01*
X133893279Y-75766255D01*
X134028500Y-75413992D01*
X134126161Y-75049512D01*
X134164372Y-74808263D01*
X139345949Y-74808263D01*
X140232999Y-75695313D01*
X141120050Y-74808262D01*
X141085387Y-74784629D01*
X140855817Y-74674076D01*
X140612348Y-74598975D01*
X140360396Y-74561000D01*
X140105604Y-74561000D01*
X139853651Y-74598975D01*
X139610179Y-74674076D01*
X139380617Y-74784627D01*
X139345949Y-74808263D01*
X134164372Y-74808263D01*
X134185191Y-74676816D01*
X134204939Y-74300000D01*
X134185191Y-73923183D01*
X134126161Y-73550487D01*
X134028500Y-73186007D01*
X133893279Y-72833744D01*
X133721968Y-72497528D01*
X133516460Y-72181072D01*
X133412719Y-72052964D01*
X131165685Y-74300000D01*
X130034315Y-74300000D01*
X127787279Y-72052964D01*
X127683539Y-72181072D01*
X127478028Y-72497531D01*
X127382260Y-72685489D01*
X127340206Y-72736055D01*
X127280479Y-72763589D01*
X127214717Y-72762728D01*
X127155731Y-72733640D01*
X127115015Y-72681991D01*
X127100500Y-72617845D01*
X127100500Y-71861218D01*
X127111842Y-71804198D01*
X127144141Y-71755859D01*
X128056359Y-70843641D01*
X128104698Y-70811342D01*
X128161718Y-70800000D01*
X128918826Y-70800000D01*
X128982972Y-70814515D01*
G37*
G04 #@! TD.AperFunction*
M02*
