%TF.GenerationSoftware,KiCad,Pcbnew,7.0.1*%
%TF.CreationDate,2023-12-04T13:49:38-08:00*%
%TF.ProjectId,GReX_Power,47526558-5f50-46f7-9765-722e6b696361,2*%
%TF.SameCoordinates,Original*%
%TF.FileFunction,Drillmap*%
%TF.FilePolarity,Positive*%
%FSLAX45Y45*%
G04 Gerber Fmt 4.5, Leading zero omitted, Abs format (unit mm)*
G04 Created by KiCad (PCBNEW 7.0.1) date 2023-12-04 13:49:38*
%MOMM*%
%LPD*%
G01*
G04 APERTURE LIST*
%ADD10C,0.100000*%
%ADD11C,0.200000*%
%ADD12C,0.030000*%
%ADD13C,0.040000*%
%ADD14C,0.130000*%
%ADD15C,0.320000*%
G04 APERTURE END LIST*
D10*
X12710000Y-7075000D02*
X20810000Y-7075000D01*
X20810000Y-12675000D01*
X12710000Y-12675000D01*
X12710000Y-7075000D01*
D11*
D12*
X15095300Y-10165000D02*
X15125300Y-10195000D01*
X15125300Y-10165000D02*
X15095300Y-10195000D01*
X15095300Y-10285000D02*
X15125300Y-10315000D01*
X15125300Y-10285000D02*
X15095300Y-10315000D01*
X15205300Y-10165000D02*
X15235300Y-10195000D01*
X15235300Y-10165000D02*
X15205300Y-10195000D01*
X15205300Y-10285000D02*
X15235300Y-10315000D01*
X15235300Y-10285000D02*
X15205300Y-10315000D01*
X15335300Y-10165000D02*
X15365300Y-10195000D01*
X15365300Y-10165000D02*
X15335300Y-10195000D01*
X15335300Y-10285000D02*
X15365300Y-10315000D01*
X15365300Y-10285000D02*
X15335300Y-10315000D01*
X15455300Y-10165000D02*
X15485300Y-10195000D01*
X15485300Y-10165000D02*
X15455300Y-10195000D01*
X15455300Y-10285000D02*
X15485300Y-10315000D01*
X15485300Y-10285000D02*
X15455300Y-10315000D01*
X16998100Y-10164000D02*
X17028100Y-10194000D01*
X17028100Y-10164000D02*
X16998100Y-10194000D01*
X16998100Y-10284000D02*
X17028100Y-10314000D01*
X17028100Y-10284000D02*
X16998100Y-10314000D01*
X17108100Y-10164000D02*
X17138100Y-10194000D01*
X17138100Y-10164000D02*
X17108100Y-10194000D01*
X17108100Y-10284000D02*
X17138100Y-10314000D01*
X17138100Y-10284000D02*
X17108100Y-10314000D01*
X17238100Y-10164000D02*
X17268100Y-10194000D01*
X17268100Y-10164000D02*
X17238100Y-10194000D01*
X17238100Y-10284000D02*
X17268100Y-10314000D01*
X17268100Y-10284000D02*
X17238100Y-10314000D01*
X17358100Y-10164000D02*
X17388100Y-10194000D01*
X17388100Y-10164000D02*
X17358100Y-10194000D01*
X17358100Y-10284000D02*
X17388100Y-10314000D01*
X17388100Y-10284000D02*
X17358100Y-10314000D01*
D13*
X12945900Y-8273800D02*
G75*
G03*
X12945900Y-8273800I-20000J0D01*
G01*
X12945900Y-8673800D02*
G75*
G03*
X12945900Y-8673800I-20000J0D01*
G01*
X12945900Y-9073800D02*
G75*
G03*
X12945900Y-9073800I-20000J0D01*
G01*
X12945900Y-9473800D02*
G75*
G03*
X12945900Y-9473800I-20000J0D01*
G01*
X12945900Y-9873800D02*
G75*
G03*
X12945900Y-9873800I-20000J0D01*
G01*
X12945900Y-10273800D02*
G75*
G03*
X12945900Y-10273800I-20000J0D01*
G01*
X12945900Y-10673800D02*
G75*
G03*
X12945900Y-10673800I-20000J0D01*
G01*
X12945900Y-11073800D02*
G75*
G03*
X12945900Y-11073800I-20000J0D01*
G01*
X12945900Y-11473800D02*
G75*
G03*
X12945900Y-11473800I-20000J0D01*
G01*
X12945900Y-11873800D02*
G75*
G03*
X12945900Y-11873800I-20000J0D01*
G01*
X13345900Y-8273800D02*
G75*
G03*
X13345900Y-8273800I-20000J0D01*
G01*
X13345900Y-8673800D02*
G75*
G03*
X13345900Y-8673800I-20000J0D01*
G01*
X13345900Y-9073800D02*
G75*
G03*
X13345900Y-9073800I-20000J0D01*
G01*
X13345900Y-9473800D02*
G75*
G03*
X13345900Y-9473800I-20000J0D01*
G01*
X13345900Y-9873800D02*
G75*
G03*
X13345900Y-9873800I-20000J0D01*
G01*
X13345900Y-10273800D02*
G75*
G03*
X13345900Y-10273800I-20000J0D01*
G01*
X13345900Y-10673800D02*
G75*
G03*
X13345900Y-10673800I-20000J0D01*
G01*
X13345900Y-11073800D02*
G75*
G03*
X13345900Y-11073800I-20000J0D01*
G01*
X13345900Y-11473800D02*
G75*
G03*
X13345900Y-11473800I-20000J0D01*
G01*
X13345900Y-11873800D02*
G75*
G03*
X13345900Y-11873800I-20000J0D01*
G01*
X13745900Y-8273800D02*
G75*
G03*
X13745900Y-8273800I-20000J0D01*
G01*
X13745900Y-8673800D02*
G75*
G03*
X13745900Y-8673800I-20000J0D01*
G01*
X13745900Y-9073800D02*
G75*
G03*
X13745900Y-9073800I-20000J0D01*
G01*
X13745900Y-9473800D02*
G75*
G03*
X13745900Y-9473800I-20000J0D01*
G01*
X13745900Y-9873800D02*
G75*
G03*
X13745900Y-9873800I-20000J0D01*
G01*
X13745900Y-10273800D02*
G75*
G03*
X13745900Y-10273800I-20000J0D01*
G01*
X13745900Y-10673800D02*
G75*
G03*
X13745900Y-10673800I-20000J0D01*
G01*
X13745900Y-11073800D02*
G75*
G03*
X13745900Y-11073800I-20000J0D01*
G01*
X13745900Y-11873800D02*
G75*
G03*
X13745900Y-11873800I-20000J0D01*
G01*
X13745900Y-12273800D02*
G75*
G03*
X13745900Y-12273800I-20000J0D01*
G01*
X13760000Y-8850000D02*
G75*
G03*
X13760000Y-8850000I-20000J0D01*
G01*
X13760000Y-11240000D02*
G75*
G03*
X13760000Y-11240000I-20000J0D01*
G01*
X13770000Y-9650000D02*
G75*
G03*
X13770000Y-9650000I-20000J0D01*
G01*
X14145900Y-8273800D02*
G75*
G03*
X14145900Y-8273800I-20000J0D01*
G01*
X14145900Y-8673800D02*
G75*
G03*
X14145900Y-8673800I-20000J0D01*
G01*
X14145900Y-9473800D02*
G75*
G03*
X14145900Y-9473800I-20000J0D01*
G01*
X14145900Y-11073800D02*
G75*
G03*
X14145900Y-11073800I-20000J0D01*
G01*
X14145900Y-12273800D02*
G75*
G03*
X14145900Y-12273800I-20000J0D01*
G01*
X14545900Y-8273800D02*
G75*
G03*
X14545900Y-8273800I-20000J0D01*
G01*
X14545900Y-8673800D02*
G75*
G03*
X14545900Y-8673800I-20000J0D01*
G01*
X14545900Y-11073800D02*
G75*
G03*
X14545900Y-11073800I-20000J0D01*
G01*
X14545900Y-11473800D02*
G75*
G03*
X14545900Y-11473800I-20000J0D01*
G01*
X14945900Y-8673800D02*
G75*
G03*
X14945900Y-8673800I-20000J0D01*
G01*
X14945900Y-10273800D02*
G75*
G03*
X14945900Y-10273800I-20000J0D01*
G01*
X14945900Y-10673800D02*
G75*
G03*
X14945900Y-10673800I-20000J0D01*
G01*
X14945900Y-11073800D02*
G75*
G03*
X14945900Y-11073800I-20000J0D01*
G01*
X15345900Y-8273800D02*
G75*
G03*
X15345900Y-8273800I-20000J0D01*
G01*
X15345900Y-8673800D02*
G75*
G03*
X15345900Y-8673800I-20000J0D01*
G01*
X15345900Y-9073800D02*
G75*
G03*
X15345900Y-9073800I-20000J0D01*
G01*
X15345900Y-9473800D02*
G75*
G03*
X15345900Y-9473800I-20000J0D01*
G01*
X15345900Y-11873800D02*
G75*
G03*
X15345900Y-11873800I-20000J0D01*
G01*
X15745900Y-8273800D02*
G75*
G03*
X15745900Y-8273800I-20000J0D01*
G01*
X15745900Y-8673800D02*
G75*
G03*
X15745900Y-8673800I-20000J0D01*
G01*
X15745900Y-10273800D02*
G75*
G03*
X15745900Y-10273800I-20000J0D01*
G01*
X15745900Y-11073800D02*
G75*
G03*
X15745900Y-11073800I-20000J0D01*
G01*
X15745900Y-11873800D02*
G75*
G03*
X15745900Y-11873800I-20000J0D01*
G01*
X16145900Y-8273800D02*
G75*
G03*
X16145900Y-8273800I-20000J0D01*
G01*
X16145900Y-8673800D02*
G75*
G03*
X16145900Y-8673800I-20000J0D01*
G01*
X16145900Y-11873800D02*
G75*
G03*
X16145900Y-11873800I-20000J0D01*
G01*
X16145900Y-12273800D02*
G75*
G03*
X16145900Y-12273800I-20000J0D01*
G01*
X16545900Y-10273800D02*
G75*
G03*
X16545900Y-10273800I-20000J0D01*
G01*
X16692400Y-9912100D02*
G75*
G03*
X16692400Y-9912100I-20000J0D01*
G01*
X16945900Y-8273800D02*
G75*
G03*
X16945900Y-8273800I-20000J0D01*
G01*
X16945900Y-8673800D02*
G75*
G03*
X16945900Y-8673800I-20000J0D01*
G01*
X16945900Y-9073800D02*
G75*
G03*
X16945900Y-9073800I-20000J0D01*
G01*
X16945900Y-9473800D02*
G75*
G03*
X16945900Y-9473800I-20000J0D01*
G01*
X16945900Y-10273800D02*
G75*
G03*
X16945900Y-10273800I-20000J0D01*
G01*
X16945900Y-11073800D02*
G75*
G03*
X16945900Y-11073800I-20000J0D01*
G01*
X16945900Y-11473800D02*
G75*
G03*
X16945900Y-11473800I-20000J0D01*
G01*
X17345900Y-8273800D02*
G75*
G03*
X17345900Y-8273800I-20000J0D01*
G01*
X17345900Y-11473800D02*
G75*
G03*
X17345900Y-11473800I-20000J0D01*
G01*
X17345900Y-12273800D02*
G75*
G03*
X17345900Y-12273800I-20000J0D01*
G01*
X17505200Y-7970000D02*
G75*
G03*
X17505200Y-7970000I-20000J0D01*
G01*
X17745900Y-8673800D02*
G75*
G03*
X17745900Y-8673800I-20000J0D01*
G01*
X17745900Y-10273800D02*
G75*
G03*
X17745900Y-10273800I-20000J0D01*
G01*
X17745900Y-11073800D02*
G75*
G03*
X17745900Y-11073800I-20000J0D01*
G01*
X17745900Y-11873800D02*
G75*
G03*
X17745900Y-11873800I-20000J0D01*
G01*
X17745900Y-12273800D02*
G75*
G03*
X17745900Y-12273800I-20000J0D01*
G01*
X18145900Y-11473800D02*
G75*
G03*
X18145900Y-11473800I-20000J0D01*
G01*
X18145900Y-11873800D02*
G75*
G03*
X18145900Y-11873800I-20000J0D01*
G01*
X18145900Y-12273800D02*
G75*
G03*
X18145900Y-12273800I-20000J0D01*
G01*
X18545900Y-8273800D02*
G75*
G03*
X18545900Y-8273800I-20000J0D01*
G01*
X18545900Y-9073800D02*
G75*
G03*
X18545900Y-9073800I-20000J0D01*
G01*
X18545900Y-9473800D02*
G75*
G03*
X18545900Y-9473800I-20000J0D01*
G01*
X18545900Y-10673800D02*
G75*
G03*
X18545900Y-10673800I-20000J0D01*
G01*
X18545900Y-11873800D02*
G75*
G03*
X18545900Y-11873800I-20000J0D01*
G01*
X18545900Y-12273800D02*
G75*
G03*
X18545900Y-12273800I-20000J0D01*
G01*
X18945900Y-8273800D02*
G75*
G03*
X18945900Y-8273800I-20000J0D01*
G01*
X18945900Y-8673800D02*
G75*
G03*
X18945900Y-8673800I-20000J0D01*
G01*
X18945900Y-9073800D02*
G75*
G03*
X18945900Y-9073800I-20000J0D01*
G01*
X18945900Y-9473800D02*
G75*
G03*
X18945900Y-9473800I-20000J0D01*
G01*
X18945900Y-10273800D02*
G75*
G03*
X18945900Y-10273800I-20000J0D01*
G01*
X18945900Y-11073800D02*
G75*
G03*
X18945900Y-11073800I-20000J0D01*
G01*
X18945900Y-11473800D02*
G75*
G03*
X18945900Y-11473800I-20000J0D01*
G01*
X18945900Y-11873800D02*
G75*
G03*
X18945900Y-11873800I-20000J0D01*
G01*
X18945900Y-12273800D02*
G75*
G03*
X18945900Y-12273800I-20000J0D01*
G01*
X19345900Y-8273800D02*
G75*
G03*
X19345900Y-8273800I-20000J0D01*
G01*
X19345900Y-9073800D02*
G75*
G03*
X19345900Y-9073800I-20000J0D01*
G01*
X19345900Y-11073800D02*
G75*
G03*
X19345900Y-11073800I-20000J0D01*
G01*
X19345900Y-11473800D02*
G75*
G03*
X19345900Y-11473800I-20000J0D01*
G01*
X19345900Y-11873800D02*
G75*
G03*
X19345900Y-11873800I-20000J0D01*
G01*
X19745900Y-9473800D02*
G75*
G03*
X19745900Y-9473800I-20000J0D01*
G01*
X19745900Y-10273800D02*
G75*
G03*
X19745900Y-10273800I-20000J0D01*
G01*
X19745900Y-12273800D02*
G75*
G03*
X19745900Y-12273800I-20000J0D01*
G01*
X20145900Y-8273800D02*
G75*
G03*
X20145900Y-8273800I-20000J0D01*
G01*
X20145900Y-8673800D02*
G75*
G03*
X20145900Y-8673800I-20000J0D01*
G01*
X20145900Y-9073800D02*
G75*
G03*
X20145900Y-9073800I-20000J0D01*
G01*
X20145900Y-10673800D02*
G75*
G03*
X20145900Y-10673800I-20000J0D01*
G01*
X20145900Y-11073800D02*
G75*
G03*
X20145900Y-11073800I-20000J0D01*
G01*
X20145900Y-11473800D02*
G75*
G03*
X20145900Y-11473800I-20000J0D01*
G01*
X20145900Y-11873800D02*
G75*
G03*
X20145900Y-11873800I-20000J0D01*
G01*
X20545900Y-8273800D02*
G75*
G03*
X20545900Y-8273800I-20000J0D01*
G01*
X20545900Y-8673800D02*
G75*
G03*
X20545900Y-8673800I-20000J0D01*
G01*
X20545900Y-9073800D02*
G75*
G03*
X20545900Y-9073800I-20000J0D01*
G01*
X20545900Y-9473800D02*
G75*
G03*
X20545900Y-9473800I-20000J0D01*
G01*
X20545900Y-9873800D02*
G75*
G03*
X20545900Y-9873800I-20000J0D01*
G01*
X20545900Y-10273800D02*
G75*
G03*
X20545900Y-10273800I-20000J0D01*
G01*
X20545900Y-10673800D02*
G75*
G03*
X20545900Y-10673800I-20000J0D01*
G01*
X20545900Y-11073800D02*
G75*
G03*
X20545900Y-11073800I-20000J0D01*
G01*
X20545900Y-11473800D02*
G75*
G03*
X20545900Y-11473800I-20000J0D01*
G01*
X20545900Y-11873800D02*
G75*
G03*
X20545900Y-11873800I-20000J0D01*
G01*
D14*
X14023300Y-7561100D02*
X14023300Y-7691100D01*
X13958300Y-7626100D02*
X14088300Y-7626100D01*
X14469200Y-12044200D02*
X14469200Y-12174200D01*
X14404200Y-12109200D02*
X14534200Y-12109200D01*
X14523300Y-7561100D02*
X14523300Y-7691100D01*
X14458300Y-7626100D02*
X14588300Y-7626100D01*
X14969200Y-12044200D02*
X14969200Y-12174200D01*
X14904200Y-12109200D02*
X15034200Y-12109200D01*
X15023300Y-7561100D02*
X15023300Y-7691100D01*
X14958300Y-7626100D02*
X15088300Y-7626100D01*
X15469200Y-12044200D02*
X15469200Y-12174200D01*
X15404200Y-12109200D02*
X15534200Y-12109200D01*
X15523300Y-7561100D02*
X15523300Y-7691100D01*
X15458300Y-7626100D02*
X15588300Y-7626100D01*
X15969200Y-12044200D02*
X15969200Y-12174200D01*
X15904200Y-12109200D02*
X16034200Y-12109200D01*
X16023300Y-7561100D02*
X16023300Y-7691100D01*
X15958300Y-7626100D02*
X16088300Y-7626100D01*
X16469200Y-12044200D02*
X16469200Y-12174200D01*
X16404200Y-12109200D02*
X16534200Y-12109200D01*
X16523300Y-7561100D02*
X16523300Y-7691100D01*
X16458300Y-7626100D02*
X16588300Y-7626100D01*
X16969200Y-12044200D02*
X16969200Y-12174200D01*
X16904200Y-12109200D02*
X17034200Y-12109200D01*
X17023300Y-7561100D02*
X17023300Y-7691100D01*
X16958300Y-7626100D02*
X17088300Y-7626100D01*
X17523300Y-7561100D02*
X17523300Y-7691100D01*
X17458300Y-7626100D02*
X17588300Y-7626100D01*
X18023300Y-7561100D02*
X18023300Y-7691100D01*
X17958300Y-7626100D02*
X18088300Y-7626100D01*
X18523300Y-7561100D02*
X18523300Y-7691100D01*
X18458300Y-7626100D02*
X18588300Y-7626100D01*
X18679000Y-8843800D02*
X18679000Y-8973800D01*
X18614000Y-8908800D02*
X18744000Y-8908800D01*
X18679000Y-10367800D02*
X18679000Y-10497800D01*
X18614000Y-10432800D02*
X18744000Y-10432800D01*
X19023300Y-7561100D02*
X19023300Y-7691100D01*
X18958300Y-7626100D02*
X19088300Y-7626100D01*
X19441000Y-8589800D02*
X19441000Y-8719800D01*
X19376000Y-8654800D02*
X19506000Y-8654800D01*
X19441000Y-9351800D02*
X19441000Y-9481800D01*
X19376000Y-9416800D02*
X19506000Y-9416800D01*
X19441000Y-10367800D02*
X19441000Y-10497800D01*
X19376000Y-10432800D02*
X19506000Y-10432800D01*
X19523300Y-7561100D02*
X19523300Y-7691100D01*
X19458300Y-7626100D02*
X19588300Y-7626100D01*
X20253800Y-8793000D02*
X20253800Y-8923000D01*
X20188800Y-8858000D02*
X20318800Y-8858000D01*
X20253800Y-9293000D02*
X20253800Y-9423000D01*
X20188800Y-9358000D02*
X20318800Y-9358000D01*
X20253800Y-9793000D02*
X20253800Y-9923000D01*
X20188800Y-9858000D02*
X20318800Y-9858000D01*
X20253800Y-10293000D02*
X20253800Y-10423000D01*
X20188800Y-10358000D02*
X20318800Y-10358000D01*
D15*
X13173138Y-7543138D02*
X13173138Y-7316862D01*
X12946862Y-7316862D01*
X12946862Y-7543138D01*
X13173138Y-7543138D01*
X13173138Y-12433138D02*
X13173138Y-12206862D01*
X12946862Y-12206862D01*
X12946862Y-12433138D01*
X13173138Y-12433138D01*
X20563138Y-7543138D02*
X20563138Y-7316862D01*
X20336862Y-7316862D01*
X20336862Y-7543138D01*
X20563138Y-7543138D01*
X20563138Y-12433138D02*
X20563138Y-12206862D01*
X20336862Y-12206862D01*
X20336862Y-12433138D01*
X20563138Y-12433138D01*
D11*
X12952619Y-12992524D02*
X12952619Y-12792524D01*
X12952619Y-12792524D02*
X13000238Y-12792524D01*
X13000238Y-12792524D02*
X13028809Y-12802048D01*
X13028809Y-12802048D02*
X13047857Y-12821095D01*
X13047857Y-12821095D02*
X13057381Y-12840143D01*
X13057381Y-12840143D02*
X13066905Y-12878238D01*
X13066905Y-12878238D02*
X13066905Y-12906809D01*
X13066905Y-12906809D02*
X13057381Y-12944905D01*
X13057381Y-12944905D02*
X13047857Y-12963952D01*
X13047857Y-12963952D02*
X13028809Y-12983000D01*
X13028809Y-12983000D02*
X13000238Y-12992524D01*
X13000238Y-12992524D02*
X12952619Y-12992524D01*
X13152619Y-12992524D02*
X13152619Y-12859190D01*
X13152619Y-12897286D02*
X13162143Y-12878238D01*
X13162143Y-12878238D02*
X13171667Y-12868714D01*
X13171667Y-12868714D02*
X13190714Y-12859190D01*
X13190714Y-12859190D02*
X13209762Y-12859190D01*
X13276428Y-12992524D02*
X13276428Y-12859190D01*
X13276428Y-12792524D02*
X13266905Y-12802048D01*
X13266905Y-12802048D02*
X13276428Y-12811571D01*
X13276428Y-12811571D02*
X13285952Y-12802048D01*
X13285952Y-12802048D02*
X13276428Y-12792524D01*
X13276428Y-12792524D02*
X13276428Y-12811571D01*
X13400238Y-12992524D02*
X13381190Y-12983000D01*
X13381190Y-12983000D02*
X13371667Y-12963952D01*
X13371667Y-12963952D02*
X13371667Y-12792524D01*
X13505000Y-12992524D02*
X13485952Y-12983000D01*
X13485952Y-12983000D02*
X13476428Y-12963952D01*
X13476428Y-12963952D02*
X13476428Y-12792524D01*
X13733571Y-12992524D02*
X13733571Y-12792524D01*
X13733571Y-12792524D02*
X13800238Y-12935381D01*
X13800238Y-12935381D02*
X13866905Y-12792524D01*
X13866905Y-12792524D02*
X13866905Y-12992524D01*
X14047857Y-12992524D02*
X14047857Y-12887762D01*
X14047857Y-12887762D02*
X14038333Y-12868714D01*
X14038333Y-12868714D02*
X14019286Y-12859190D01*
X14019286Y-12859190D02*
X13981190Y-12859190D01*
X13981190Y-12859190D02*
X13962143Y-12868714D01*
X14047857Y-12983000D02*
X14028809Y-12992524D01*
X14028809Y-12992524D02*
X13981190Y-12992524D01*
X13981190Y-12992524D02*
X13962143Y-12983000D01*
X13962143Y-12983000D02*
X13952619Y-12963952D01*
X13952619Y-12963952D02*
X13952619Y-12944905D01*
X13952619Y-12944905D02*
X13962143Y-12925857D01*
X13962143Y-12925857D02*
X13981190Y-12916333D01*
X13981190Y-12916333D02*
X14028809Y-12916333D01*
X14028809Y-12916333D02*
X14047857Y-12906809D01*
X14143095Y-12859190D02*
X14143095Y-13059190D01*
X14143095Y-12868714D02*
X14162143Y-12859190D01*
X14162143Y-12859190D02*
X14200238Y-12859190D01*
X14200238Y-12859190D02*
X14219286Y-12868714D01*
X14219286Y-12868714D02*
X14228809Y-12878238D01*
X14228809Y-12878238D02*
X14238333Y-12897286D01*
X14238333Y-12897286D02*
X14238333Y-12954428D01*
X14238333Y-12954428D02*
X14228809Y-12973476D01*
X14228809Y-12973476D02*
X14219286Y-12983000D01*
X14219286Y-12983000D02*
X14200238Y-12992524D01*
X14200238Y-12992524D02*
X14162143Y-12992524D01*
X14162143Y-12992524D02*
X14143095Y-12983000D01*
X14324048Y-12973476D02*
X14333571Y-12983000D01*
X14333571Y-12983000D02*
X14324048Y-12992524D01*
X14324048Y-12992524D02*
X14314524Y-12983000D01*
X14314524Y-12983000D02*
X14324048Y-12973476D01*
X14324048Y-12973476D02*
X14324048Y-12992524D01*
X14324048Y-12868714D02*
X14333571Y-12878238D01*
X14333571Y-12878238D02*
X14324048Y-12887762D01*
X14324048Y-12887762D02*
X14314524Y-12878238D01*
X14314524Y-12878238D02*
X14324048Y-12868714D01*
X14324048Y-12868714D02*
X14324048Y-12887762D01*
D12*
X12675000Y-13305000D02*
X12705000Y-13335000D01*
X12705000Y-13305000D02*
X12675000Y-13335000D01*
D11*
X12990714Y-13212524D02*
X13009762Y-13212524D01*
X13009762Y-13212524D02*
X13028809Y-13222048D01*
X13028809Y-13222048D02*
X13038333Y-13231571D01*
X13038333Y-13231571D02*
X13047857Y-13250619D01*
X13047857Y-13250619D02*
X13057381Y-13288714D01*
X13057381Y-13288714D02*
X13057381Y-13336333D01*
X13057381Y-13336333D02*
X13047857Y-13374428D01*
X13047857Y-13374428D02*
X13038333Y-13393476D01*
X13038333Y-13393476D02*
X13028809Y-13403000D01*
X13028809Y-13403000D02*
X13009762Y-13412524D01*
X13009762Y-13412524D02*
X12990714Y-13412524D01*
X12990714Y-13412524D02*
X12971667Y-13403000D01*
X12971667Y-13403000D02*
X12962143Y-13393476D01*
X12962143Y-13393476D02*
X12952619Y-13374428D01*
X12952619Y-13374428D02*
X12943095Y-13336333D01*
X12943095Y-13336333D02*
X12943095Y-13288714D01*
X12943095Y-13288714D02*
X12952619Y-13250619D01*
X12952619Y-13250619D02*
X12962143Y-13231571D01*
X12962143Y-13231571D02*
X12971667Y-13222048D01*
X12971667Y-13222048D02*
X12990714Y-13212524D01*
X13143095Y-13393476D02*
X13152619Y-13403000D01*
X13152619Y-13403000D02*
X13143095Y-13412524D01*
X13143095Y-13412524D02*
X13133571Y-13403000D01*
X13133571Y-13403000D02*
X13143095Y-13393476D01*
X13143095Y-13393476D02*
X13143095Y-13412524D01*
X13219286Y-13212524D02*
X13343095Y-13212524D01*
X13343095Y-13212524D02*
X13276428Y-13288714D01*
X13276428Y-13288714D02*
X13305000Y-13288714D01*
X13305000Y-13288714D02*
X13324048Y-13298238D01*
X13324048Y-13298238D02*
X13333571Y-13307762D01*
X13333571Y-13307762D02*
X13343095Y-13326809D01*
X13343095Y-13326809D02*
X13343095Y-13374428D01*
X13343095Y-13374428D02*
X13333571Y-13393476D01*
X13333571Y-13393476D02*
X13324048Y-13403000D01*
X13324048Y-13403000D02*
X13305000Y-13412524D01*
X13305000Y-13412524D02*
X13247857Y-13412524D01*
X13247857Y-13412524D02*
X13228809Y-13403000D01*
X13228809Y-13403000D02*
X13219286Y-13393476D01*
X13466905Y-13212524D02*
X13485952Y-13212524D01*
X13485952Y-13212524D02*
X13505000Y-13222048D01*
X13505000Y-13222048D02*
X13514524Y-13231571D01*
X13514524Y-13231571D02*
X13524048Y-13250619D01*
X13524048Y-13250619D02*
X13533571Y-13288714D01*
X13533571Y-13288714D02*
X13533571Y-13336333D01*
X13533571Y-13336333D02*
X13524048Y-13374428D01*
X13524048Y-13374428D02*
X13514524Y-13393476D01*
X13514524Y-13393476D02*
X13505000Y-13403000D01*
X13505000Y-13403000D02*
X13485952Y-13412524D01*
X13485952Y-13412524D02*
X13466905Y-13412524D01*
X13466905Y-13412524D02*
X13447857Y-13403000D01*
X13447857Y-13403000D02*
X13438333Y-13393476D01*
X13438333Y-13393476D02*
X13428809Y-13374428D01*
X13428809Y-13374428D02*
X13419286Y-13336333D01*
X13419286Y-13336333D02*
X13419286Y-13288714D01*
X13419286Y-13288714D02*
X13428809Y-13250619D01*
X13428809Y-13250619D02*
X13438333Y-13231571D01*
X13438333Y-13231571D02*
X13447857Y-13222048D01*
X13447857Y-13222048D02*
X13466905Y-13212524D01*
X13657381Y-13212524D02*
X13676429Y-13212524D01*
X13676429Y-13212524D02*
X13695476Y-13222048D01*
X13695476Y-13222048D02*
X13705000Y-13231571D01*
X13705000Y-13231571D02*
X13714524Y-13250619D01*
X13714524Y-13250619D02*
X13724048Y-13288714D01*
X13724048Y-13288714D02*
X13724048Y-13336333D01*
X13724048Y-13336333D02*
X13714524Y-13374428D01*
X13714524Y-13374428D02*
X13705000Y-13393476D01*
X13705000Y-13393476D02*
X13695476Y-13403000D01*
X13695476Y-13403000D02*
X13676429Y-13412524D01*
X13676429Y-13412524D02*
X13657381Y-13412524D01*
X13657381Y-13412524D02*
X13638333Y-13403000D01*
X13638333Y-13403000D02*
X13628809Y-13393476D01*
X13628809Y-13393476D02*
X13619286Y-13374428D01*
X13619286Y-13374428D02*
X13609762Y-13336333D01*
X13609762Y-13336333D02*
X13609762Y-13288714D01*
X13609762Y-13288714D02*
X13619286Y-13250619D01*
X13619286Y-13250619D02*
X13628809Y-13231571D01*
X13628809Y-13231571D02*
X13638333Y-13222048D01*
X13638333Y-13222048D02*
X13657381Y-13212524D01*
X13809762Y-13412524D02*
X13809762Y-13279190D01*
X13809762Y-13298238D02*
X13819286Y-13288714D01*
X13819286Y-13288714D02*
X13838333Y-13279190D01*
X13838333Y-13279190D02*
X13866905Y-13279190D01*
X13866905Y-13279190D02*
X13885952Y-13288714D01*
X13885952Y-13288714D02*
X13895476Y-13307762D01*
X13895476Y-13307762D02*
X13895476Y-13412524D01*
X13895476Y-13307762D02*
X13905000Y-13288714D01*
X13905000Y-13288714D02*
X13924048Y-13279190D01*
X13924048Y-13279190D02*
X13952619Y-13279190D01*
X13952619Y-13279190D02*
X13971667Y-13288714D01*
X13971667Y-13288714D02*
X13981190Y-13307762D01*
X13981190Y-13307762D02*
X13981190Y-13412524D01*
X14076429Y-13412524D02*
X14076429Y-13279190D01*
X14076429Y-13298238D02*
X14085952Y-13288714D01*
X14085952Y-13288714D02*
X14105000Y-13279190D01*
X14105000Y-13279190D02*
X14133571Y-13279190D01*
X14133571Y-13279190D02*
X14152619Y-13288714D01*
X14152619Y-13288714D02*
X14162143Y-13307762D01*
X14162143Y-13307762D02*
X14162143Y-13412524D01*
X14162143Y-13307762D02*
X14171667Y-13288714D01*
X14171667Y-13288714D02*
X14190714Y-13279190D01*
X14190714Y-13279190D02*
X14219286Y-13279190D01*
X14219286Y-13279190D02*
X14238333Y-13288714D01*
X14238333Y-13288714D02*
X14247857Y-13307762D01*
X14247857Y-13307762D02*
X14247857Y-13412524D01*
X14638333Y-13203000D02*
X14466905Y-13460143D01*
X14895476Y-13212524D02*
X14914524Y-13212524D01*
X14914524Y-13212524D02*
X14933572Y-13222048D01*
X14933572Y-13222048D02*
X14943095Y-13231571D01*
X14943095Y-13231571D02*
X14952619Y-13250619D01*
X14952619Y-13250619D02*
X14962143Y-13288714D01*
X14962143Y-13288714D02*
X14962143Y-13336333D01*
X14962143Y-13336333D02*
X14952619Y-13374428D01*
X14952619Y-13374428D02*
X14943095Y-13393476D01*
X14943095Y-13393476D02*
X14933572Y-13403000D01*
X14933572Y-13403000D02*
X14914524Y-13412524D01*
X14914524Y-13412524D02*
X14895476Y-13412524D01*
X14895476Y-13412524D02*
X14876429Y-13403000D01*
X14876429Y-13403000D02*
X14866905Y-13393476D01*
X14866905Y-13393476D02*
X14857381Y-13374428D01*
X14857381Y-13374428D02*
X14847857Y-13336333D01*
X14847857Y-13336333D02*
X14847857Y-13288714D01*
X14847857Y-13288714D02*
X14857381Y-13250619D01*
X14857381Y-13250619D02*
X14866905Y-13231571D01*
X14866905Y-13231571D02*
X14876429Y-13222048D01*
X14876429Y-13222048D02*
X14895476Y-13212524D01*
X15047857Y-13393476D02*
X15057381Y-13403000D01*
X15057381Y-13403000D02*
X15047857Y-13412524D01*
X15047857Y-13412524D02*
X15038333Y-13403000D01*
X15038333Y-13403000D02*
X15047857Y-13393476D01*
X15047857Y-13393476D02*
X15047857Y-13412524D01*
X15181191Y-13212524D02*
X15200238Y-13212524D01*
X15200238Y-13212524D02*
X15219286Y-13222048D01*
X15219286Y-13222048D02*
X15228810Y-13231571D01*
X15228810Y-13231571D02*
X15238333Y-13250619D01*
X15238333Y-13250619D02*
X15247857Y-13288714D01*
X15247857Y-13288714D02*
X15247857Y-13336333D01*
X15247857Y-13336333D02*
X15238333Y-13374428D01*
X15238333Y-13374428D02*
X15228810Y-13393476D01*
X15228810Y-13393476D02*
X15219286Y-13403000D01*
X15219286Y-13403000D02*
X15200238Y-13412524D01*
X15200238Y-13412524D02*
X15181191Y-13412524D01*
X15181191Y-13412524D02*
X15162143Y-13403000D01*
X15162143Y-13403000D02*
X15152619Y-13393476D01*
X15152619Y-13393476D02*
X15143095Y-13374428D01*
X15143095Y-13374428D02*
X15133572Y-13336333D01*
X15133572Y-13336333D02*
X15133572Y-13288714D01*
X15133572Y-13288714D02*
X15143095Y-13250619D01*
X15143095Y-13250619D02*
X15152619Y-13231571D01*
X15152619Y-13231571D02*
X15162143Y-13222048D01*
X15162143Y-13222048D02*
X15181191Y-13212524D01*
X15438333Y-13412524D02*
X15324048Y-13412524D01*
X15381191Y-13412524D02*
X15381191Y-13212524D01*
X15381191Y-13212524D02*
X15362143Y-13241095D01*
X15362143Y-13241095D02*
X15343095Y-13260143D01*
X15343095Y-13260143D02*
X15324048Y-13269667D01*
X15628810Y-13412524D02*
X15514524Y-13412524D01*
X15571667Y-13412524D02*
X15571667Y-13212524D01*
X15571667Y-13212524D02*
X15552619Y-13241095D01*
X15552619Y-13241095D02*
X15533572Y-13260143D01*
X15533572Y-13260143D02*
X15514524Y-13269667D01*
X15743095Y-13298238D02*
X15724048Y-13288714D01*
X15724048Y-13288714D02*
X15714524Y-13279190D01*
X15714524Y-13279190D02*
X15705000Y-13260143D01*
X15705000Y-13260143D02*
X15705000Y-13250619D01*
X15705000Y-13250619D02*
X15714524Y-13231571D01*
X15714524Y-13231571D02*
X15724048Y-13222048D01*
X15724048Y-13222048D02*
X15743095Y-13212524D01*
X15743095Y-13212524D02*
X15781191Y-13212524D01*
X15781191Y-13212524D02*
X15800238Y-13222048D01*
X15800238Y-13222048D02*
X15809762Y-13231571D01*
X15809762Y-13231571D02*
X15819286Y-13250619D01*
X15819286Y-13250619D02*
X15819286Y-13260143D01*
X15819286Y-13260143D02*
X15809762Y-13279190D01*
X15809762Y-13279190D02*
X15800238Y-13288714D01*
X15800238Y-13288714D02*
X15781191Y-13298238D01*
X15781191Y-13298238D02*
X15743095Y-13298238D01*
X15743095Y-13298238D02*
X15724048Y-13307762D01*
X15724048Y-13307762D02*
X15714524Y-13317286D01*
X15714524Y-13317286D02*
X15705000Y-13336333D01*
X15705000Y-13336333D02*
X15705000Y-13374428D01*
X15705000Y-13374428D02*
X15714524Y-13393476D01*
X15714524Y-13393476D02*
X15724048Y-13403000D01*
X15724048Y-13403000D02*
X15743095Y-13412524D01*
X15743095Y-13412524D02*
X15781191Y-13412524D01*
X15781191Y-13412524D02*
X15800238Y-13403000D01*
X15800238Y-13403000D02*
X15809762Y-13393476D01*
X15809762Y-13393476D02*
X15819286Y-13374428D01*
X15819286Y-13374428D02*
X15819286Y-13336333D01*
X15819286Y-13336333D02*
X15809762Y-13317286D01*
X15809762Y-13317286D02*
X15800238Y-13307762D01*
X15800238Y-13307762D02*
X15781191Y-13298238D01*
X15895476Y-13212524D02*
X15895476Y-13250619D01*
X15971667Y-13212524D02*
X15971667Y-13250619D01*
X16266905Y-13488714D02*
X16257381Y-13479190D01*
X16257381Y-13479190D02*
X16238334Y-13450619D01*
X16238334Y-13450619D02*
X16228810Y-13431571D01*
X16228810Y-13431571D02*
X16219286Y-13403000D01*
X16219286Y-13403000D02*
X16209762Y-13355381D01*
X16209762Y-13355381D02*
X16209762Y-13317286D01*
X16209762Y-13317286D02*
X16219286Y-13269667D01*
X16219286Y-13269667D02*
X16228810Y-13241095D01*
X16228810Y-13241095D02*
X16238334Y-13222048D01*
X16238334Y-13222048D02*
X16257381Y-13193476D01*
X16257381Y-13193476D02*
X16266905Y-13183952D01*
X16447857Y-13412524D02*
X16333572Y-13412524D01*
X16390714Y-13412524D02*
X16390714Y-13212524D01*
X16390714Y-13212524D02*
X16371667Y-13241095D01*
X16371667Y-13241095D02*
X16352619Y-13260143D01*
X16352619Y-13260143D02*
X16333572Y-13269667D01*
X16619286Y-13212524D02*
X16581191Y-13212524D01*
X16581191Y-13212524D02*
X16562143Y-13222048D01*
X16562143Y-13222048D02*
X16552619Y-13231571D01*
X16552619Y-13231571D02*
X16533572Y-13260143D01*
X16533572Y-13260143D02*
X16524048Y-13298238D01*
X16524048Y-13298238D02*
X16524048Y-13374428D01*
X16524048Y-13374428D02*
X16533572Y-13393476D01*
X16533572Y-13393476D02*
X16543095Y-13403000D01*
X16543095Y-13403000D02*
X16562143Y-13412524D01*
X16562143Y-13412524D02*
X16600238Y-13412524D01*
X16600238Y-13412524D02*
X16619286Y-13403000D01*
X16619286Y-13403000D02*
X16628810Y-13393476D01*
X16628810Y-13393476D02*
X16638334Y-13374428D01*
X16638334Y-13374428D02*
X16638334Y-13326809D01*
X16638334Y-13326809D02*
X16628810Y-13307762D01*
X16628810Y-13307762D02*
X16619286Y-13298238D01*
X16619286Y-13298238D02*
X16600238Y-13288714D01*
X16600238Y-13288714D02*
X16562143Y-13288714D01*
X16562143Y-13288714D02*
X16543095Y-13298238D01*
X16543095Y-13298238D02*
X16533572Y-13307762D01*
X16533572Y-13307762D02*
X16524048Y-13326809D01*
X16876429Y-13412524D02*
X16876429Y-13212524D01*
X16962143Y-13412524D02*
X16962143Y-13307762D01*
X16962143Y-13307762D02*
X16952619Y-13288714D01*
X16952619Y-13288714D02*
X16933572Y-13279190D01*
X16933572Y-13279190D02*
X16905000Y-13279190D01*
X16905000Y-13279190D02*
X16885953Y-13288714D01*
X16885953Y-13288714D02*
X16876429Y-13298238D01*
X17085953Y-13412524D02*
X17066905Y-13403000D01*
X17066905Y-13403000D02*
X17057381Y-13393476D01*
X17057381Y-13393476D02*
X17047858Y-13374428D01*
X17047858Y-13374428D02*
X17047858Y-13317286D01*
X17047858Y-13317286D02*
X17057381Y-13298238D01*
X17057381Y-13298238D02*
X17066905Y-13288714D01*
X17066905Y-13288714D02*
X17085953Y-13279190D01*
X17085953Y-13279190D02*
X17114524Y-13279190D01*
X17114524Y-13279190D02*
X17133572Y-13288714D01*
X17133572Y-13288714D02*
X17143096Y-13298238D01*
X17143096Y-13298238D02*
X17152619Y-13317286D01*
X17152619Y-13317286D02*
X17152619Y-13374428D01*
X17152619Y-13374428D02*
X17143096Y-13393476D01*
X17143096Y-13393476D02*
X17133572Y-13403000D01*
X17133572Y-13403000D02*
X17114524Y-13412524D01*
X17114524Y-13412524D02*
X17085953Y-13412524D01*
X17266905Y-13412524D02*
X17247858Y-13403000D01*
X17247858Y-13403000D02*
X17238334Y-13383952D01*
X17238334Y-13383952D02*
X17238334Y-13212524D01*
X17419286Y-13403000D02*
X17400239Y-13412524D01*
X17400239Y-13412524D02*
X17362143Y-13412524D01*
X17362143Y-13412524D02*
X17343096Y-13403000D01*
X17343096Y-13403000D02*
X17333572Y-13383952D01*
X17333572Y-13383952D02*
X17333572Y-13307762D01*
X17333572Y-13307762D02*
X17343096Y-13288714D01*
X17343096Y-13288714D02*
X17362143Y-13279190D01*
X17362143Y-13279190D02*
X17400239Y-13279190D01*
X17400239Y-13279190D02*
X17419286Y-13288714D01*
X17419286Y-13288714D02*
X17428810Y-13307762D01*
X17428810Y-13307762D02*
X17428810Y-13326809D01*
X17428810Y-13326809D02*
X17333572Y-13345857D01*
X17505000Y-13403000D02*
X17524048Y-13412524D01*
X17524048Y-13412524D02*
X17562143Y-13412524D01*
X17562143Y-13412524D02*
X17581191Y-13403000D01*
X17581191Y-13403000D02*
X17590715Y-13383952D01*
X17590715Y-13383952D02*
X17590715Y-13374428D01*
X17590715Y-13374428D02*
X17581191Y-13355381D01*
X17581191Y-13355381D02*
X17562143Y-13345857D01*
X17562143Y-13345857D02*
X17533572Y-13345857D01*
X17533572Y-13345857D02*
X17514524Y-13336333D01*
X17514524Y-13336333D02*
X17505000Y-13317286D01*
X17505000Y-13317286D02*
X17505000Y-13307762D01*
X17505000Y-13307762D02*
X17514524Y-13288714D01*
X17514524Y-13288714D02*
X17533572Y-13279190D01*
X17533572Y-13279190D02*
X17562143Y-13279190D01*
X17562143Y-13279190D02*
X17581191Y-13288714D01*
X17657381Y-13488714D02*
X17666905Y-13479190D01*
X17666905Y-13479190D02*
X17685953Y-13450619D01*
X17685953Y-13450619D02*
X17695477Y-13431571D01*
X17695477Y-13431571D02*
X17705000Y-13403000D01*
X17705000Y-13403000D02*
X17714524Y-13355381D01*
X17714524Y-13355381D02*
X17714524Y-13317286D01*
X17714524Y-13317286D02*
X17705000Y-13269667D01*
X17705000Y-13269667D02*
X17695477Y-13241095D01*
X17695477Y-13241095D02*
X17685953Y-13222048D01*
X17685953Y-13222048D02*
X17666905Y-13193476D01*
X17666905Y-13193476D02*
X17657381Y-13183952D01*
D13*
X12705000Y-13584000D02*
G75*
G03*
X12705000Y-13584000I-20000J0D01*
G01*
D11*
X12990714Y-13476524D02*
X13009762Y-13476524D01*
X13009762Y-13476524D02*
X13028809Y-13486048D01*
X13028809Y-13486048D02*
X13038333Y-13495571D01*
X13038333Y-13495571D02*
X13047857Y-13514619D01*
X13047857Y-13514619D02*
X13057381Y-13552714D01*
X13057381Y-13552714D02*
X13057381Y-13600333D01*
X13057381Y-13600333D02*
X13047857Y-13638428D01*
X13047857Y-13638428D02*
X13038333Y-13657476D01*
X13038333Y-13657476D02*
X13028809Y-13667000D01*
X13028809Y-13667000D02*
X13009762Y-13676524D01*
X13009762Y-13676524D02*
X12990714Y-13676524D01*
X12990714Y-13676524D02*
X12971667Y-13667000D01*
X12971667Y-13667000D02*
X12962143Y-13657476D01*
X12962143Y-13657476D02*
X12952619Y-13638428D01*
X12952619Y-13638428D02*
X12943095Y-13600333D01*
X12943095Y-13600333D02*
X12943095Y-13552714D01*
X12943095Y-13552714D02*
X12952619Y-13514619D01*
X12952619Y-13514619D02*
X12962143Y-13495571D01*
X12962143Y-13495571D02*
X12971667Y-13486048D01*
X12971667Y-13486048D02*
X12990714Y-13476524D01*
X13143095Y-13657476D02*
X13152619Y-13667000D01*
X13152619Y-13667000D02*
X13143095Y-13676524D01*
X13143095Y-13676524D02*
X13133571Y-13667000D01*
X13133571Y-13667000D02*
X13143095Y-13657476D01*
X13143095Y-13657476D02*
X13143095Y-13676524D01*
X13324048Y-13543190D02*
X13324048Y-13676524D01*
X13276428Y-13467000D02*
X13228809Y-13609857D01*
X13228809Y-13609857D02*
X13352619Y-13609857D01*
X13466905Y-13476524D02*
X13485952Y-13476524D01*
X13485952Y-13476524D02*
X13505000Y-13486048D01*
X13505000Y-13486048D02*
X13514524Y-13495571D01*
X13514524Y-13495571D02*
X13524048Y-13514619D01*
X13524048Y-13514619D02*
X13533571Y-13552714D01*
X13533571Y-13552714D02*
X13533571Y-13600333D01*
X13533571Y-13600333D02*
X13524048Y-13638428D01*
X13524048Y-13638428D02*
X13514524Y-13657476D01*
X13514524Y-13657476D02*
X13505000Y-13667000D01*
X13505000Y-13667000D02*
X13485952Y-13676524D01*
X13485952Y-13676524D02*
X13466905Y-13676524D01*
X13466905Y-13676524D02*
X13447857Y-13667000D01*
X13447857Y-13667000D02*
X13438333Y-13657476D01*
X13438333Y-13657476D02*
X13428809Y-13638428D01*
X13428809Y-13638428D02*
X13419286Y-13600333D01*
X13419286Y-13600333D02*
X13419286Y-13552714D01*
X13419286Y-13552714D02*
X13428809Y-13514619D01*
X13428809Y-13514619D02*
X13438333Y-13495571D01*
X13438333Y-13495571D02*
X13447857Y-13486048D01*
X13447857Y-13486048D02*
X13466905Y-13476524D01*
X13657381Y-13476524D02*
X13676429Y-13476524D01*
X13676429Y-13476524D02*
X13695476Y-13486048D01*
X13695476Y-13486048D02*
X13705000Y-13495571D01*
X13705000Y-13495571D02*
X13714524Y-13514619D01*
X13714524Y-13514619D02*
X13724048Y-13552714D01*
X13724048Y-13552714D02*
X13724048Y-13600333D01*
X13724048Y-13600333D02*
X13714524Y-13638428D01*
X13714524Y-13638428D02*
X13705000Y-13657476D01*
X13705000Y-13657476D02*
X13695476Y-13667000D01*
X13695476Y-13667000D02*
X13676429Y-13676524D01*
X13676429Y-13676524D02*
X13657381Y-13676524D01*
X13657381Y-13676524D02*
X13638333Y-13667000D01*
X13638333Y-13667000D02*
X13628809Y-13657476D01*
X13628809Y-13657476D02*
X13619286Y-13638428D01*
X13619286Y-13638428D02*
X13609762Y-13600333D01*
X13609762Y-13600333D02*
X13609762Y-13552714D01*
X13609762Y-13552714D02*
X13619286Y-13514619D01*
X13619286Y-13514619D02*
X13628809Y-13495571D01*
X13628809Y-13495571D02*
X13638333Y-13486048D01*
X13638333Y-13486048D02*
X13657381Y-13476524D01*
X13809762Y-13676524D02*
X13809762Y-13543190D01*
X13809762Y-13562238D02*
X13819286Y-13552714D01*
X13819286Y-13552714D02*
X13838333Y-13543190D01*
X13838333Y-13543190D02*
X13866905Y-13543190D01*
X13866905Y-13543190D02*
X13885952Y-13552714D01*
X13885952Y-13552714D02*
X13895476Y-13571762D01*
X13895476Y-13571762D02*
X13895476Y-13676524D01*
X13895476Y-13571762D02*
X13905000Y-13552714D01*
X13905000Y-13552714D02*
X13924048Y-13543190D01*
X13924048Y-13543190D02*
X13952619Y-13543190D01*
X13952619Y-13543190D02*
X13971667Y-13552714D01*
X13971667Y-13552714D02*
X13981190Y-13571762D01*
X13981190Y-13571762D02*
X13981190Y-13676524D01*
X14076429Y-13676524D02*
X14076429Y-13543190D01*
X14076429Y-13562238D02*
X14085952Y-13552714D01*
X14085952Y-13552714D02*
X14105000Y-13543190D01*
X14105000Y-13543190D02*
X14133571Y-13543190D01*
X14133571Y-13543190D02*
X14152619Y-13552714D01*
X14152619Y-13552714D02*
X14162143Y-13571762D01*
X14162143Y-13571762D02*
X14162143Y-13676524D01*
X14162143Y-13571762D02*
X14171667Y-13552714D01*
X14171667Y-13552714D02*
X14190714Y-13543190D01*
X14190714Y-13543190D02*
X14219286Y-13543190D01*
X14219286Y-13543190D02*
X14238333Y-13552714D01*
X14238333Y-13552714D02*
X14247857Y-13571762D01*
X14247857Y-13571762D02*
X14247857Y-13676524D01*
X14638333Y-13467000D02*
X14466905Y-13724143D01*
X14895476Y-13476524D02*
X14914524Y-13476524D01*
X14914524Y-13476524D02*
X14933572Y-13486048D01*
X14933572Y-13486048D02*
X14943095Y-13495571D01*
X14943095Y-13495571D02*
X14952619Y-13514619D01*
X14952619Y-13514619D02*
X14962143Y-13552714D01*
X14962143Y-13552714D02*
X14962143Y-13600333D01*
X14962143Y-13600333D02*
X14952619Y-13638428D01*
X14952619Y-13638428D02*
X14943095Y-13657476D01*
X14943095Y-13657476D02*
X14933572Y-13667000D01*
X14933572Y-13667000D02*
X14914524Y-13676524D01*
X14914524Y-13676524D02*
X14895476Y-13676524D01*
X14895476Y-13676524D02*
X14876429Y-13667000D01*
X14876429Y-13667000D02*
X14866905Y-13657476D01*
X14866905Y-13657476D02*
X14857381Y-13638428D01*
X14857381Y-13638428D02*
X14847857Y-13600333D01*
X14847857Y-13600333D02*
X14847857Y-13552714D01*
X14847857Y-13552714D02*
X14857381Y-13514619D01*
X14857381Y-13514619D02*
X14866905Y-13495571D01*
X14866905Y-13495571D02*
X14876429Y-13486048D01*
X14876429Y-13486048D02*
X14895476Y-13476524D01*
X15047857Y-13657476D02*
X15057381Y-13667000D01*
X15057381Y-13667000D02*
X15047857Y-13676524D01*
X15047857Y-13676524D02*
X15038333Y-13667000D01*
X15038333Y-13667000D02*
X15047857Y-13657476D01*
X15047857Y-13657476D02*
X15047857Y-13676524D01*
X15181191Y-13476524D02*
X15200238Y-13476524D01*
X15200238Y-13476524D02*
X15219286Y-13486048D01*
X15219286Y-13486048D02*
X15228810Y-13495571D01*
X15228810Y-13495571D02*
X15238333Y-13514619D01*
X15238333Y-13514619D02*
X15247857Y-13552714D01*
X15247857Y-13552714D02*
X15247857Y-13600333D01*
X15247857Y-13600333D02*
X15238333Y-13638428D01*
X15238333Y-13638428D02*
X15228810Y-13657476D01*
X15228810Y-13657476D02*
X15219286Y-13667000D01*
X15219286Y-13667000D02*
X15200238Y-13676524D01*
X15200238Y-13676524D02*
X15181191Y-13676524D01*
X15181191Y-13676524D02*
X15162143Y-13667000D01*
X15162143Y-13667000D02*
X15152619Y-13657476D01*
X15152619Y-13657476D02*
X15143095Y-13638428D01*
X15143095Y-13638428D02*
X15133572Y-13600333D01*
X15133572Y-13600333D02*
X15133572Y-13552714D01*
X15133572Y-13552714D02*
X15143095Y-13514619D01*
X15143095Y-13514619D02*
X15152619Y-13495571D01*
X15152619Y-13495571D02*
X15162143Y-13486048D01*
X15162143Y-13486048D02*
X15181191Y-13476524D01*
X15438333Y-13676524D02*
X15324048Y-13676524D01*
X15381191Y-13676524D02*
X15381191Y-13476524D01*
X15381191Y-13476524D02*
X15362143Y-13505095D01*
X15362143Y-13505095D02*
X15343095Y-13524143D01*
X15343095Y-13524143D02*
X15324048Y-13533667D01*
X15619286Y-13476524D02*
X15524048Y-13476524D01*
X15524048Y-13476524D02*
X15514524Y-13571762D01*
X15514524Y-13571762D02*
X15524048Y-13562238D01*
X15524048Y-13562238D02*
X15543095Y-13552714D01*
X15543095Y-13552714D02*
X15590714Y-13552714D01*
X15590714Y-13552714D02*
X15609762Y-13562238D01*
X15609762Y-13562238D02*
X15619286Y-13571762D01*
X15619286Y-13571762D02*
X15628810Y-13590809D01*
X15628810Y-13590809D02*
X15628810Y-13638428D01*
X15628810Y-13638428D02*
X15619286Y-13657476D01*
X15619286Y-13657476D02*
X15609762Y-13667000D01*
X15609762Y-13667000D02*
X15590714Y-13676524D01*
X15590714Y-13676524D02*
X15543095Y-13676524D01*
X15543095Y-13676524D02*
X15524048Y-13667000D01*
X15524048Y-13667000D02*
X15514524Y-13657476D01*
X15695476Y-13476524D02*
X15828810Y-13476524D01*
X15828810Y-13476524D02*
X15743095Y-13676524D01*
X15895476Y-13476524D02*
X15895476Y-13514619D01*
X15971667Y-13476524D02*
X15971667Y-13514619D01*
X16266905Y-13752714D02*
X16257381Y-13743190D01*
X16257381Y-13743190D02*
X16238334Y-13714619D01*
X16238334Y-13714619D02*
X16228810Y-13695571D01*
X16228810Y-13695571D02*
X16219286Y-13667000D01*
X16219286Y-13667000D02*
X16209762Y-13619381D01*
X16209762Y-13619381D02*
X16209762Y-13581286D01*
X16209762Y-13581286D02*
X16219286Y-13533667D01*
X16219286Y-13533667D02*
X16228810Y-13505095D01*
X16228810Y-13505095D02*
X16238334Y-13486048D01*
X16238334Y-13486048D02*
X16257381Y-13457476D01*
X16257381Y-13457476D02*
X16266905Y-13447952D01*
X16447857Y-13676524D02*
X16333572Y-13676524D01*
X16390714Y-13676524D02*
X16390714Y-13476524D01*
X16390714Y-13476524D02*
X16371667Y-13505095D01*
X16371667Y-13505095D02*
X16352619Y-13524143D01*
X16352619Y-13524143D02*
X16333572Y-13533667D01*
X16524048Y-13495571D02*
X16533572Y-13486048D01*
X16533572Y-13486048D02*
X16552619Y-13476524D01*
X16552619Y-13476524D02*
X16600238Y-13476524D01*
X16600238Y-13476524D02*
X16619286Y-13486048D01*
X16619286Y-13486048D02*
X16628810Y-13495571D01*
X16628810Y-13495571D02*
X16638334Y-13514619D01*
X16638334Y-13514619D02*
X16638334Y-13533667D01*
X16638334Y-13533667D02*
X16628810Y-13562238D01*
X16628810Y-13562238D02*
X16514524Y-13676524D01*
X16514524Y-13676524D02*
X16638334Y-13676524D01*
X16828810Y-13676524D02*
X16714524Y-13676524D01*
X16771667Y-13676524D02*
X16771667Y-13476524D01*
X16771667Y-13476524D02*
X16752619Y-13505095D01*
X16752619Y-13505095D02*
X16733572Y-13524143D01*
X16733572Y-13524143D02*
X16714524Y-13533667D01*
X17066905Y-13676524D02*
X17066905Y-13476524D01*
X17152619Y-13676524D02*
X17152619Y-13571762D01*
X17152619Y-13571762D02*
X17143096Y-13552714D01*
X17143096Y-13552714D02*
X17124048Y-13543190D01*
X17124048Y-13543190D02*
X17095477Y-13543190D01*
X17095477Y-13543190D02*
X17076429Y-13552714D01*
X17076429Y-13552714D02*
X17066905Y-13562238D01*
X17276429Y-13676524D02*
X17257381Y-13667000D01*
X17257381Y-13667000D02*
X17247858Y-13657476D01*
X17247858Y-13657476D02*
X17238334Y-13638428D01*
X17238334Y-13638428D02*
X17238334Y-13581286D01*
X17238334Y-13581286D02*
X17247858Y-13562238D01*
X17247858Y-13562238D02*
X17257381Y-13552714D01*
X17257381Y-13552714D02*
X17276429Y-13543190D01*
X17276429Y-13543190D02*
X17305000Y-13543190D01*
X17305000Y-13543190D02*
X17324048Y-13552714D01*
X17324048Y-13552714D02*
X17333572Y-13562238D01*
X17333572Y-13562238D02*
X17343096Y-13581286D01*
X17343096Y-13581286D02*
X17343096Y-13638428D01*
X17343096Y-13638428D02*
X17333572Y-13657476D01*
X17333572Y-13657476D02*
X17324048Y-13667000D01*
X17324048Y-13667000D02*
X17305000Y-13676524D01*
X17305000Y-13676524D02*
X17276429Y-13676524D01*
X17457381Y-13676524D02*
X17438334Y-13667000D01*
X17438334Y-13667000D02*
X17428810Y-13647952D01*
X17428810Y-13647952D02*
X17428810Y-13476524D01*
X17609762Y-13667000D02*
X17590715Y-13676524D01*
X17590715Y-13676524D02*
X17552619Y-13676524D01*
X17552619Y-13676524D02*
X17533572Y-13667000D01*
X17533572Y-13667000D02*
X17524048Y-13647952D01*
X17524048Y-13647952D02*
X17524048Y-13571762D01*
X17524048Y-13571762D02*
X17533572Y-13552714D01*
X17533572Y-13552714D02*
X17552619Y-13543190D01*
X17552619Y-13543190D02*
X17590715Y-13543190D01*
X17590715Y-13543190D02*
X17609762Y-13552714D01*
X17609762Y-13552714D02*
X17619286Y-13571762D01*
X17619286Y-13571762D02*
X17619286Y-13590809D01*
X17619286Y-13590809D02*
X17524048Y-13609857D01*
X17695477Y-13667000D02*
X17714524Y-13676524D01*
X17714524Y-13676524D02*
X17752619Y-13676524D01*
X17752619Y-13676524D02*
X17771667Y-13667000D01*
X17771667Y-13667000D02*
X17781191Y-13647952D01*
X17781191Y-13647952D02*
X17781191Y-13638428D01*
X17781191Y-13638428D02*
X17771667Y-13619381D01*
X17771667Y-13619381D02*
X17752619Y-13609857D01*
X17752619Y-13609857D02*
X17724048Y-13609857D01*
X17724048Y-13609857D02*
X17705000Y-13600333D01*
X17705000Y-13600333D02*
X17695477Y-13581286D01*
X17695477Y-13581286D02*
X17695477Y-13571762D01*
X17695477Y-13571762D02*
X17705000Y-13552714D01*
X17705000Y-13552714D02*
X17724048Y-13543190D01*
X17724048Y-13543190D02*
X17752619Y-13543190D01*
X17752619Y-13543190D02*
X17771667Y-13552714D01*
X17847858Y-13752714D02*
X17857381Y-13743190D01*
X17857381Y-13743190D02*
X17876429Y-13714619D01*
X17876429Y-13714619D02*
X17885953Y-13695571D01*
X17885953Y-13695571D02*
X17895477Y-13667000D01*
X17895477Y-13667000D02*
X17905000Y-13619381D01*
X17905000Y-13619381D02*
X17905000Y-13581286D01*
X17905000Y-13581286D02*
X17895477Y-13533667D01*
X17895477Y-13533667D02*
X17885953Y-13505095D01*
X17885953Y-13505095D02*
X17876429Y-13486048D01*
X17876429Y-13486048D02*
X17857381Y-13457476D01*
X17857381Y-13457476D02*
X17847858Y-13447952D01*
D14*
X12640000Y-13783000D02*
X12640000Y-13913000D01*
X12575000Y-13848000D02*
X12705000Y-13848000D01*
D11*
X13057381Y-13940524D02*
X12943095Y-13940524D01*
X13000238Y-13940524D02*
X13000238Y-13740524D01*
X13000238Y-13740524D02*
X12981190Y-13769095D01*
X12981190Y-13769095D02*
X12962143Y-13788143D01*
X12962143Y-13788143D02*
X12943095Y-13797667D01*
X13143095Y-13921476D02*
X13152619Y-13931000D01*
X13152619Y-13931000D02*
X13143095Y-13940524D01*
X13143095Y-13940524D02*
X13133571Y-13931000D01*
X13133571Y-13931000D02*
X13143095Y-13921476D01*
X13143095Y-13921476D02*
X13143095Y-13940524D01*
X13219286Y-13740524D02*
X13343095Y-13740524D01*
X13343095Y-13740524D02*
X13276428Y-13816714D01*
X13276428Y-13816714D02*
X13305000Y-13816714D01*
X13305000Y-13816714D02*
X13324048Y-13826238D01*
X13324048Y-13826238D02*
X13333571Y-13835762D01*
X13333571Y-13835762D02*
X13343095Y-13854809D01*
X13343095Y-13854809D02*
X13343095Y-13902428D01*
X13343095Y-13902428D02*
X13333571Y-13921476D01*
X13333571Y-13921476D02*
X13324048Y-13931000D01*
X13324048Y-13931000D02*
X13305000Y-13940524D01*
X13305000Y-13940524D02*
X13247857Y-13940524D01*
X13247857Y-13940524D02*
X13228809Y-13931000D01*
X13228809Y-13931000D02*
X13219286Y-13921476D01*
X13466905Y-13740524D02*
X13485952Y-13740524D01*
X13485952Y-13740524D02*
X13505000Y-13750048D01*
X13505000Y-13750048D02*
X13514524Y-13759571D01*
X13514524Y-13759571D02*
X13524048Y-13778619D01*
X13524048Y-13778619D02*
X13533571Y-13816714D01*
X13533571Y-13816714D02*
X13533571Y-13864333D01*
X13533571Y-13864333D02*
X13524048Y-13902428D01*
X13524048Y-13902428D02*
X13514524Y-13921476D01*
X13514524Y-13921476D02*
X13505000Y-13931000D01*
X13505000Y-13931000D02*
X13485952Y-13940524D01*
X13485952Y-13940524D02*
X13466905Y-13940524D01*
X13466905Y-13940524D02*
X13447857Y-13931000D01*
X13447857Y-13931000D02*
X13438333Y-13921476D01*
X13438333Y-13921476D02*
X13428809Y-13902428D01*
X13428809Y-13902428D02*
X13419286Y-13864333D01*
X13419286Y-13864333D02*
X13419286Y-13816714D01*
X13419286Y-13816714D02*
X13428809Y-13778619D01*
X13428809Y-13778619D02*
X13438333Y-13759571D01*
X13438333Y-13759571D02*
X13447857Y-13750048D01*
X13447857Y-13750048D02*
X13466905Y-13740524D01*
X13657381Y-13740524D02*
X13676429Y-13740524D01*
X13676429Y-13740524D02*
X13695476Y-13750048D01*
X13695476Y-13750048D02*
X13705000Y-13759571D01*
X13705000Y-13759571D02*
X13714524Y-13778619D01*
X13714524Y-13778619D02*
X13724048Y-13816714D01*
X13724048Y-13816714D02*
X13724048Y-13864333D01*
X13724048Y-13864333D02*
X13714524Y-13902428D01*
X13714524Y-13902428D02*
X13705000Y-13921476D01*
X13705000Y-13921476D02*
X13695476Y-13931000D01*
X13695476Y-13931000D02*
X13676429Y-13940524D01*
X13676429Y-13940524D02*
X13657381Y-13940524D01*
X13657381Y-13940524D02*
X13638333Y-13931000D01*
X13638333Y-13931000D02*
X13628809Y-13921476D01*
X13628809Y-13921476D02*
X13619286Y-13902428D01*
X13619286Y-13902428D02*
X13609762Y-13864333D01*
X13609762Y-13864333D02*
X13609762Y-13816714D01*
X13609762Y-13816714D02*
X13619286Y-13778619D01*
X13619286Y-13778619D02*
X13628809Y-13759571D01*
X13628809Y-13759571D02*
X13638333Y-13750048D01*
X13638333Y-13750048D02*
X13657381Y-13740524D01*
X13809762Y-13940524D02*
X13809762Y-13807190D01*
X13809762Y-13826238D02*
X13819286Y-13816714D01*
X13819286Y-13816714D02*
X13838333Y-13807190D01*
X13838333Y-13807190D02*
X13866905Y-13807190D01*
X13866905Y-13807190D02*
X13885952Y-13816714D01*
X13885952Y-13816714D02*
X13895476Y-13835762D01*
X13895476Y-13835762D02*
X13895476Y-13940524D01*
X13895476Y-13835762D02*
X13905000Y-13816714D01*
X13905000Y-13816714D02*
X13924048Y-13807190D01*
X13924048Y-13807190D02*
X13952619Y-13807190D01*
X13952619Y-13807190D02*
X13971667Y-13816714D01*
X13971667Y-13816714D02*
X13981190Y-13835762D01*
X13981190Y-13835762D02*
X13981190Y-13940524D01*
X14076429Y-13940524D02*
X14076429Y-13807190D01*
X14076429Y-13826238D02*
X14085952Y-13816714D01*
X14085952Y-13816714D02*
X14105000Y-13807190D01*
X14105000Y-13807190D02*
X14133571Y-13807190D01*
X14133571Y-13807190D02*
X14152619Y-13816714D01*
X14152619Y-13816714D02*
X14162143Y-13835762D01*
X14162143Y-13835762D02*
X14162143Y-13940524D01*
X14162143Y-13835762D02*
X14171667Y-13816714D01*
X14171667Y-13816714D02*
X14190714Y-13807190D01*
X14190714Y-13807190D02*
X14219286Y-13807190D01*
X14219286Y-13807190D02*
X14238333Y-13816714D01*
X14238333Y-13816714D02*
X14247857Y-13835762D01*
X14247857Y-13835762D02*
X14247857Y-13940524D01*
X14638333Y-13731000D02*
X14466905Y-13988143D01*
X14895476Y-13740524D02*
X14914524Y-13740524D01*
X14914524Y-13740524D02*
X14933572Y-13750048D01*
X14933572Y-13750048D02*
X14943095Y-13759571D01*
X14943095Y-13759571D02*
X14952619Y-13778619D01*
X14952619Y-13778619D02*
X14962143Y-13816714D01*
X14962143Y-13816714D02*
X14962143Y-13864333D01*
X14962143Y-13864333D02*
X14952619Y-13902428D01*
X14952619Y-13902428D02*
X14943095Y-13921476D01*
X14943095Y-13921476D02*
X14933572Y-13931000D01*
X14933572Y-13931000D02*
X14914524Y-13940524D01*
X14914524Y-13940524D02*
X14895476Y-13940524D01*
X14895476Y-13940524D02*
X14876429Y-13931000D01*
X14876429Y-13931000D02*
X14866905Y-13921476D01*
X14866905Y-13921476D02*
X14857381Y-13902428D01*
X14857381Y-13902428D02*
X14847857Y-13864333D01*
X14847857Y-13864333D02*
X14847857Y-13816714D01*
X14847857Y-13816714D02*
X14857381Y-13778619D01*
X14857381Y-13778619D02*
X14866905Y-13759571D01*
X14866905Y-13759571D02*
X14876429Y-13750048D01*
X14876429Y-13750048D02*
X14895476Y-13740524D01*
X15047857Y-13921476D02*
X15057381Y-13931000D01*
X15057381Y-13931000D02*
X15047857Y-13940524D01*
X15047857Y-13940524D02*
X15038333Y-13931000D01*
X15038333Y-13931000D02*
X15047857Y-13921476D01*
X15047857Y-13921476D02*
X15047857Y-13940524D01*
X15181191Y-13740524D02*
X15200238Y-13740524D01*
X15200238Y-13740524D02*
X15219286Y-13750048D01*
X15219286Y-13750048D02*
X15228810Y-13759571D01*
X15228810Y-13759571D02*
X15238333Y-13778619D01*
X15238333Y-13778619D02*
X15247857Y-13816714D01*
X15247857Y-13816714D02*
X15247857Y-13864333D01*
X15247857Y-13864333D02*
X15238333Y-13902428D01*
X15238333Y-13902428D02*
X15228810Y-13921476D01*
X15228810Y-13921476D02*
X15219286Y-13931000D01*
X15219286Y-13931000D02*
X15200238Y-13940524D01*
X15200238Y-13940524D02*
X15181191Y-13940524D01*
X15181191Y-13940524D02*
X15162143Y-13931000D01*
X15162143Y-13931000D02*
X15152619Y-13921476D01*
X15152619Y-13921476D02*
X15143095Y-13902428D01*
X15143095Y-13902428D02*
X15133572Y-13864333D01*
X15133572Y-13864333D02*
X15133572Y-13816714D01*
X15133572Y-13816714D02*
X15143095Y-13778619D01*
X15143095Y-13778619D02*
X15152619Y-13759571D01*
X15152619Y-13759571D02*
X15162143Y-13750048D01*
X15162143Y-13750048D02*
X15181191Y-13740524D01*
X15428810Y-13740524D02*
X15333572Y-13740524D01*
X15333572Y-13740524D02*
X15324048Y-13835762D01*
X15324048Y-13835762D02*
X15333572Y-13826238D01*
X15333572Y-13826238D02*
X15352619Y-13816714D01*
X15352619Y-13816714D02*
X15400238Y-13816714D01*
X15400238Y-13816714D02*
X15419286Y-13826238D01*
X15419286Y-13826238D02*
X15428810Y-13835762D01*
X15428810Y-13835762D02*
X15438333Y-13854809D01*
X15438333Y-13854809D02*
X15438333Y-13902428D01*
X15438333Y-13902428D02*
X15428810Y-13921476D01*
X15428810Y-13921476D02*
X15419286Y-13931000D01*
X15419286Y-13931000D02*
X15400238Y-13940524D01*
X15400238Y-13940524D02*
X15352619Y-13940524D01*
X15352619Y-13940524D02*
X15333572Y-13931000D01*
X15333572Y-13931000D02*
X15324048Y-13921476D01*
X15628810Y-13940524D02*
X15514524Y-13940524D01*
X15571667Y-13940524D02*
X15571667Y-13740524D01*
X15571667Y-13740524D02*
X15552619Y-13769095D01*
X15552619Y-13769095D02*
X15533572Y-13788143D01*
X15533572Y-13788143D02*
X15514524Y-13797667D01*
X15705000Y-13759571D02*
X15714524Y-13750048D01*
X15714524Y-13750048D02*
X15733572Y-13740524D01*
X15733572Y-13740524D02*
X15781191Y-13740524D01*
X15781191Y-13740524D02*
X15800238Y-13750048D01*
X15800238Y-13750048D02*
X15809762Y-13759571D01*
X15809762Y-13759571D02*
X15819286Y-13778619D01*
X15819286Y-13778619D02*
X15819286Y-13797667D01*
X15819286Y-13797667D02*
X15809762Y-13826238D01*
X15809762Y-13826238D02*
X15695476Y-13940524D01*
X15695476Y-13940524D02*
X15819286Y-13940524D01*
X15895476Y-13740524D02*
X15895476Y-13778619D01*
X15971667Y-13740524D02*
X15971667Y-13778619D01*
X16266905Y-14016714D02*
X16257381Y-14007190D01*
X16257381Y-14007190D02*
X16238334Y-13978619D01*
X16238334Y-13978619D02*
X16228810Y-13959571D01*
X16228810Y-13959571D02*
X16219286Y-13931000D01*
X16219286Y-13931000D02*
X16209762Y-13883381D01*
X16209762Y-13883381D02*
X16209762Y-13845286D01*
X16209762Y-13845286D02*
X16219286Y-13797667D01*
X16219286Y-13797667D02*
X16228810Y-13769095D01*
X16228810Y-13769095D02*
X16238334Y-13750048D01*
X16238334Y-13750048D02*
X16257381Y-13721476D01*
X16257381Y-13721476D02*
X16266905Y-13711952D01*
X16333572Y-13759571D02*
X16343095Y-13750048D01*
X16343095Y-13750048D02*
X16362143Y-13740524D01*
X16362143Y-13740524D02*
X16409762Y-13740524D01*
X16409762Y-13740524D02*
X16428810Y-13750048D01*
X16428810Y-13750048D02*
X16438334Y-13759571D01*
X16438334Y-13759571D02*
X16447857Y-13778619D01*
X16447857Y-13778619D02*
X16447857Y-13797667D01*
X16447857Y-13797667D02*
X16438334Y-13826238D01*
X16438334Y-13826238D02*
X16324048Y-13940524D01*
X16324048Y-13940524D02*
X16447857Y-13940524D01*
X16514524Y-13740524D02*
X16647857Y-13740524D01*
X16647857Y-13740524D02*
X16562143Y-13940524D01*
X16876429Y-13940524D02*
X16876429Y-13740524D01*
X16962143Y-13940524D02*
X16962143Y-13835762D01*
X16962143Y-13835762D02*
X16952619Y-13816714D01*
X16952619Y-13816714D02*
X16933572Y-13807190D01*
X16933572Y-13807190D02*
X16905000Y-13807190D01*
X16905000Y-13807190D02*
X16885953Y-13816714D01*
X16885953Y-13816714D02*
X16876429Y-13826238D01*
X17085953Y-13940524D02*
X17066905Y-13931000D01*
X17066905Y-13931000D02*
X17057381Y-13921476D01*
X17057381Y-13921476D02*
X17047858Y-13902428D01*
X17047858Y-13902428D02*
X17047858Y-13845286D01*
X17047858Y-13845286D02*
X17057381Y-13826238D01*
X17057381Y-13826238D02*
X17066905Y-13816714D01*
X17066905Y-13816714D02*
X17085953Y-13807190D01*
X17085953Y-13807190D02*
X17114524Y-13807190D01*
X17114524Y-13807190D02*
X17133572Y-13816714D01*
X17133572Y-13816714D02*
X17143096Y-13826238D01*
X17143096Y-13826238D02*
X17152619Y-13845286D01*
X17152619Y-13845286D02*
X17152619Y-13902428D01*
X17152619Y-13902428D02*
X17143096Y-13921476D01*
X17143096Y-13921476D02*
X17133572Y-13931000D01*
X17133572Y-13931000D02*
X17114524Y-13940524D01*
X17114524Y-13940524D02*
X17085953Y-13940524D01*
X17266905Y-13940524D02*
X17247858Y-13931000D01*
X17247858Y-13931000D02*
X17238334Y-13911952D01*
X17238334Y-13911952D02*
X17238334Y-13740524D01*
X17419286Y-13931000D02*
X17400239Y-13940524D01*
X17400239Y-13940524D02*
X17362143Y-13940524D01*
X17362143Y-13940524D02*
X17343096Y-13931000D01*
X17343096Y-13931000D02*
X17333572Y-13911952D01*
X17333572Y-13911952D02*
X17333572Y-13835762D01*
X17333572Y-13835762D02*
X17343096Y-13816714D01*
X17343096Y-13816714D02*
X17362143Y-13807190D01*
X17362143Y-13807190D02*
X17400239Y-13807190D01*
X17400239Y-13807190D02*
X17419286Y-13816714D01*
X17419286Y-13816714D02*
X17428810Y-13835762D01*
X17428810Y-13835762D02*
X17428810Y-13854809D01*
X17428810Y-13854809D02*
X17333572Y-13873857D01*
X17505000Y-13931000D02*
X17524048Y-13940524D01*
X17524048Y-13940524D02*
X17562143Y-13940524D01*
X17562143Y-13940524D02*
X17581191Y-13931000D01*
X17581191Y-13931000D02*
X17590715Y-13911952D01*
X17590715Y-13911952D02*
X17590715Y-13902428D01*
X17590715Y-13902428D02*
X17581191Y-13883381D01*
X17581191Y-13883381D02*
X17562143Y-13873857D01*
X17562143Y-13873857D02*
X17533572Y-13873857D01*
X17533572Y-13873857D02*
X17514524Y-13864333D01*
X17514524Y-13864333D02*
X17505000Y-13845286D01*
X17505000Y-13845286D02*
X17505000Y-13835762D01*
X17505000Y-13835762D02*
X17514524Y-13816714D01*
X17514524Y-13816714D02*
X17533572Y-13807190D01*
X17533572Y-13807190D02*
X17562143Y-13807190D01*
X17562143Y-13807190D02*
X17581191Y-13816714D01*
X17657381Y-14016714D02*
X17666905Y-14007190D01*
X17666905Y-14007190D02*
X17685953Y-13978619D01*
X17685953Y-13978619D02*
X17695477Y-13959571D01*
X17695477Y-13959571D02*
X17705000Y-13931000D01*
X17705000Y-13931000D02*
X17714524Y-13883381D01*
X17714524Y-13883381D02*
X17714524Y-13845286D01*
X17714524Y-13845286D02*
X17705000Y-13797667D01*
X17705000Y-13797667D02*
X17695477Y-13769095D01*
X17695477Y-13769095D02*
X17685953Y-13750048D01*
X17685953Y-13750048D02*
X17666905Y-13721476D01*
X17666905Y-13721476D02*
X17657381Y-13711952D01*
X12675711Y-14182711D02*
X12675711Y-14041289D01*
X12534289Y-14041289D01*
X12534289Y-14182711D01*
X12675711Y-14182711D01*
X12933571Y-14004524D02*
X13057381Y-14004524D01*
X13057381Y-14004524D02*
X12990714Y-14080714D01*
X12990714Y-14080714D02*
X13019286Y-14080714D01*
X13019286Y-14080714D02*
X13038333Y-14090238D01*
X13038333Y-14090238D02*
X13047857Y-14099762D01*
X13047857Y-14099762D02*
X13057381Y-14118809D01*
X13057381Y-14118809D02*
X13057381Y-14166428D01*
X13057381Y-14166428D02*
X13047857Y-14185476D01*
X13047857Y-14185476D02*
X13038333Y-14195000D01*
X13038333Y-14195000D02*
X13019286Y-14204524D01*
X13019286Y-14204524D02*
X12962143Y-14204524D01*
X12962143Y-14204524D02*
X12943095Y-14195000D01*
X12943095Y-14195000D02*
X12933571Y-14185476D01*
X13143095Y-14185476D02*
X13152619Y-14195000D01*
X13152619Y-14195000D02*
X13143095Y-14204524D01*
X13143095Y-14204524D02*
X13133571Y-14195000D01*
X13133571Y-14195000D02*
X13143095Y-14185476D01*
X13143095Y-14185476D02*
X13143095Y-14204524D01*
X13228809Y-14023571D02*
X13238333Y-14014048D01*
X13238333Y-14014048D02*
X13257381Y-14004524D01*
X13257381Y-14004524D02*
X13305000Y-14004524D01*
X13305000Y-14004524D02*
X13324048Y-14014048D01*
X13324048Y-14014048D02*
X13333571Y-14023571D01*
X13333571Y-14023571D02*
X13343095Y-14042619D01*
X13343095Y-14042619D02*
X13343095Y-14061667D01*
X13343095Y-14061667D02*
X13333571Y-14090238D01*
X13333571Y-14090238D02*
X13219286Y-14204524D01*
X13219286Y-14204524D02*
X13343095Y-14204524D01*
X13466905Y-14004524D02*
X13485952Y-14004524D01*
X13485952Y-14004524D02*
X13505000Y-14014048D01*
X13505000Y-14014048D02*
X13514524Y-14023571D01*
X13514524Y-14023571D02*
X13524048Y-14042619D01*
X13524048Y-14042619D02*
X13533571Y-14080714D01*
X13533571Y-14080714D02*
X13533571Y-14128333D01*
X13533571Y-14128333D02*
X13524048Y-14166428D01*
X13524048Y-14166428D02*
X13514524Y-14185476D01*
X13514524Y-14185476D02*
X13505000Y-14195000D01*
X13505000Y-14195000D02*
X13485952Y-14204524D01*
X13485952Y-14204524D02*
X13466905Y-14204524D01*
X13466905Y-14204524D02*
X13447857Y-14195000D01*
X13447857Y-14195000D02*
X13438333Y-14185476D01*
X13438333Y-14185476D02*
X13428809Y-14166428D01*
X13428809Y-14166428D02*
X13419286Y-14128333D01*
X13419286Y-14128333D02*
X13419286Y-14080714D01*
X13419286Y-14080714D02*
X13428809Y-14042619D01*
X13428809Y-14042619D02*
X13438333Y-14023571D01*
X13438333Y-14023571D02*
X13447857Y-14014048D01*
X13447857Y-14014048D02*
X13466905Y-14004524D01*
X13657381Y-14004524D02*
X13676429Y-14004524D01*
X13676429Y-14004524D02*
X13695476Y-14014048D01*
X13695476Y-14014048D02*
X13705000Y-14023571D01*
X13705000Y-14023571D02*
X13714524Y-14042619D01*
X13714524Y-14042619D02*
X13724048Y-14080714D01*
X13724048Y-14080714D02*
X13724048Y-14128333D01*
X13724048Y-14128333D02*
X13714524Y-14166428D01*
X13714524Y-14166428D02*
X13705000Y-14185476D01*
X13705000Y-14185476D02*
X13695476Y-14195000D01*
X13695476Y-14195000D02*
X13676429Y-14204524D01*
X13676429Y-14204524D02*
X13657381Y-14204524D01*
X13657381Y-14204524D02*
X13638333Y-14195000D01*
X13638333Y-14195000D02*
X13628809Y-14185476D01*
X13628809Y-14185476D02*
X13619286Y-14166428D01*
X13619286Y-14166428D02*
X13609762Y-14128333D01*
X13609762Y-14128333D02*
X13609762Y-14080714D01*
X13609762Y-14080714D02*
X13619286Y-14042619D01*
X13619286Y-14042619D02*
X13628809Y-14023571D01*
X13628809Y-14023571D02*
X13638333Y-14014048D01*
X13638333Y-14014048D02*
X13657381Y-14004524D01*
X13809762Y-14204524D02*
X13809762Y-14071190D01*
X13809762Y-14090238D02*
X13819286Y-14080714D01*
X13819286Y-14080714D02*
X13838333Y-14071190D01*
X13838333Y-14071190D02*
X13866905Y-14071190D01*
X13866905Y-14071190D02*
X13885952Y-14080714D01*
X13885952Y-14080714D02*
X13895476Y-14099762D01*
X13895476Y-14099762D02*
X13895476Y-14204524D01*
X13895476Y-14099762D02*
X13905000Y-14080714D01*
X13905000Y-14080714D02*
X13924048Y-14071190D01*
X13924048Y-14071190D02*
X13952619Y-14071190D01*
X13952619Y-14071190D02*
X13971667Y-14080714D01*
X13971667Y-14080714D02*
X13981190Y-14099762D01*
X13981190Y-14099762D02*
X13981190Y-14204524D01*
X14076429Y-14204524D02*
X14076429Y-14071190D01*
X14076429Y-14090238D02*
X14085952Y-14080714D01*
X14085952Y-14080714D02*
X14105000Y-14071190D01*
X14105000Y-14071190D02*
X14133571Y-14071190D01*
X14133571Y-14071190D02*
X14152619Y-14080714D01*
X14152619Y-14080714D02*
X14162143Y-14099762D01*
X14162143Y-14099762D02*
X14162143Y-14204524D01*
X14162143Y-14099762D02*
X14171667Y-14080714D01*
X14171667Y-14080714D02*
X14190714Y-14071190D01*
X14190714Y-14071190D02*
X14219286Y-14071190D01*
X14219286Y-14071190D02*
X14238333Y-14080714D01*
X14238333Y-14080714D02*
X14247857Y-14099762D01*
X14247857Y-14099762D02*
X14247857Y-14204524D01*
X14638333Y-13995000D02*
X14466905Y-14252143D01*
X14895476Y-14004524D02*
X14914524Y-14004524D01*
X14914524Y-14004524D02*
X14933572Y-14014048D01*
X14933572Y-14014048D02*
X14943095Y-14023571D01*
X14943095Y-14023571D02*
X14952619Y-14042619D01*
X14952619Y-14042619D02*
X14962143Y-14080714D01*
X14962143Y-14080714D02*
X14962143Y-14128333D01*
X14962143Y-14128333D02*
X14952619Y-14166428D01*
X14952619Y-14166428D02*
X14943095Y-14185476D01*
X14943095Y-14185476D02*
X14933572Y-14195000D01*
X14933572Y-14195000D02*
X14914524Y-14204524D01*
X14914524Y-14204524D02*
X14895476Y-14204524D01*
X14895476Y-14204524D02*
X14876429Y-14195000D01*
X14876429Y-14195000D02*
X14866905Y-14185476D01*
X14866905Y-14185476D02*
X14857381Y-14166428D01*
X14857381Y-14166428D02*
X14847857Y-14128333D01*
X14847857Y-14128333D02*
X14847857Y-14080714D01*
X14847857Y-14080714D02*
X14857381Y-14042619D01*
X14857381Y-14042619D02*
X14866905Y-14023571D01*
X14866905Y-14023571D02*
X14876429Y-14014048D01*
X14876429Y-14014048D02*
X14895476Y-14004524D01*
X15047857Y-14185476D02*
X15057381Y-14195000D01*
X15057381Y-14195000D02*
X15047857Y-14204524D01*
X15047857Y-14204524D02*
X15038333Y-14195000D01*
X15038333Y-14195000D02*
X15047857Y-14185476D01*
X15047857Y-14185476D02*
X15047857Y-14204524D01*
X15247857Y-14204524D02*
X15133572Y-14204524D01*
X15190714Y-14204524D02*
X15190714Y-14004524D01*
X15190714Y-14004524D02*
X15171667Y-14033095D01*
X15171667Y-14033095D02*
X15152619Y-14052143D01*
X15152619Y-14052143D02*
X15133572Y-14061667D01*
X15324048Y-14023571D02*
X15333572Y-14014048D01*
X15333572Y-14014048D02*
X15352619Y-14004524D01*
X15352619Y-14004524D02*
X15400238Y-14004524D01*
X15400238Y-14004524D02*
X15419286Y-14014048D01*
X15419286Y-14014048D02*
X15428810Y-14023571D01*
X15428810Y-14023571D02*
X15438333Y-14042619D01*
X15438333Y-14042619D02*
X15438333Y-14061667D01*
X15438333Y-14061667D02*
X15428810Y-14090238D01*
X15428810Y-14090238D02*
X15314524Y-14204524D01*
X15314524Y-14204524D02*
X15438333Y-14204524D01*
X15609762Y-14004524D02*
X15571667Y-14004524D01*
X15571667Y-14004524D02*
X15552619Y-14014048D01*
X15552619Y-14014048D02*
X15543095Y-14023571D01*
X15543095Y-14023571D02*
X15524048Y-14052143D01*
X15524048Y-14052143D02*
X15514524Y-14090238D01*
X15514524Y-14090238D02*
X15514524Y-14166428D01*
X15514524Y-14166428D02*
X15524048Y-14185476D01*
X15524048Y-14185476D02*
X15533572Y-14195000D01*
X15533572Y-14195000D02*
X15552619Y-14204524D01*
X15552619Y-14204524D02*
X15590714Y-14204524D01*
X15590714Y-14204524D02*
X15609762Y-14195000D01*
X15609762Y-14195000D02*
X15619286Y-14185476D01*
X15619286Y-14185476D02*
X15628810Y-14166428D01*
X15628810Y-14166428D02*
X15628810Y-14118809D01*
X15628810Y-14118809D02*
X15619286Y-14099762D01*
X15619286Y-14099762D02*
X15609762Y-14090238D01*
X15609762Y-14090238D02*
X15590714Y-14080714D01*
X15590714Y-14080714D02*
X15552619Y-14080714D01*
X15552619Y-14080714D02*
X15533572Y-14090238D01*
X15533572Y-14090238D02*
X15524048Y-14099762D01*
X15524048Y-14099762D02*
X15514524Y-14118809D01*
X15752619Y-14004524D02*
X15771667Y-14004524D01*
X15771667Y-14004524D02*
X15790714Y-14014048D01*
X15790714Y-14014048D02*
X15800238Y-14023571D01*
X15800238Y-14023571D02*
X15809762Y-14042619D01*
X15809762Y-14042619D02*
X15819286Y-14080714D01*
X15819286Y-14080714D02*
X15819286Y-14128333D01*
X15819286Y-14128333D02*
X15809762Y-14166428D01*
X15809762Y-14166428D02*
X15800238Y-14185476D01*
X15800238Y-14185476D02*
X15790714Y-14195000D01*
X15790714Y-14195000D02*
X15771667Y-14204524D01*
X15771667Y-14204524D02*
X15752619Y-14204524D01*
X15752619Y-14204524D02*
X15733572Y-14195000D01*
X15733572Y-14195000D02*
X15724048Y-14185476D01*
X15724048Y-14185476D02*
X15714524Y-14166428D01*
X15714524Y-14166428D02*
X15705000Y-14128333D01*
X15705000Y-14128333D02*
X15705000Y-14080714D01*
X15705000Y-14080714D02*
X15714524Y-14042619D01*
X15714524Y-14042619D02*
X15724048Y-14023571D01*
X15724048Y-14023571D02*
X15733572Y-14014048D01*
X15733572Y-14014048D02*
X15752619Y-14004524D01*
X15895476Y-14004524D02*
X15895476Y-14042619D01*
X15971667Y-14004524D02*
X15971667Y-14042619D01*
X16266905Y-14280714D02*
X16257381Y-14271190D01*
X16257381Y-14271190D02*
X16238334Y-14242619D01*
X16238334Y-14242619D02*
X16228810Y-14223571D01*
X16228810Y-14223571D02*
X16219286Y-14195000D01*
X16219286Y-14195000D02*
X16209762Y-14147381D01*
X16209762Y-14147381D02*
X16209762Y-14109286D01*
X16209762Y-14109286D02*
X16219286Y-14061667D01*
X16219286Y-14061667D02*
X16228810Y-14033095D01*
X16228810Y-14033095D02*
X16238334Y-14014048D01*
X16238334Y-14014048D02*
X16257381Y-13985476D01*
X16257381Y-13985476D02*
X16266905Y-13975952D01*
X16428810Y-14071190D02*
X16428810Y-14204524D01*
X16381191Y-13995000D02*
X16333572Y-14137857D01*
X16333572Y-14137857D02*
X16457381Y-14137857D01*
X16685953Y-14204524D02*
X16685953Y-14004524D01*
X16771667Y-14204524D02*
X16771667Y-14099762D01*
X16771667Y-14099762D02*
X16762143Y-14080714D01*
X16762143Y-14080714D02*
X16743096Y-14071190D01*
X16743096Y-14071190D02*
X16714524Y-14071190D01*
X16714524Y-14071190D02*
X16695476Y-14080714D01*
X16695476Y-14080714D02*
X16685953Y-14090238D01*
X16895477Y-14204524D02*
X16876429Y-14195000D01*
X16876429Y-14195000D02*
X16866905Y-14185476D01*
X16866905Y-14185476D02*
X16857381Y-14166428D01*
X16857381Y-14166428D02*
X16857381Y-14109286D01*
X16857381Y-14109286D02*
X16866905Y-14090238D01*
X16866905Y-14090238D02*
X16876429Y-14080714D01*
X16876429Y-14080714D02*
X16895477Y-14071190D01*
X16895477Y-14071190D02*
X16924048Y-14071190D01*
X16924048Y-14071190D02*
X16943096Y-14080714D01*
X16943096Y-14080714D02*
X16952619Y-14090238D01*
X16952619Y-14090238D02*
X16962143Y-14109286D01*
X16962143Y-14109286D02*
X16962143Y-14166428D01*
X16962143Y-14166428D02*
X16952619Y-14185476D01*
X16952619Y-14185476D02*
X16943096Y-14195000D01*
X16943096Y-14195000D02*
X16924048Y-14204524D01*
X16924048Y-14204524D02*
X16895477Y-14204524D01*
X17076429Y-14204524D02*
X17057381Y-14195000D01*
X17057381Y-14195000D02*
X17047858Y-14175952D01*
X17047858Y-14175952D02*
X17047858Y-14004524D01*
X17228810Y-14195000D02*
X17209762Y-14204524D01*
X17209762Y-14204524D02*
X17171667Y-14204524D01*
X17171667Y-14204524D02*
X17152619Y-14195000D01*
X17152619Y-14195000D02*
X17143096Y-14175952D01*
X17143096Y-14175952D02*
X17143096Y-14099762D01*
X17143096Y-14099762D02*
X17152619Y-14080714D01*
X17152619Y-14080714D02*
X17171667Y-14071190D01*
X17171667Y-14071190D02*
X17209762Y-14071190D01*
X17209762Y-14071190D02*
X17228810Y-14080714D01*
X17228810Y-14080714D02*
X17238334Y-14099762D01*
X17238334Y-14099762D02*
X17238334Y-14118809D01*
X17238334Y-14118809D02*
X17143096Y-14137857D01*
X17314524Y-14195000D02*
X17333572Y-14204524D01*
X17333572Y-14204524D02*
X17371667Y-14204524D01*
X17371667Y-14204524D02*
X17390715Y-14195000D01*
X17390715Y-14195000D02*
X17400239Y-14175952D01*
X17400239Y-14175952D02*
X17400239Y-14166428D01*
X17400239Y-14166428D02*
X17390715Y-14147381D01*
X17390715Y-14147381D02*
X17371667Y-14137857D01*
X17371667Y-14137857D02*
X17343096Y-14137857D01*
X17343096Y-14137857D02*
X17324048Y-14128333D01*
X17324048Y-14128333D02*
X17314524Y-14109286D01*
X17314524Y-14109286D02*
X17314524Y-14099762D01*
X17314524Y-14099762D02*
X17324048Y-14080714D01*
X17324048Y-14080714D02*
X17343096Y-14071190D01*
X17343096Y-14071190D02*
X17371667Y-14071190D01*
X17371667Y-14071190D02*
X17390715Y-14080714D01*
X17466905Y-14280714D02*
X17476429Y-14271190D01*
X17476429Y-14271190D02*
X17495477Y-14242619D01*
X17495477Y-14242619D02*
X17505000Y-14223571D01*
X17505000Y-14223571D02*
X17514524Y-14195000D01*
X17514524Y-14195000D02*
X17524048Y-14147381D01*
X17524048Y-14147381D02*
X17524048Y-14109286D01*
X17524048Y-14109286D02*
X17514524Y-14061667D01*
X17514524Y-14061667D02*
X17505000Y-14033095D01*
X17505000Y-14033095D02*
X17495477Y-14014048D01*
X17495477Y-14014048D02*
X17476429Y-13985476D01*
X17476429Y-13985476D02*
X17466905Y-13975952D01*
M02*
