G04 #@! TF.GenerationSoftware,KiCad,Pcbnew,7.0.1*
G04 #@! TF.CreationDate,2023-12-04T13:47:49-08:00*
G04 #@! TF.ProjectId,GReX_Power,47526558-5f50-46f7-9765-722e6b696361,2*
G04 #@! TF.SameCoordinates,Original*
G04 #@! TF.FileFunction,Soldermask,Top*
G04 #@! TF.FilePolarity,Negative*
%FSLAX46Y46*%
G04 Gerber Fmt 4.6, Leading zero omitted, Abs format (unit mm)*
G04 Created by KiCad (PCBNEW 7.0.1) date 2023-12-04 13:47:49*
%MOMM*%
%LPD*%
G01*
G04 APERTURE LIST*
G04 Aperture macros list*
%AMRoundRect*
0 Rectangle with rounded corners*
0 $1 Rounding radius*
0 $2 $3 $4 $5 $6 $7 $8 $9 X,Y pos of 4 corners*
0 Add a 4 corners polygon primitive as box body*
4,1,4,$2,$3,$4,$5,$6,$7,$8,$9,$2,$3,0*
0 Add four circle primitives for the rounded corners*
1,1,$1+$1,$2,$3*
1,1,$1+$1,$4,$5*
1,1,$1+$1,$6,$7*
1,1,$1+$1,$8,$9*
0 Add four rect primitives between the rounded corners*
20,1,$1+$1,$2,$3,$4,$5,0*
20,1,$1+$1,$4,$5,$6,$7,0*
20,1,$1+$1,$6,$7,$8,$9,0*
20,1,$1+$1,$8,$9,$2,$3,0*%
G04 Aperture macros list end*
%ADD10RoundRect,0.250000X0.325000X0.650000X-0.325000X0.650000X-0.325000X-0.650000X0.325000X-0.650000X0*%
%ADD11R,2.600000X2.600000*%
%ADD12C,2.600000*%
%ADD13R,0.600000X0.450000*%
%ADD14RoundRect,0.150000X0.150000X-0.587500X0.150000X0.587500X-0.150000X0.587500X-0.150000X-0.587500X0*%
%ADD15RoundRect,0.135000X0.135000X0.185000X-0.135000X0.185000X-0.135000X-0.185000X0.135000X-0.185000X0*%
%ADD16RoundRect,0.218750X0.218750X0.256250X-0.218750X0.256250X-0.218750X-0.256250X0.218750X-0.256250X0*%
%ADD17C,3.600000*%
%ADD18C,6.400000*%
%ADD19RoundRect,0.135000X-0.185000X0.135000X-0.185000X-0.135000X0.185000X-0.135000X0.185000X0.135000X0*%
%ADD20RoundRect,0.250000X-0.450000X-0.425000X0.450000X-0.425000X0.450000X0.425000X-0.450000X0.425000X0*%
%ADD21R,2.900000X5.400000*%
%ADD22R,0.600000X1.550000*%
%ADD23R,3.100000X2.600000*%
%ADD24RoundRect,0.200000X0.200000X0.275000X-0.200000X0.275000X-0.200000X-0.275000X0.200000X-0.275000X0*%
%ADD25R,1.500000X2.200000*%
%ADD26RoundRect,0.200000X-0.200000X-0.275000X0.200000X-0.275000X0.200000X0.275000X-0.200000X0.275000X0*%
%ADD27RoundRect,0.250000X-0.262500X-0.450000X0.262500X-0.450000X0.262500X0.450000X-0.262500X0.450000X0*%
%ADD28R,1.800000X2.500000*%
%ADD29R,2.300000X2.300000*%
%ADD30C,2.300000*%
%ADD31RoundRect,0.250000X-0.250000X-0.475000X0.250000X-0.475000X0.250000X0.475000X-0.250000X0.475000X0*%
%ADD32RoundRect,0.250000X-1.025000X0.787500X-1.025000X-0.787500X1.025000X-0.787500X1.025000X0.787500X0*%
%ADD33RoundRect,0.135000X-0.135000X-0.185000X0.135000X-0.185000X0.135000X0.185000X-0.135000X0.185000X0*%
%ADD34RoundRect,0.250000X-0.925000X0.787500X-0.925000X-0.787500X0.925000X-0.787500X0.925000X0.787500X0*%
G04 APERTURE END LIST*
D10*
X153900000Y-107850000D03*
X150950000Y-107850000D03*
D11*
X144692000Y-121092000D03*
D12*
X149692000Y-121092000D03*
X154692000Y-121092000D03*
X159692000Y-121092000D03*
X164692000Y-121092000D03*
X169692000Y-121092000D03*
D11*
X202538000Y-103580000D03*
D12*
X202538000Y-98580000D03*
X202538000Y-93580000D03*
X202538000Y-88580000D03*
D10*
X165532000Y-111177500D03*
X162582000Y-111177500D03*
D13*
X188972000Y-107249000D03*
X191072000Y-107249000D03*
D14*
X196072000Y-111124000D03*
X197972000Y-111124000D03*
X197022000Y-109249000D03*
D15*
X198052000Y-112774000D03*
X197032000Y-112774000D03*
D16*
X140312500Y-104500000D03*
X138737500Y-104500000D03*
X140312500Y-88500000D03*
X138737500Y-88500000D03*
D17*
X130600000Y-74300000D03*
D18*
X130600000Y-74300000D03*
D19*
X167994000Y-99119000D03*
X167994000Y-100139000D03*
D20*
X184432000Y-112854000D03*
X187132000Y-112854000D03*
D21*
X157150000Y-90993000D03*
X147250000Y-90993000D03*
D17*
X204500000Y-123200000D03*
D18*
X204500000Y-123200000D03*
D10*
X165532000Y-107884000D03*
X162582000Y-107884000D03*
D22*
X173836000Y-99690000D03*
X172566000Y-99690000D03*
X171296000Y-99690000D03*
X170026000Y-99690000D03*
X170026000Y-105090000D03*
X171296000Y-105090000D03*
X172566000Y-105090000D03*
X173836000Y-105090000D03*
D23*
X171931000Y-102390000D03*
D24*
X140350000Y-114000000D03*
X138700000Y-114000000D03*
X140350000Y-90100000D03*
X138700000Y-90100000D03*
D25*
X172414000Y-112456000D03*
X178814000Y-112456000D03*
D24*
X140350000Y-98100000D03*
X138700000Y-98100000D03*
D17*
X204500000Y-74300000D03*
D18*
X204500000Y-74300000D03*
D11*
X195233000Y-76261000D03*
D12*
X190233000Y-76261000D03*
X185233000Y-76261000D03*
X180233000Y-76261000D03*
X175233000Y-76261000D03*
X170233000Y-76261000D03*
X165233000Y-76261000D03*
X160233000Y-76261000D03*
X155233000Y-76261000D03*
X150233000Y-76261000D03*
X145233000Y-76261000D03*
X140233000Y-76261000D03*
D22*
X154808000Y-99700000D03*
X153538000Y-99700000D03*
X152268000Y-99700000D03*
X150998000Y-99700000D03*
X150998000Y-105100000D03*
X152268000Y-105100000D03*
X153538000Y-105100000D03*
X154808000Y-105100000D03*
D23*
X152903000Y-102400000D03*
D26*
X187409500Y-109249000D03*
X189059500Y-109249000D03*
D19*
X167994000Y-101112500D03*
X167994000Y-102132500D03*
D10*
X153900000Y-111150000D03*
X150950000Y-111150000D03*
D16*
X140312500Y-112400000D03*
X138737500Y-112400000D03*
D27*
X190862000Y-112854000D03*
X192687000Y-112854000D03*
D19*
X148944000Y-99090000D03*
X148944000Y-100110000D03*
D28*
X157850000Y-106250000D03*
X157850000Y-102250000D03*
D29*
X194410000Y-104328000D03*
D30*
X194410000Y-94168000D03*
X194410000Y-86548000D03*
X186790000Y-89088000D03*
X186790000Y-104328000D03*
D31*
X175934000Y-99702500D03*
X177834000Y-99702500D03*
D16*
X140312500Y-96500000D03*
X138737500Y-96500000D03*
D31*
X156850000Y-99650000D03*
X158750000Y-99650000D03*
D24*
X140350000Y-106100000D03*
X138700000Y-106100000D03*
D32*
X144880000Y-99945500D03*
X144880000Y-106170500D03*
D19*
X148944000Y-101040000D03*
X148944000Y-102060000D03*
D28*
X176884000Y-106302500D03*
X176884000Y-102302500D03*
D16*
X192597000Y-109249000D03*
X191022000Y-109249000D03*
D21*
X174722000Y-90993000D03*
X164822000Y-90993000D03*
D33*
X195022000Y-112774000D03*
X196042000Y-112774000D03*
D34*
X164057000Y-100002500D03*
X164057000Y-104927500D03*
D17*
X130600000Y-123200000D03*
D18*
X130600000Y-123200000D03*
M02*
