M48
; DRILL file {KiCad 7.0.1} date Mon Dec  4 13:48:56 2023
; FORMAT={-:-/ absolute / metric / decimal}
; #@! TF.CreationDate,2023-12-04T13:48:56-08:00
; #@! TF.GenerationSoftware,Kicad,Pcbnew,7.0.1
; #@! TF.FileFunction,Plated,1,2,PTH
FMAT,2
METRIC
; #@! TA.AperFunction,Plated,PTH,ComponentDrill
T1C0.300
; #@! TA.AperFunction,Plated,PTH,ViaDrill
T2C0.400
; #@! TA.AperFunction,Plated,PTH,ComponentDrill
T3C1.300
; #@! TA.AperFunction,Plated,PTH,ComponentDrill
T4C3.200
%
G90
G05
T1
X151.103Y-101.8
X151.103Y-103.0
X152.203Y-101.8
X152.203Y-103.0
X153.503Y-101.8
X153.503Y-103.0
X154.703Y-101.8
X154.703Y-103.0
X170.131Y-101.79
X170.131Y-102.99
X171.231Y-101.79
X171.231Y-102.99
X172.531Y-101.79
X172.531Y-102.99
X173.731Y-101.79
X173.731Y-102.99
T2
X129.259Y-82.738
X129.259Y-86.738
X129.259Y-90.738
X129.259Y-94.738
X129.259Y-98.738
X129.259Y-102.738
X129.259Y-106.738
X129.259Y-110.738
X129.259Y-114.738
X129.259Y-118.738
X133.259Y-82.738
X133.259Y-86.738
X133.259Y-90.738
X133.259Y-94.738
X133.259Y-98.738
X133.259Y-102.738
X133.259Y-106.738
X133.259Y-110.738
X133.259Y-114.738
X133.259Y-118.738
X137.259Y-82.738
X137.259Y-86.738
X137.259Y-90.738
X137.259Y-94.738
X137.259Y-98.738
X137.259Y-102.738
X137.259Y-106.738
X137.259Y-110.738
X137.259Y-118.738
X137.259Y-122.738
X137.4Y-88.5
X137.4Y-112.4
X137.5Y-96.5
X141.259Y-82.738
X141.259Y-86.738
X141.259Y-94.738
X141.259Y-110.738
X141.259Y-122.738
X145.259Y-82.738
X145.259Y-86.738
X145.259Y-110.738
X145.259Y-114.738
X149.259Y-86.738
X149.259Y-102.738
X149.259Y-106.738
X149.259Y-110.738
X153.259Y-82.738
X153.259Y-86.738
X153.259Y-90.738
X153.259Y-94.738
X153.259Y-118.738
X157.259Y-82.738
X157.259Y-86.738
X157.259Y-102.738
X157.259Y-110.738
X157.259Y-118.738
X161.259Y-82.738
X161.259Y-86.738
X161.259Y-118.738
X161.259Y-122.738
X165.259Y-102.738
X166.724Y-99.121
X169.259Y-82.738
X169.259Y-86.738
X169.259Y-90.738
X169.259Y-94.738
X169.259Y-102.738
X169.259Y-110.738
X169.259Y-114.738
X173.259Y-82.738
X173.259Y-114.738
X173.259Y-122.738
X174.852Y-79.7
X177.259Y-86.738
X177.259Y-102.738
X177.259Y-110.738
X177.259Y-118.738
X177.259Y-122.738
X181.259Y-114.738
X181.259Y-118.738
X181.259Y-122.738
X185.259Y-82.738
X185.259Y-90.738
X185.259Y-94.738
X185.259Y-106.738
X185.259Y-118.738
X185.259Y-122.738
X189.259Y-82.738
X189.259Y-86.738
X189.259Y-90.738
X189.259Y-94.738
X189.259Y-102.738
X189.259Y-110.738
X189.259Y-114.738
X189.259Y-118.738
X189.259Y-122.738
X193.259Y-82.738
X193.259Y-90.738
X193.259Y-110.738
X193.259Y-114.738
X193.259Y-118.738
X197.259Y-94.738
X197.259Y-102.738
X197.259Y-122.738
X201.259Y-82.738
X201.259Y-86.738
X201.259Y-90.738
X201.259Y-106.738
X201.259Y-110.738
X201.259Y-114.738
X201.259Y-118.738
X205.259Y-82.738
X205.259Y-86.738
X205.259Y-90.738
X205.259Y-94.738
X205.259Y-98.738
X205.259Y-102.738
X205.259Y-106.738
X205.259Y-110.738
X205.259Y-114.738
X205.259Y-118.738
T3
X140.233Y-76.261
X144.692Y-121.092
X145.233Y-76.261
X149.692Y-121.092
X150.233Y-76.261
X154.692Y-121.092
X155.233Y-76.261
X159.692Y-121.092
X160.233Y-76.261
X164.692Y-121.092
X165.233Y-76.261
X169.692Y-121.092
X170.233Y-76.261
X175.233Y-76.261
X180.233Y-76.261
X185.233Y-76.261
X186.79Y-89.088
X186.79Y-104.328
X190.233Y-76.261
X194.41Y-86.548
X194.41Y-94.168
X194.41Y-104.328
X195.233Y-76.261
X202.538Y-88.58
X202.538Y-93.58
X202.538Y-98.58
X202.538Y-103.58
T4
X130.6Y-74.3
X130.6Y-123.2
X204.5Y-74.3
X204.5Y-123.2
T0
M30
